<?xml version="1.0" standalone="no"?>
<!DOCTYPE svg PUBLIC "-//W3C//DTD SVG 1.1//EN" "http://www.w3.org/Graphics/SVG/1.1/DTD/svg11.dtd" >
<svg xmlns="http://www.w3.org/2000/svg" xmlns:xlink="http://www.w3.org/1999/xlink" version="1.1">
<metadata>
Created by FontForge 20170924 at Mon Nov 26 15:29:17 2001
 By www-data
Copyright (c) Apostrophe (') and VEDI. Distribute freely., 2001. All rights reserved.
</metadata>
<defs>
<font id="Matrix_vs_Miltown" horiz-adv-x="1054" >
  <font-face 
    font-family="Matrix_vs_Miltown"
    font-weight="400"
    font-stretch="normal"
    units-per-em="1000"
    panose-1="2 0 5 5 8 0 0 2 0 4"
    ascent="800"
    descent="-200"
    x-height="542"
    cap-height="754"
    bbox="-149 -224 1557 998"
    underline-thickness="50"
    underline-position="-125"
    unicode-range="U+0006-2116"
  />
<missing-glyph horiz-adv-x="500" 
 />
    <glyph glyph-name=".notdef" horiz-adv-x="500" 
 />
    <glyph glyph-name=".null" horiz-adv-x="0" 
 />
    <glyph glyph-name="nonmarkingreturn" horiz-adv-x="500" 
 />
    <glyph glyph-name="space" unicode=" " 
d="M1097 188v24h-497v-24h497zM1096 647v23h-696v-23h696zM-54 0l454 1v23h-454v-24zM-2 520h602v24h-602v-24zM752 345v24h-497v-24h497z" />
    <glyph glyph-name="space" unicode="&#xa0;" 
d="M1097 188v24h-497v-24h497zM1096 647v23h-696v-23h696zM-54 0l454 1v23h-454v-24zM-2 520h602v24h-602v-24zM752 345v24h-497v-24h497z" />
    <glyph glyph-name="fraction" horiz-adv-x="401" 
d="M0 1h97l92 354h-96zM280 684l-89 -338h96l89 338h-96z" />
    <glyph glyph-name="Lslash" horiz-adv-x="901" 
d="M193 73l66 254v-207q0 -23 -3 -39q-11 -9 -28 -22.5t-41 -13.5h-23v-21h-264v-24h334q-11 -9 -28 -12.5t-42 -3.5h-23v-26h484l16 42h361v24h-220l46 98h-33q-14 -26 -29 -39.5t-31.5 -20t-36 -7.5t-41.5 -1l38 110h-33q-7 -14 -14.5 -30t-14.5 -31.5t-13 -28.5t-10 -20
h-128q-21 0 -33.5 2t-18.5 9t-8 21t-2 37v228h-57v67h20l89 338h-96l-13 -49h-193v-23h17q30 0 48.5 -6.5t29 -20t14 -34.5t3.5 -49h-385v-25h170q40 0 75.5 -3t61 -10.5t40.5 -21.5t15 -36v-51h-70l-93 -354h97z" />
    <glyph glyph-name="lslash" 
d="M-76 210v-24h497v24h-497zM403 20v-23h696v23h-696zM375 578l-454 -1v-23h454v24zM1102 207h-602v-24h602v24zM383 404v-24h497v24h-497z" />
    <glyph glyph-name="Zcaron" horiz-adv-x="999" 
d="M1055 0v23h-352v33h-275l220 288h-53l246 332h-160l40 47h-60l-3 -6v-69h-14l-13 22l-23 -41h82l-227 -290h39l-98 -127h-462v-24h444l-120 -156v-32h789zM588 629v94h-456v-121l32 -2q1 24 5.5 39t15 23.5t28 11t43.5 2.5v-165h33q1 29 7.5 51t22 37t41.5 22.5t65 7.5
h163zM718 964l-86 -152l-105 186h-81l146 -258l-4 -7v-10h73l136 241h-79zM600 614l8 15h-20v-15h12z" />
    <glyph glyph-name="zcaron" horiz-adv-x="203" 
d="M39 479h123v24h-123v-24zM39 210v-24h123v24h-123zM39 653v-24h123v24h-123zM39 335h123v24h-123v-24zM37 1h125v23h-125v-23z" />
    <glyph glyph-name="exclam" unicode="!" horiz-adv-x="292" 
d="M141 685q-24 -1 -39 -13v59q-24 -1 -39 -13v-294l27 -180h28l11 -46h28l56 368h-45q2 14 3 25.5t3 20.5h-33v73zM78 2h122v106h-122v-106z" />
    <glyph glyph-name="quotedbl" unicode="&#x22;" horiz-adv-x="555" 
d="M164 407l1 -3h19l56 220q0 25 -18.5 43t-45.5 18q-3 0 -7.5 -0.5l-4.5 -0.5v-277zM368 404h18l56 220q0 25 -19 43t-46 18q-7 0 -9 -1v-280z" />
    <glyph glyph-name="numbersign" unicode="#" horiz-adv-x="668" 
d="M671 446v11h27v31h-87l30 143h-81l-30 -143h-183l15 75h-81l-15 -75h-66v-31h-26v31h-63v-81h138l-5 -24h-68l-31 -134h-105v-81h46v18h68v-46h-32l-17 -81h81l23 109h183l-37 -166h24v-1h424v24h-362l32 143h64v81h-47l24 104h69l11 54h104v39h-27zM300 200v49h-74
l24 104h69l11 54h56v30h45v-30h82l-5 -24h-68l-31 -134h-55v-49h-54zM387 679h-81l-21 -100h81zM627 168v81h-76v-81h76z" />
    <glyph glyph-name="dollar" unicode="$" horiz-adv-x="511" 
d="M602 188v24h-169v141q-8 7 -17 14t-20 15h-140v221q55 -9 91.5 -47t48.5 -101h18v133q-26 19 -69 31.5t-89 15.5v81h-50v-81q-45 -2 -79.5 -15t-58.5 -35v-241h141q29 -19 62 -37v-190h-23v-96q-48 6 -80.5 24.5t-55.5 63.5h13q-2 4 -3.5 12t-3 16.5t-3 16.5t-2.5 13h-18
v-50h-23v-92h-138v-24h180q29 -8 65.5 -13.5t68.5 -5.5v-81h50v81q34 3 61.5 13t50.5 26v96h-20q-4 -37 -29 -63t-63 -32v87h23v167q24 -17 41.5 -38.5t29 -44.5t17 -45t5.5 -39h19v79h169zM206 395q-52 27 -71 52.5t-19 54.5q0 38 24 64.5t66 35.5v-207z" />
    <glyph glyph-name="percent" unicode="%" horiz-adv-x="789" 
d="M595 -11q34 0 63.5 18t50.5 48v169h24v158q-21 32 -51 51t-65 19q-25 0 -48.5 -10.5t-42.5 -29t-33 -43.5t-20 -54h42v-82h-24v-191q20 -24 47 -38.5t57 -14.5zM273 464v169q-20 24 -47 38t-56 14q-43 0 -78 -27.5t-54 -72.5l-2 -2v-296q18 -16 40 -25t46 -9
q43 0 78 27.5t54 72.5q23 20 39 48t22 63h-42zM-101 213v-24h386l-115 -199h49l202 352h-49l-73 -129h-400zM901 661v24h-361l-194 -330h83l7 12h-34l172 294h327zM619 323q39 0 50 -90h-30q-3 -17 -7.5 -37.5t-10.5 -37.5t-13 -28.5t-15 -11.5t-15 10t-13 25.5t-10.5 34.5
t-7.5 36h22q7 99 50 99zM118 502q0 49 6 84q24 -2 37.5 -40t13.5 -111q0 -25 -2 -45.5t-5 -37.5q-50 2 -50 150zM595 21q-36 0 -47 74q21 -9 45 -9q23 0 50 11q-10 -76 -48 -76zM619 355q-23 0 -50 -11q12 76 48 76t48 -75q-21 10 -46 10zM170 653q37 0 49 -80
q-18 19 -40 30.5t-47 13.5q12 36 38 36zM160 320q-14 -35 -38 -35q-38 0 -48 79q38 -39 86 -44z" />
    <glyph glyph-name="ampersand" unicode="&#x26;" horiz-adv-x="802" 
d="M903 0v24h-345v49q-31 6 -64 29t-61 58l19 28h452v24h-438q28 48 49.5 90t42.5 63l5 5t7 5q-1 -5 -1.5 -10t-2.5 -10h64q10 17 19 30.5t18 22.5q11 11 29 20t35 11v32h-110v-43h-40v20h-110v-20h-55v-32q5 -2 16 -8.5t22.5 -13.5t21.5 -13.5t13 -9.5l-71 28
q1 -5 1.5 -9.5t0.5 -9.5q0 -13 -4 -28h45q-2 -26 -17 -59t-45 -76q-11 16 -27 40t-33 52t-34.5 57.5t-31.5 56.5q62 34 99 71v183q-40 28 -100 28q-61 0 -104 -29v-231h-49q9 -24 21 -48q-34 -17 -61 -36.5t-49 -41.5v-261h263v-17q27 16 52 39q42 -48 101 -67v-80
q32 2 61.5 15.5t50.5 36.5v35h345zM160 336q7 -17 18 -36h80v-131q30 -44 52 -72q-16 -17 -39.5 -27t-49.5 -10q-29 0 -55 12.5t-46 34t-32 49.5t-12 60q0 36 23.5 69.5t60.5 50.5zM254 445q-35 79 -35 124q0 32 16.5 50t45.5 18t48 -20.5t19 -52.5q0 -64 -94 -119z" />
    <glyph glyph-name="quotesingle" unicode="'" horiz-adv-x="278" 
d="M147 404l4 14v265q-8 2 -13 2q-26 0 -44.5 -18.5t-18.5 -44.5q0 -12 1.5 -26.5t6.5 -29.5l45 -162h19z" />
    <glyph glyph-name="parenleft" unicode="(" horiz-adv-x="400" 
d="M499 186v24h-335v22q0 26 0.5 52.5t2.5 53.5h43q5 45 15.5 88.5t29.5 81t48 67.5t71 48v31q-50 -11 -94 -39t-80 -68t-62.5 -90t-42.5 -105h-47q-14 -62 -14 -121v-21h-133v-24h135q3 -31 9 -59h30q18 -52 46 -97.5t63 -81.5t75.5 -60t84.5 -33v32q-75 29 -114 105
t-51 194h320z" />
    <glyph glyph-name="parenright" unicode=")" horiz-adv-x="400" 
d="M500 1v24h-216q29 46 49 102h30q11 55 11 104q0 57 -14 121h-47q-16 55 -43 105t-62.5 90t-79.5 68t-94 39v-31q42 -18 71 -48t48 -67.5t29.5 -81t15.5 -88.5h43q2 -27 2.5 -53.5t0.5 -52.5v-18h-344v-24h329q-11 -121 -50 -197.5t-115 -105.5v-32q60 12 111 50.5
t93 95.5h232z" />
    <glyph glyph-name="asterisk" unicode="*" horiz-adv-x="500" 
d="M340 577h122v106h-122v-106zM153 577v106h-87v-106h87zM190 452h75v106h-75v-106zM465 321v106h-65v-106h65zM31 328h49v106h-49v-106zM343 321h49v106h-49v-106zM312 452v106h-31v-106h31zM153 328v106h-26v-106h26zM31 577h18v106h-18v-106z" />
    <glyph glyph-name="plus" unicode="+" horiz-adv-x="600" 
d="M704 488v24h-380v88h-90v-204h-131v-90h185v-91h-389v-24h389v-127h90v220h115v129h-169v75h380z" />
    <glyph glyph-name="comma" unicode="," horiz-adv-x="292" 
d="M54 -25h113v-1q0 -44 -29.5 -70.5t-81.5 -29.5v-33q83 4 132 50.5t49 122.5q0 18 -3.5 35t-8.5 31h3v106h-122v-47q-4 -2 -5 -2h-35v-32q-8 -11 -9 -24h-3v-106z" />
    <glyph glyph-name="hyphen" unicode="-" horiz-adv-x="354" 
d="M27 203h301v106h-301v-106z" />
    <glyph glyph-name="period" unicode="." horiz-adv-x="200" 
d="M37 84h122v106h-122v-106z" />
    <glyph glyph-name="slash" unicode="/" horiz-adv-x="401" 
d="M0 1h97l92 354h-96zM280 684l-89 -338h96l89 338h-96z" />
    <glyph glyph-name="zero" unicode="0" horiz-adv-x="549" 
d="M49 773v-770q142 -2 228 -2.5t134 0t65 1.5t21 2v769h-448zM268 417h-96l-49 -187v448h218l-71 -270h96l51 193v-501h-232z" />
    <glyph glyph-name="one" unicode="1" horiz-adv-x="577" 
d="M307 100v678h-244v-100h144v-578h-147v-100h394q22 0 36 12.5t14 37.5v167h-100v-117h-97z" />
    <glyph glyph-name="two" unicode="2" horiz-adv-x="454" 
d="M164 339l113 -1q55 0 83.5 31t28.5 86v205q0 55 -28.5 86t-83.5 31h-190v-100h202v-238h-112q-113 0 -113 -113v-326h292v100h-192v239z" />
    <glyph glyph-name="three" unicode="3" horiz-adv-x="600" 
d="M458 678v-166q0 -39 -13.5 -56.5t-36.5 -17.5h-262v-100h262q23 0 36.5 -16.5t13.5 -55.5v-166h-214v-100h214q43 0 71.5 28.5t28.5 71.5v192q0 32 -8.5 54.5t-30.5 42.5q22 20 30.5 42.5t8.5 54.5v192q0 43 -28.5 71.5t-71.5 28.5h-410v-100h410z" />
    <glyph glyph-name="four" unicode="4" horiz-adv-x="559" 
d="M63 254h294v-204q0 -50 50 -50t50 50v204q22 0 36 12.5t14 37.5t-14 37.5t-36 12.5v287h-100v-291h-194v377h-100v-473z" />
    <glyph glyph-name="five" unicode="5" horiz-adv-x="489" 
d="M236 678h123v100h-223v-439h191v-239h-127q-3 0 -16 6.5t-31 14t-36.5 14t-31.5 6.5q-19 0 -33.5 -15t-14.5 -35q0 -21 12 -32t37 -20l112 -39h118q54 0 82.5 29t28.5 83v214q0 53 -28.5 83t-82.5 30h-80v239z" />
    <glyph glyph-name="six" unicode="6" horiz-adv-x="455" 
d="M166 678h97v101h-154q-24 0 -33.5 -15t-9.5 -36v-665q0 -34 15 -48.5t50 -14.5h210q35 0 50 14.5t15 48.5v224q0 37 -12 52t-48 15h-180v324zM306 254v-154h-140v154h140z" />
    <glyph glyph-name="seven" unicode="7" horiz-adv-x="402" 
d="M256 678v-138q0 -30 -5 -43q-4 -10 -26 -29l-138 -119q-19 -16 -23 -25q-3 -8 -3 -33v-290h100v243q0 27 4 34q5 10 24 26l140 121q19 16 23 26q4 8 4 37v291h-270v-101h170z" />
    <glyph glyph-name="eight" unicode="8" horiz-adv-x="600" 
d="M459 339q18 0 39.5 4t35.5 13v416h-454v-411q14 -11 39.5 -16.5t45.5 -5.5v-339h294v339zM453 678v-239h-288v239h288zM359 339v-239h-94v239h94z" />
    <glyph glyph-name="nine" unicode="9" horiz-adv-x="463" 
d="M310 100h-113v-100h163q22 0 36 14.5t14 35.5v678q0 20 -14.5 35t-35.5 15h-264q-21 0 -35.5 -15t-14.5 -35v-256q0 -20 14.5 -35t35.5 -15h214v-322zM146 522v156h164v-156h-164z" />
    <glyph glyph-name="colon" unicode=":" horiz-adv-x="209" 
d="M37 84h122v106h-122v-106zM45 436h122v106h-122v-106zM73 253h122v106h-122v-106z" />
    <glyph glyph-name="semicolon" unicode=";" horiz-adv-x="209" 
d="M9 -28h113v-1q0 -45 -29.5 -71t-81.5 -29v-33q84 4 132.5 50.5t48.5 122.5v10h-183v-49zM45 436h122v106h-122v-106zM73 253h122v106h-122v-106zM180 77h3v23h-164q-2 -5 -4 -10.5t-3 -11.5h-3v-42h181q-2 11 -4.5 21.5t-5.5 19.5zM183 183h-122v-47q-6 -2 -5 -2h-35v-19
h162v68z" />
    <glyph glyph-name="less" unicode="&#x3c;" horiz-adv-x="667" 
d="M64 357v-65l538 -225v97l-118 48h-184v75l-113 46l345 140v69h70v57l-459 -192v-50h-79z" />
    <glyph glyph-name="equal" unicode="=" horiz-adv-x="667" 
d="M64 262v-90h169v31h182v-44h187v90h-175v44h-211v-31h-152zM63 486v-90h173v8h177v-29h187v90h-163v29h-221v-8h-153z" />
    <glyph glyph-name="greater" unicode="&#x3e;" horiz-adv-x="667" 
d="M448 392v46l-384 161v-48h56v-72l360 -146l-170 -69v-55h-135l-111 -45v-97l384 160v43h101l53 22v82l-30 12v-48h-18v56l-76 32v-34h-30z" />
    <glyph glyph-name="question" unicode="?" horiz-adv-x="401" 
d="M31 617v-54h49q2 -9 4 -12h224v-46q4 -3 7.5 -5.5t6.5 -5.5q9 -9 12.5 -19t3.5 -21q0 -16 -4 -25.5t-12 -17.5q-4 -4 -10 -8h-94v-37q-10 -3 -14 -7q-5 -5 -7.5 -15.5t-2.5 -38.5v-106h31l6 48q2 20 19 29.5t40 20.5h50v28q4 3 11 10q9 9 17 23v187q-7 16 -15.5 28.5
t-17.5 21.5q-3 2 -5 5h-250v-14q-9 1 -12 6q-7 7 -9 13.5t-2 11.5h-26zM117 47h122v106h-122v-106z" />
    <glyph glyph-name="at" unicode="@" horiz-adv-x="930" 
d="M115 176q4 -26 12 -55h45q-5 19 -9 42q-3 18 -5 36.5t-3 36.5h-48q2 -15 3.5 -30t4.5 -30zM609 384h-73l15 -85h48zM166 354h-50q-9 -41 -9 -85h48q1 22 3.5 43t7.5 42zM487 438q15 0 28 -7t24 -18h6l-5 27q-27 21 -63 21q-49 0 -103 -48h58q25 25 55 25zM343 201l-12 66
h-38l20 -115h27v11q0 17 3 38zM554 236q-4 -22 -12.5 -42.5t-21.5 -41.5h70l-20 115h-12zM333 366l12 -66h22q5 14 11 28t14 28q5 8 9 15l8 14h-61q-5 -5 -8 -9.5t-7 -9.5zM849 267h-31q-3 -64 -25 -115h35q20 53 21 115zM254 -99l-12 68q-16 22 -29 45h-43q18 -32 38 -59.5
t46 -53.5zM846 33q1 4 6 9h-43q-23 -30 -52 -56l5 -36q49 33 84 83zM245 512l7 -47q18 19 37.5 35t41.5 28l-6 34q-22 -11 -42.5 -23t-37.5 -27zM548 72l1 -6h56l-10 61h-51q0 -18 1 -30t3 -25zM652 628l6 -34q20 -14 38.5 -30t35.5 -36h34q-46 59 -114 100zM645 -72l5 -31
q25 7 47.5 17t45.5 23l-6 35q-22 -14 -44.5 -25t-47.5 -19zM284 -15l6 -38q45 -26 96 -42l-5 32q-27 9 -50.5 21.5t-46.5 26.5zM898 153h-32q-8 -23 -17.5 -43.5t-20.5 -39.5h41q10 20 17 39.5t12 43.5zM661 40q-12 0 -20 5h-9l7 -40q52 0 96 25l-3 15h-41q-15 -5 -30 -5z
M400 -69l7 -32q44 -11 98 -16l-5 30q-53 4 -100 18zM798 413h30q-19 52 -49 96h-32q33 -44 51 -96zM343 569l5 -31q45 22 95 29l-5 27q-53 -6 -95 -25zM582 590l5 -27q57 -12 106 -40l-5 31q-25 12 -51.5 21.5t-54.5 14.5zM497 598q-11 0 -21 -0.5t-21 -1.5l5 -27q21 3 44 3
q15 0 29.5 -1t29.5 -3l-5 26q-15 2 -30 3t-31 1zM179 96h-44q5 -16 11 -31.5t13 -29.5h43q-7 14 -12.5 29.5t-10.5 31.5zM620 158l12 109h-39l20 -115h6q1 1 1 6zM169 485l13 -78q6 15 13 30t15 29l-10 60q-9 -10 -16 -20t-15 -21zM844 350l-8 35h-29l6 -27q5 -30 6 -58h31
q-1 24 -6 50zM785 73q10 12 18.5 25.5t14.5 28.5h-37q-2 -5 -4.5 -9t-6.5 -8q-7 -13 -23 -28l3 -16h29zM498 118q-35 -45 -69 -52h58q11 13 21.5 26.5t23.5 34.5h-28zM155 463q-10 -19 -18 -39t-14 -42h47zM362 91q-14 13 -18 36h-26l10 -61h38zM264 -61l10 -58
q11 -10 22 -19.5t23 -18.5l-8 47q-13 11 -24.5 23.5t-22.5 25.5zM466 45h-77l7 -38q35 6 70 38zM616 6l-7 39h-52q17 -35 59 -39zM627 -108l-5 30q-13 -2 -24.5 -4t-22.5 -4l5 -29zM376 5h1l-7 40h-38l5 -30q16 -10 39 -10zM532 -118h13q8 0 21 2l-5 29q-5 -1 -40 -1l5 -30
h6zM318 343q-6 -11 -12 -21.5t-11 -21.5h31zM903 182h-28q-2 -7 -3 -8h29q1 1 1 4t1 4zM356 267h-6l3 -14q1 3 2 6.5t1 7.5zM384 71l1 -5h10q-7 2 -11 5zM525 310v-11h3zM757 45h-3v-2q1 0 3 2z" />
    <glyph glyph-name="A" unicode="A" horiz-adv-x="946" 
d="M668 309l-161 288h-64v-30h-494v-23h382l-197 -402q-17 -25 -30.5 -46.5t-27 -37t-27.5 -24.5t-32 -9v-25h157v18q-21 0 -29 4t-8 12t5 17.5t9 21.5l61 118h310q16 -36 26 -60.5t15 -40t7 -24t2 -13.5q0 -18 -14 -26t-58 -9v-18h499v24q-12 1 -37 2t-56 2t-64 3t-61.5 5
t-48.5 8t-25 12l-124 253h85zM504 221h-274l130 275z" />
    <glyph glyph-name="B" unicode="B" horiz-adv-x="950" 
d="M361 679v58h-408v-24h272q24 0 37.5 -10t23.5 -24h-51v-29q32 0 47 -0.5t22 -2.5v-113h-19v-191h45v-153h-53v-112h24v-54h-352v-24h352v-38h43v38h180q84 0 135 31.5t74 76.5v77h266v24h-266v75q-5 6 -14.5 16t-21.5 21t-25 21t-23 15q11 2 31.5 12.5t37.5 21.5v288
h-357zM464 329h85q38 0 65.5 -17t46 -43t29.5 -59t16 -64h-95q-4 -31 -16.5 -48t-32 -25.5t-46.5 -10.5t-60 -2q-12 0 -27 1t-28.5 3.5t-22.5 5.5t-9 7v219h95v33zM337 385v239h210q72 0 103.5 -39.5t33.5 -108.5h-84q-15 -45 -54 -68t-97 -23h-112z" />
    <glyph glyph-name="C" unicode="C" horiz-adv-x="1000" 
d="M779 0h278v23h-278v18h-43v33h-48v-2q-35 -21 -75.5 -32t-82.5 -11t-78.5 12t-63.5 36t-43 61t-16 87h-84v284h84q7 25 26 44.5t46 33.5t59.5 21.5t66.5 7.5q51 0 97.5 -17.5t75.5 -55.5h54l37 134l-33 23q-2 -5 -5 -12t-9 -14t-14.5 -11.5t-20.5 -4.5q-30 0 -57 6
t-54 13.5t-54.5 14t-57.5 6.5q-44 0 -99 -14.5t-109.5 -37t-101.5 -50.5t-74 -55v-28h22v-154h31v-148h-205v-23h240v-100q60 -54 143.5 -80.5t180.5 -26.5q45 0 90.5 6t88.5 17v-42z" />
    <glyph glyph-name="D" unicode="D" horiz-adv-x="1152" 
d="M1200 191v24h-249v65h-67v149h42v199q-49 42 -118 68.5t-166 26.5v-50h-329v-34h-360v-25h305q28 0 46.5 -4.5t29.5 -16.5t15.5 -32t4.5 -50v-153h-41v-230q0 -30 -4.5 -50t-15.5 -32t-29.5 -17t-46.5 -5h-31v-24h416q46 0 96 4.5t97.5 16t88 30t67.5 46.5v94h249z
M451 607q61 14 119 14q66 0 119 -20t90.5 -57.5t57.5 -90.5t20 -119q0 -56 -15 -107t-48 -90t-84 -62t-123 -23q-18 0 -38 1.5t-38.5 4t-34.5 5.5t-25 7v537z" />
    <glyph glyph-name="E" unicode="E" horiz-adv-x="997" 
d="M-57 -1h399v14h136v-36h261v52h312v23h-312v1h-300q-19 0 -30 2.5t-17 9.5t-8 19.5t-2 33.5v182h133v-29h157v110h-22q0 -20 -2 -31.5t-6.5 -17.5t-12.5 -7.5t-20 -1.5h-71v31h-156v281h140v-32h67q22 0 40 -4t33 -15t27.5 -31t23.5 -52h21v156h-123v50h-661v-23h214v-1
q30 0 50 -7t31.5 -21.5t16 -37.5t4.5 -56v-435q0 -32 -4.5 -52.5t-16.5 -32t-31.5 -15.5t-49.5 -4h-221v-23z" />
    <glyph glyph-name="F" unicode="F" horiz-adv-x="897" 
d="M634 326v24h-196v265h113q27 0 48.5 -3.5t38 -15.5t29 -33.5t21.5 -57.5h26v149q14 -10 21.5 -29t7.5 -51h24v144h-91v-48h-732v-24h120q15 0 24.5 -8t14.5 -18.5t7 -21.5t2 -18h231v-371h-394v-24h394v-101q-3 -20 -9.5 -31.5t-18 -17.5t-28.5 -7.5t-40 -1.5h-27v-26
h141v-188h221v31h-64q-48 0 -69 15.5t-25 58.5v262h46v137h84v-34h74q2 -6 2.5 -22.5t0.5 -39.5h33v42h1q47 0 65 -19t18 -72h22v155h-136z" />
    <glyph glyph-name="G" unicode="G" horiz-adv-x="1000" 
d="M772 288h327v24h-481l-1 -24q26 0 45.5 -2.5t32.5 -12t19.5 -29.5t6.5 -55h-33v-117q-68 -41 -132 -41q-33 0 -61.5 11.5t-49.5 35.5t-33 60.5t-12 86.5h-157v118q0 68 20.5 124.5t56 97t83.5 63t104 22.5q57 0 116 -24t104 -81h64v132h308v23h-341q-2 -5 -5 -12t-9 -14
t-14.5 -11.5t-20.5 -4.5q-24 0 -51 6t-55.5 13.5t-57.5 14t-59 6.5q-44 0 -99 -14.5t-109.5 -37t-101.5 -50.5t-74 -55v-28h109v-154h-56v-148h-205v-23h240v-100q60 -54 143.5 -80.5t180.5 -26.5q57 0 114 10t108 26v143h36v128z" />
    <glyph glyph-name="H" unicode="H" horiz-adv-x="1000" 
d="M739 211v467h-70v-303h-331v254q0 30 4.5 50t15.5 31.5t30 16.5t48 5h22v22h-512v-23h222q39 -5 57 -28.5t18 -65.5v-25h-141v-23h34q42 0 63.5 -20t21.5 -74v-118h22v-223q0 -30 -4.5 -50t-15.5 -32t-29.5 -17t-46.5 -5h-19v-24h309v24h-1q-29 0 -48 5t-30 17t-15.5 32
t-4.5 50v161h331v-282q0 -30 -4.5 -50t-16 -32t-30 -17t-46.5 -5h-23l1 -20h190v276h322v26h-323z" />
    <glyph glyph-name="I" unicode="I" horiz-adv-x="500" 
d="M457 0v23h-21q-28 0 -52.5 2t-43 10.5t-29.5 26t-11 47.5v463q0 30 4.5 50t15.5 32t29 17t46 5h12v16h144v24h-254v-19h-243v-20h26q29 0 47.5 -5t29.5 -16.5t15 -31.5t4 -50v-447q0 -24 -5 -40t-14.5 -25.5t-23.5 -14.5t-33 -8v-15h-148v-24h505z" />
    <glyph glyph-name="J" unicode="J" horiz-adv-x="600" 
d="M291 124q0 -36 -10.5 -54t-30.5 -26q-7 11 -11.5 25t-10.5 28h-100v-76h-206v-21h421v32q39 27 60.5 72.5t21.5 99.5v302q0 59 19.5 81.5t71.5 22.5v32h-64q11 11 29 15t44 4h12v16h161v23h-271v-18h-187v-21h26q27 0 45 -4t29 -15h-135v-32h18q48 0 66.5 -23.5
t18.5 -80.5v-144h-17v-238z" />
    <glyph glyph-name="K" unicode="K" horiz-adv-x="1100" 
d="M1158 -1v27h-288q-38 4 -83 18.5t-92 53.5l-262 260q102 105 172.5 173t116.5 108t71 56.5t35 17.5v32h-221v-4h-659v-24h659v-16q36 0 52 -2t16 -10q0 -9 -19 -25h-121l-1 -20q34 0 54.5 -6.5t20.5 -16.5q0 -6 -5 -10l-271 -266v217q0 38 8.5 55t40.5 17h15v32h-134
v-104h-120v-2h-194v-25h194q43 0 58.5 -23.5t15.5 -87.5v-31h-37v-264q0 -30 -4.5 -50t-15.5 -32t-29.5 -17t-46.5 -5h-16v-25h188l3 2q0 -31 -3 -51.5t-10 -33t-19.5 -17.5t-30.5 -5h-10v-32h257v32q-23 0 -37 5t-22.5 17.5t-11.5 33t-3 51.5v112h-99v45h63v169
q61 -57 103.5 -97t70.5 -67t44.5 -43t24.5 -24.5t11 -11.5l5 -5l19 -30q0 -14 -14 -19.5t-55 -5.5v-25h108q4 -7 4 -15q0 -14 -9 -20t-36 -6v-32h246v32q-17 2 -33.5 11t-36.5 29h373z" />
    <glyph glyph-name="L" unicode="L" horiz-adv-x="901" 
d="M1002 0v24h-220l46 98h-33q-15 -24 -30 -37.5t-31.5 -20t-34.5 -8.5t-39 -2l35 110h-33q-7 -14 -14.5 -30t-14.5 -31.5t-13 -28.5t-10 -20h-128q-21 0 -33.5 2t-18.5 9t-8 21t-2 37v228h-57v356h-193v-23h17q30 0 48.5 -6.5t29 -20t14 -34.5t3.5 -49h-385v-25h172
q36 0 70 -2t61 -9t43 -21.5t16 -38.5v-358q0 -23 -3 -39q-11 -9 -28 -22.5t-41 -13.5h-23v-21h-264v-24h334q-11 -9 -28 -12.5t-42 -3.5h-23v-26h484l16 42h361z" />
    <glyph glyph-name="M" unicode="M" horiz-adv-x="1051" 
d="M2 -131v-17h212v329h26v380h2l285 -562l266 572h2v-435q0 -61 -19.5 -90t-75.5 -29h-20v-17h195v543h224v24h-224v106h-92l-224 -458l-246 458h-71v69h-258v-22h16q50 0 87 -8t51 -39h-107v-26h16q30 0 49 -5t29.5 -17t14.5 -31t4 -46v-559q0 -27 -12.5 -49t-33 -37.5
t-46 -24.5t-50.5 -9z" />
    <glyph glyph-name="N" unicode="N" 
d="M-54 0h467v27h-30q-28 0 -46.5 5t-29.5 17t-15.5 32t-4.5 50v390l147 -147h-64l381 -380v194h346v23h-369v84h-25v-100l-139 141h77l-312 311h-202v-25q17 0 36.5 -2t36 -6.5t27 -11t10.5 -16.5v-447q0 -51 -20 -68.5t-65 -17.5h-38v-30h-168v-23zM751 583q0 28 4.5 44
t14.5 23t26 8.5t40 1.5h260v24h-426v-208h32v-140h49v247z" />
    <glyph glyph-name="O" unicode="O" horiz-adv-x="1000" 
d="M-43 290h233v-158q48 -66 124 -106.5t169 -43.5v44q87 8 157.5 51t115.5 110h295v23h-288v345q-47 74 -126 119.5t-176 51.5v-43q-87 -8 -156.5 -47.5t-114.5 -102.5v-220h-233v-23zM280 333q0 68 13 116.5t37.5 80.5t60.5 48.5t83 21.5v76q44 -6 87 -29.5t76.5 -62
t54.5 -91.5t21 -118q0 -69 -21.5 -123t-57 -93t-81 -61t-92.5 -26v-41q-88 14 -134.5 91.5t-46.5 210.5z" />
    <glyph glyph-name="P" unicode="P" horiz-adv-x="749" 
d="M842 683v24h-709v-24h1v-474h-235v-24h235v-54h-26v-191h120v21q-26 0 -38 1t-16.5 4.5t-5.5 11.5t-5 22h135v20q-31 0 -51.5 4t-33 15t-17.5 31.5t-5 53.5v211q28 -17 63 -26.5t72 -9.5q38 0 72 9.5t62 26.5v295q0 8 -15.5 16.5t-36 16t-41.5 13t-32 7.5h507zM166 621
q7 3 23.5 5t35.5 3.5t35.5 2.5t24.5 1q64 0 102 -36t38 -97q0 -30 -9.5 -55t-27 -44t-41 -29.5t-50.5 -10.5q-9 0 -27 1t-38 3t-38 5.5t-28 8.5v242z" />
    <glyph glyph-name="Q" unicode="Q" horiz-adv-x="800" 
d="M903 186v24h-249v383q0 21 -27.5 41t-67 35t-83.5 24t-78 9l-1 28q-38 0 -78 -8t-77.5 -22t-70.5 -34t-57 -44v-480q62 -62 154 -91q5 -15 16 -27h-384v-24h402q21 -24 44.5 -45t46.5 -38v-84q10 -9 42 -17.5t74 -14.5t89 -9.5t88 -3.5h55v20q-93 2 -154.5 46t-89.5 138
q46 12 85.5 32.5t71.5 48.5v113h249zM167 378q0 70 16.5 125.5t46.5 94t71.5 60t91.5 24.5v-46q50 0 80.5 -22.5t47.5 -63t22.5 -97t5.5 -125.5q0 -139 -37.5 -217.5t-117.5 -80.5v52q-47 0 -88.5 20t-72 57.5t-48.5 92.5t-18 126z" />
    <glyph glyph-name="R" unicode="R" horiz-adv-x="800" 
d="M-51 189h258v-189h164v21q-35 0 -56.5 2t-34.5 11t-17.5 27t-4.5 50v189h66l253 -300h274v24h-85q-42 3 -67 13.5t-45 34.5l-201 245q13 0 29 2t32.5 5.5t31.5 9t25 12.5v276q-14 12 -28 19.5t-45 7.5h-291v-437h-258v-23zM258 352v248q7 3 20 5.5t28.5 4t31.5 2.5t29 1
q72 0 112.5 -31.5t40.5 -91.5q0 -28 -9.5 -53t-29 -44t-48.5 -30t-68 -11h-107z" />
    <glyph glyph-name="S" unicode="S" horiz-adv-x="901" 
d="M1001 579v24h-303v117h-33q-10 -34 -37 -34q-15 0 -30 5.5t-34 11.5t-43.5 11.5t-58.5 5.5h-577v-26h445q-3 -3 -5.5 -6.5t-5.5 -7.5v-301q27 -23 67 -45.5t80.5 -43.5t76 -40.5t53.5 -36.5q23 -23 29.5 -43t6.5 -38q0 -20 -13.5 -32.5t-34 -19.5t-45 -9.5t-46.5 -2.5
q-35 0 -68.5 14.5t-63 40.5t-54 61.5t-40.5 77.5h-32v-46h-336v-26h300v-238h32q0 5 3 10v39h401q19 18 36 36.5t29.5 39.5t19.5 46t7 56q0 44 -20.5 80t-53.5 65.5t-73.5 54.5t-79.5 46t-73 40t-53 37q-5 4 -8 15.5t-4.5 25t-2 27t-0.5 21.5q0 21 7 34q24 12 56 12
t62.5 -12t57.5 -34.5t50 -54t39 -70.5h33v113h337z" />
    <glyph glyph-name="T" unicode="T" horiz-adv-x="703" 
d="M-49 1h312q-11 -17 -31 -20.5t-45 -3.5h-25v-20h180v61h190v22h-20q-29 0 -47.5 6t-29.5 19t-15 34.5t-4 51.5v38h346v23h-346v433h112q32 0 52.5 -4t32.5 -15.5t17.5 -30.5t8.5 -49h20v135h-357v-38h-267v-152h19q0 29 3.5 51t14.5 36.5t31 22t53 7.5h124v-492
q0 -28 -0.5 -45t-1 -26.5t-1 -14t-1.5 -7.5h-325v-22z" />
    <glyph glyph-name="U" unicode="U" horiz-adv-x="951" 
d="M1002 190v24h-286q8 32 11 67.5t3 73.5v318q5 40 26 54.5t69 14.5h15v25h-229v-26h19q26 0 37 -9.5t11 -26.5v-32h-95v-32h27q34 0 43.5 -20t9.5 -73v-223q0 -36 -0.5 -56.5t-1 -31t-1 -14.5t-0.5 -7q-8 -21 -20 -45.5t-28.5 -45t-38 -34.5t-48.5 -14l-1 -28
q-7 -2 -24.5 -2.5t-63.5 -0.5q-80 0 -127 46t-47 147v426h-359v-25h180q34 -6 48.5 -27t14.5 -63v-325q0 -121 66 -182.5t195 -61.5q122 0 196 57t104 152h295z" />
    <glyph glyph-name="V" unicode="V" horiz-adv-x="849" 
d="M957 626v24h-252v23h-144v-32q35 0 50.5 -11t15.5 -37q0 -6 -2 -15.5t-10 -32.5t-23.5 -65t-42.5 -113h32l-30 -67h-34l-50 -123l-160 323h-41l-46 100h38l-59 119h-138v-22q13 0 22.5 -2.5t18.5 -10.5t18 -22t22 -37l26 -47h-53v-32q16 0 28.5 -4t23.5 -15t23 -31
t28 -53l112 -231h-390v-24h401l101 -207l109 267l18 1l126 279q13 28 22 46.5t17.5 29t17.5 15.5t21 7h184z" />
    <glyph glyph-name="W" unicode="W" horiz-adv-x="1200" 
d="M242 727h-151v-32q19 -1 31 -5t22.5 -17t23 -38.5t31.5 -70.5l150 -352h-407v-24h417l88 -207l146 370l117 -271h19l8 21l53 -120l229 594h-63v-2l-139 -374l-38 86l99 256q9 24 15.5 39t12 24t11.5 14t14 8h324v24h-452v-21q29 0 41 -6t12 -24q0 -5 -2 -12.5t-11.5 -33
t-29 -77t-54.5 -144.5l-111 268h-130q5 -8 10.5 -17.5t10.5 -21.5h-78v-22q16 0 27 -3t20 -10.5t17 -22t18 -36.5l22 -51l-75 -187l-85 205h-29z" />
    <glyph glyph-name="X" unicode="X" horiz-adv-x="951" 
d="M-56 690h171q36 -8 80.5 -34.5t87.5 -83.5l152 -180h-86l46 -48l-135 -218q-24 -31 -43 -53t-36.5 -37t-36 -23t-42.5 -11v-24h262v24q-17 0 -35.5 2t-33.5 6.5t-24.5 11.5t-9.5 18q0 14 16 42t48 66l96 151l176 -192q24 -33 31.5 -47.5t7.5 -24.5q0 -18 -14 -26t-49 -8
v-23h309v23q-25 1 -59.5 25t-66.5 69l-248 296l55 2l-176 203q-20 23 -27 39.5t-7 25.5q0 32 65 34v21h-474v-26zM640 398q39 49 70 101t59 94.5t54.5 70.5t57.5 30l1 24h-223l-1 -22q43 1 63.5 -7t26 -21.5t-1 -31t-17.5 -36.5t-23.5 -37.5t-19.5 -33.5l-85 -131h39z" />
    <glyph glyph-name="Y" unicode="Y" horiz-adv-x="903" 
d="M954 0v23h-402q-27 0 -45 4t-29.5 14.5t-17 27.5t-5.5 43h25v186h-48l68 90v75l-73 -71q-54 77 -84.5 121.5t-45 67.5t-18 31t-3.5 13q0 8 6.5 13.5t17.5 8.5t25 4.5t29 1.5v24h-503v-24h222q13 -1 23.5 -6t21.5 -15t24.5 -26t32.5 -39l159 -229h42v-167h-16v-281h141v23
h-23q-53 0 -74.5 18.5t-22.5 68.5h573zM950 685v23h-403v-25q50 0 82.5 -3.5t32.5 -22.5l-135 -167h2v-67l141 169q19 23 36 40.5t34 29t35 17.5t40 6h135z" />
    <glyph glyph-name="Z" unicode="Z" horiz-adv-x="999" 
d="M1055 0v24h-351v32h-276l220 288h-53l246 332h-160l40 47h-590v-122h33q0 22 7 36t19.5 22t29 11t36.5 3v-162h33q1 29 7.5 51t22 37t41.5 22.5t65 7.5h265l-227 -290h39l-98 -127h-462v-24h444l-120 -156v-32h789z" />
    <glyph glyph-name="bracketleft" unicode="[" horiz-adv-x="402" 
d="M454 1v24h-186v36h-17v100h17v139h-54v88h13v247q5 4 14 5t23 1h59v32h-96q2 23 12 29.5t38 6.5h59v32h-185v-68h-58v-63h14v-95h-14v-224h54v-267h-196v-24h196v-134h41v-69h189v32h-68q-23 0 -32 12t-9 37v123h186z" />
    <glyph glyph-name="backslash" unicode="\" horiz-adv-x="401" 
d="M0 685l93 -354h96l-92 354h-97zM280 2h96l-89 338h-96z" />
    <glyph glyph-name="bracketright" unicode="]" horiz-adv-x="403" 
d="M190 1v-123q0 -27 -9 -38t-32 -11h-68v-32h189v69h41v523h54v284h-58v68h-185v-32h59q28 0 38 -6.5t12 -29.5h-77v10h-206v-24h187v-18h59q14 0 23 -1t14 -5v-247h37v-130h-78v-97h31v-100h-31v-36h-241v-24h241z" />
    <glyph glyph-name="asciicircum" unicode="^" horiz-adv-x="581" 
d="M344 357h79l-139 247v69h-14l-13 -22l-31 56h-12v-119l4 -7l-146 -258h81l105 186z" />
    <glyph glyph-name="underscore" unicode="_" horiz-adv-x="1000" 
d="M174 -125h110v50h-110v-50zM643 -91h110v50h-110v-50zM506 -125v34h1v50h-44v-34h-15v-50h58zM354 -125h73v50h-73v-50zM823 -91h73v50h-73v-50zM975 -91v50h-58v-50h58zM584 -91h44v50h-44v-50zM-6 -75v-50h44v50h-44zM115 -125h44v50h-44v-50zM525 -91h44v50h-44v-50z
M56 -125h44v50h-44v-50zM300 -125h35v50h-35v-50zM769 -91h35v50h-35v-50z" />
    <glyph glyph-name="grave" unicode="`" horiz-adv-x="333" 
d="M252 544l-27 87h-28l-24 83h-125l63 -90h38l67 -80h36z" />
    <glyph glyph-name="a" unicode="a" 
d="M905 185v24h-497v-24h497zM621 636v23h-696v-23h696zM651 -1l454 1v23h-454v-24zM508 505h602v24h-602v-24zM431 341v24h-497v-24h497z" />
    <glyph glyph-name="b" unicode="b" 
d="M899 395v24h-497v-24h497zM621 636v23h-696v-23h696zM651 288l454 1v23h-454v-24zM501 563h602v24h-602v-24zM420 188v24h-497v-24h497z" />
    <glyph glyph-name="c" unicode="c" 
d="M894 107v24h-497v-24h497zM616 348v23h-696v-23h696zM646 0l454 1v23h-454v-24zM496 274h602v24h-602v-24zM414 191v24h-497v-24h497z" />
    <glyph glyph-name="d" unicode="d" 
d="M905 473v-24h-497v24h497zM621 22v-23h-696v23h696zM651 659l454 -1v-23h-454v24zM508 153h602v-24h-602v24zM431 317v-24h-497v24h497z" />
    <glyph glyph-name="e" unicode="e" 
d="M129 473v-24h497v24h-497zM413 22v-23h696v23h-696zM383 659l-454 -1v-23h454v24zM526 153h-602v-24h602v24zM603 317v-24h497v24h-497z" />
    <glyph glyph-name="f" unicode="f" 
d="M129 185v24h497v-24h-497zM413 636v23h696v-23h-696zM383 -1l-454 1v23h454v-24zM526 505h-602v24h602v-24zM603 341v24h497v-24h-497z" />
    <glyph glyph-name="g" unicode="g" 
d="M122 263v-24h497v24h-497zM400 22v-23h696v23h-696zM370 370l-454 -1v-23h454v24zM520 96h-602v-24h602v24zM602 179v-24h497v24h-497z" />
    <glyph glyph-name="h" unicode="h" 
d="M129 395v24h497v-24h-497zM407 636v23h696v-23h-696zM377 288l-454 1v23h454v-24zM527 561h-602v24h602v-24zM608 495v24h497v-24h-497z" />
    <glyph glyph-name="i" unicode="i" 
d="M-55 482v-24h497v24h-497zM-54 23v-23h696v23h-696zM1096 670l-454 -1v-23h454v24zM1044 150h-602v-24h602v24zM290 325v-24h497v24h-497z" />
    <glyph glyph-name="j" unicode="j" 
d="M1100 212v-24h-497v24h497zM621 22v-23h-696v23h696zM649 580l454 -1v-23h-454v24zM-78 209h602v-24h-602v24zM641 406v-24h-497v24h497z" />
    <glyph glyph-name="k" unicode="k" 
d="M-76 366v24h497v-24h-497zM403 556v23h696v-23h-696zM375 -2l-454 1v23h454v-24zM1102 369h-602v24h602v-24zM383 172v24h497v-24h-497z" />
    <glyph glyph-name="l" unicode="l" 
d="M-76 210v-24h497v24h-497zM403 20v-23h696v23h-696zM375 578l-454 -1v-23h454v24zM1102 207h-602v-24h602v24zM383 404v-24h497v24h-497z" />
    <glyph glyph-name="m" unicode="m" 
d="M1098 366v24h-497v-24h497zM619 556v23h-696v-23h696zM647 -2l454 1v23h-454v-24zM-80 369h602v24h-602v-24zM639 172v24h-497v-24h497z" />
    <glyph glyph-name="n" unicode="n" horiz-adv-x="800" 
d="M762 23h-725v-23h725v23zM88 207v-24h602v24h-602zM630 354h-476v-24h476v24zM593 507h-406v-24h406v24zM234 655v-24h322v23z" />
    <glyph glyph-name="o" unicode="o" horiz-adv-x="800" 
d="M762 631v23h-725v-23h725zM88 447h602v24h-602v-24zM630 300v24h-476v-24h476zM593 147v24h-406v-24h406zM234 -1l322 1v23h-322v-24z" />
    <glyph glyph-name="p" unicode="p" horiz-adv-x="800" 
d="M445 151v24h-406v-24h406zM762 630v23h-725v-23h725zM39 1l322 1v23h-322v-24zM39 444h602v24h-602v-24zM515 295v24h-476v-24h476z" />
    <glyph glyph-name="q" unicode="q" horiz-adv-x="800" 
d="M445 503v-24h-406v24h406zM762 24v-23h-725v23h725zM39 653l322 -1v-23h-322v24zM39 210h602v-24h-602v24zM515 359v-24h-476v24h476z" />
    <glyph glyph-name="r" unicode="r" horiz-adv-x="800" 
d="M353 503v-24h406v24h-406zM36 24v-23h725v23h-725zM759 653l-322 -1v-23h322v24zM759 210h-602v-24h602v24zM283 359v-24h476v24h-476z" />
    <glyph glyph-name="s" unicode="s" horiz-adv-x="800" 
d="M353 151v24h406v-24h-406zM36 630v23h725v-23h-725zM759 1l-322 1v23h322v-24zM759 444h-602v24h602v-24zM283 295v24h476v-24h-476z" />
    <glyph glyph-name="t" unicode="t" horiz-adv-x="803" 
d="M171 115v-23h696v23h-696zM506 208h-602v-24h602v24zM-84 413v-24h497v24h-497zM368 316v-24h497v24h-497zM860 543h-454v-24h454v24z" />
    <glyph glyph-name="u" unicode="u" horiz-adv-x="803" 
d="M599 115h-696v-23h696v23zM264 208v-24h602v24h-602zM854 413h-497v-24h497v24zM402 316h-497v-24h497v24zM-90 543v-24h454v24h-454z" />
    <glyph glyph-name="v" unicode="v" horiz-adv-x="803" 
d="M599 519v23h-696v-23h696zM264 426h602v24h-602v-24zM854 221v24h-497v-24h497zM402 318v24h-497v-24h497zM-90 91h454v24h-454v-24z" />
    <glyph glyph-name="w" unicode="w" horiz-adv-x="803" 
d="M171 519h696v23h-696v-23zM506 426v24h-602v-24h602zM-84 221h497v24h-497v-24zM368 318h497v24h-497v-24zM860 91v24h-454v-24h454z" />
    <glyph glyph-name="x" unicode="x" 
d="M997 191v24h-497v-24h497zM1096 647v23h-696v-23h696zM-54 0l454 1v23h-454v-24zM494 491h602v24h-602v-24zM706 339v24h-497v-24h497z" />
    <glyph glyph-name="y" unicode="y" 
d="M997 479v-24h-497v24h497zM1096 23v-23h-696v23h696zM-54 670l454 -1v-23h-454v24zM494 179h602v-24h-602v24zM706 331v-24h-497v24h497z" />
    <glyph glyph-name="z" unicode="z" horiz-adv-x="203" 
d="M39 479h123v24h-123v-24zM39 210v-24h123v24h-123zM39 653v-24h123v24h-123zM39 335h123v24h-123v-24zM37 1h125v23h-125v-23z" />
    <glyph glyph-name="braceleft" unicode="{" horiz-adv-x="402" 
d="M454 1v24h-186v36h-17v60h17v116h-137v151h96v247q5 4 14 5t23 1h59v32h-96q2 23 12 29.5t38 6.5h59v32h-185v-68h-58v-63h14v-53q-23 -46 -39 -97h-47q-3 -11 -8.5 -25t-10 -30t-8 -32t-3.5 -31q0 -46 9 -71t18 -36h30q34 -98 99 -169v-42h-196v-24h196v-134h41v-69h189
v32h-68q-23 0 -32 12t-9 37v123h186z" />
    <glyph glyph-name="bar" unicode="|" horiz-adv-x="198" 
d="M145 -213v558h29v345h-91v-330h-15v116h-35v-345h21v-344h91z" />
    <glyph glyph-name="braceright" unicode="}" horiz-adv-x="451" 
d="M136 -122q-1 -30 -9.5 -39.5t-31.5 -9.5h-68v-32h189v69h41v134h245v24h-245v42q65 71 99 169h30q1 7 5.5 15.5t9 20t8.5 28t4 40.5q0 30 -11.5 60.5t-18.5 60.5h-47q-16 51 -39 97v53h14v63h-58v68h-185v-32h59q28 0 38 -6.5t12 -29.5h-68v11h-154v-24h126v-19h59
q14 0 23 -1t14 -5v-247h96v-151h-137v-116h17v-60h-17v-183z" />
    <glyph glyph-name="asciitilde" unicode="~" horiz-adv-x="667" 
d="M498 500q-4 -42 -24 -65.5t-55 -23.5q-15 0 -35.5 6t-42 15t-44 19t-42.5 18v-89h-144q-20 -21 -32.5 -54.5t-12.5 -82.5h33q7 45 26 66t54 21q24 0 55.5 -11.5t65.5 -26.5v65h180q27 26 39 60.5t12 82.5h-33z" />
    <glyph glyph-name="ellipsis" unicode="&#x2026;" horiz-adv-x="597" 
d="M551 0v106h-122v-106h122zM358 68v106h-122v-106h122zM166 154v106h-122v-106h122z" />
    <glyph glyph-name="bullet" unicode="&#x2022;" horiz-adv-x="300" 
d="M74 168h156v165h-156v-165z" />
    <glyph glyph-name="mu" unicode="&#xb5;" horiz-adv-x="803" 
d="M599 115h-696v-23h696v23zM264 208v-24h602v24h-602zM854 413h-497v-24h497v24zM402 316h-497v-24h497v24zM-90 543v-24h454v24h-454z" />
    <glyph glyph-name="paragraph" unicode="&#xb6;" horiz-adv-x="401" 
d="M338 -28h23v725h-23v-725zM265 691v-602h24v602h-24zM185 216h24v476h-24v-476zM112 283h24v406h-24v-406zM51 688l1 -322h23v322h-24z" />
    <glyph glyph-name="periodcentered" unicode="&#xb7;" horiz-adv-x="200" 
d="M47 274h122v106h-122v-106z" />
    <glyph glyph-name="Agrave" unicode="&#xc0;" horiz-adv-x="946" 
d="M668 309l-161 288h-64v-30h-494v-23h382l-197 -402q-26 -54 -54 -85t-63 -32v-25h157v18q-19 0 -26 6.5t-7 16.5q0 8 2.5 16t6.5 16l62 118h310q16 -36 26 -60.5t15 -40t7 -24t2 -13.5q0 -18 -14 -26t-58 -9v-18h499v24q-18 1 -56 3.5t-82 7t-87.5 11.5t-72.5 19
l-118 244h85zM504 221h-274l130 275z" />
    <glyph glyph-name="Aacute" unicode="&#xc1;" horiz-adv-x="950" 
d="M337 385v239h210q72 0 104.5 -19.5t32.5 -58.5h34v133h-357v58h-408v-24h272q24 0 37.5 -10t23.5 -24h-51v-29q32 0 47 -0.5t22 -2.5v-113h-19v-191h45v-153h-53v-112h24v-54h-352v-24h352v-38h43v38h180q84 0 134.5 31.5t74.5 76.5v77h266v24h-266v75q-18 29 -48.5 48.5
t-68 31t-80.5 16.5t-87 5h-112zM464 329h85q38 0 65.5 -17t46 -43t29.5 -59t16 -64h-95q-4 -31 -16.5 -48t-32 -25.5t-46.5 -10.5t-60 -2q-24 0 -47 1t-40 6v229h95v33z" />
    <glyph glyph-name="Acircumflex" unicode="&#xc2;" horiz-adv-x="950" 
d="M361 679v58h-408v-24h272q24 0 37.5 -10t23.5 -24h-51v-29q32 0 47 -0.5t22 -2.5v-113h-19v-191h45v-153h-53v-112h24v-54h-352v-24h352v-38h43v38h180q84 0 134.5 31.5t74.5 76.5v77h266v24h-266v75q-5 6 -14.5 16t-21.5 21t-25 21t-23 15q11 2 31.5 12.5t37.5 21.5v288
h-357zM464 329h85q38 0 65.5 -17t46 -43t29.5 -59t16 -64h-95q-4 -31 -16.5 -48t-32 -25.5t-46.5 -10.5t-60 -2q-24 0 -47 1t-40 6v229h95v33zM337 385v239h210q72 0 103.5 -39.5t33.5 -108.5h-84q-15 -45 -54 -68t-97 -23h-112z" />
    <glyph glyph-name="Atilde" unicode="&#xc3;" horiz-adv-x="897" 
d="M438 350v265h113q27 0 48.5 -3.5t38 -15.5t29 -33.5t21.5 -57.5h26v149q14 -10 21.5 -29t7.5 -51h24v144h-91v-48h-732v-24h120q15 0 24.5 -8t14.5 -18.5t7 -21.5t2 -18h231v-371h-394v-24h394v-101q-3 -20 -9.5 -31.5t-18 -17.5t-28.5 -7.5t-40 -1.5h-27v-26h141v-188
h221v31h-64q-48 0 -69 15.5t-25 58.5v262l14 1v170z" />
    <glyph glyph-name="Adieresis" unicode="&#xc4;" horiz-adv-x="828" 
d="M743 -136h64v111h78v48h-121q-28 0 -52.5 2t-43 10.5t-29.5 26t-11 47.5v69h-78v237h53v72h25v85q0 30 4.5 50t15.5 32t29 17t46 5h12v16h84v24h-194v-19h-324v19l-116 11v-14q22 0 40 -3.5t31 -12.5h-314v-21h333q3 -8 5 -16t2 -19v-290q0 -65 -10.5 -114.5t-33.5 -88
t-60 -68.5t-90 -56h-142v-49h65l-12 -180h14q5 52 23 86t42 54t50.5 28.5t49.5 11.5h565v-111zM328 411v265h81q29 0 47.5 -4.5t29 -16.5t14.5 -31.5t4 -49.5v-447q0 -24 -5 -40t-14.5 -25.5t-23.5 -14.5t-33 -8v-15h-176q27 31 42 76t22.5 97t9.5 107.5t2 106.5z" />
    <glyph glyph-name="Aring" unicode="&#xc5;" horiz-adv-x="997" 
d="M-57 -1h399v14h136v-36h261v52h312v23h-312v1h-300q-19 0 -30 2.5t-17 9.5t-8 19.5t-2 33.5v182h133v-29h157v110h-22q0 -20 -6.5 -31.5t-20 -17.5t-34.5 -7.5t-51 -1.5v31h-156v281h140v-32h67q22 0 40 -4t33 -15t27.5 -31t23.5 -52h21v156h-123v50h-661v-23h214v-1
q30 0 50 -7t31.5 -21.5t16 -37.5t4.5 -56v-435q0 -32 -4.5 -52.5t-16.5 -32t-31.5 -15.5t-49.5 -4h-221v-23z" />
    <glyph glyph-name="AE" unicode="&#xc6;" horiz-adv-x="1499" 
d="M-9 598v-25h58q38 -4 82.5 -17.5t92.5 -54.5l262 -260q-102 -105 -172.5 -173t-116.5 -108t-71 -56.5t-35 -17.5v-32h221v4h179v24h-179v16q-71 0 -71 13q0 8 22 24h121l1 20q-43 0 -60 6t-17 14q0 6 7 13l264 259v-118q0 -30 -4.5 -50t-15.5 -32t-29.5 -17t-46.5 -5h-16
v-25h188l3 2q0 -31 -3 -51.5t-10 -33t-19.5 -17.5t-30.5 -5h-10v-32h257v32q-23 0 -37 5t-22.5 17.5t-11.5 33t-3 51.5v112h-99v45h63v169q61 -57 103.5 -97t70.5 -67t44.5 -43t24.5 -24.5t11 -11.5l5 -5l19 -30q0 -14 -14 -19.5t-55 -5.5v-25h108q4 -7 4 -15q0 -14 -9 -20
t-36 -6v-32h246v32q-17 2 -33.5 12t-36.5 30h373v25h-288q-38 4 -82.5 17.5t-92.5 54.5l-262 260q102 105 172.5 173t116.5 108t71 56.5t35 17.5v32h-221v-4h-659v-24h659v-16q71 0 71 -13q0 -8 -22 -24h-121l-1 -20q43 0 60 -6t17 -14q0 -6 -7 -13l-271 -266v217
q0 36 9.5 54t39.5 18h15v32h-134v-104h-120v-2h-194v-25h194q43 0 58.5 -23.5t15.5 -87.5v-31h-37v-116q-59 55 -100.5 94.5t-69 65.5t-43 41.5t-23.5 24t-11 11.5l-5 5l-19 30q0 14 14 19.5t55 5.5v25h-108q-4 7 -4 15q0 14 9 20t36 6v32h-246v-32q17 -2 33.5 -12t36.5 -30
h-143z" />
    <glyph glyph-name="Ccedilla" unicode="&#xc7;" horiz-adv-x="950" 
d="M641 476q6 21 6 47q0 23 -7 44.5t-20 40.5q20 0 46 -9t52 -44v124h-206q-32 8 -68 8q-22 0 -39.5 -2t-32.5 -6h-11v58h-408v-24h272q24 0 37.5 -10t23.5 -24h-45v2h-14l21 -24q-8 -6 -16 -20.5t-15 -31.5t-11.5 -31.5t-4.5 -20.5q0 -32 20 -72h14q2 24 13.5 58t40.5 60
q16 14 40 25h135q35 -15 55 -44.5t20 -70.5q0 -36 -12 -68.5t-41 -55.5h-36l11 -15q-21 -10 -46 -14v-13h45v-47h134v25q26 -9 45 -27.5t32.5 -42.5t21.5 -51.5t13 -53.5h-95q-4 -31 -16.5 -48t-32 -25.5t-46.5 -10.5t-60 -2q-8 0 -26.5 6t-41 14.5t-46 18t-41.5 17.5v-92
h-352v-24h352v-38h43v38h180q84 0 135 31.5t74 76.5v77h266v24h-266v75q-5 6 -14.5 16t-21.5 21t-25 21t-23 15q11 2 31.5 12.5t37.5 21.5v85h-77z" />
    <glyph glyph-name="Egrave" unicode="&#xc8;" horiz-adv-x="1000" 
d="M739 451h323v26h-322v276h-190l-1 -20h23q28 0 46.5 -5t30 -17t16 -32t4.5 -50v-70l-331 -212v161q0 30 4.5 50t15.5 32t30 17t48 5h1v24h-309v-24h19q28 0 46.5 -5t29.5 -17t15.5 -32t4.5 -50v-223h-22v-118q0 -54 -21.5 -74t-63.5 -20h-34v-23h141v-25q0 -42 -18 -65.5
t-57 -28.5h-222v-23h512v22h-22q-29 0 -48 5t-30 16.5t-15.5 31.5t-4.5 50v254l331 219v-522h70v467z" />
    <glyph glyph-name="Eacute" unicode="&#xc9;" horiz-adv-x="1000" 
d="M739 451h323v26h-322v276h-190l-1 -20h23q28 0 46.5 -5t30 -17t16 -32t4.5 -50v-70l-331 -212v161q0 30 4.5 50t15.5 32t30 17t48 5h1v24h-309v-24h19q28 0 46.5 -5t29.5 -17t15.5 -32t4.5 -50v-223h-22v-118q0 -54 -21.5 -74t-63.5 -20h-34v-23h141v-25q0 -42 -18 -65.5
t-57 -28.5h-222v-23h512v22h-22q-29 0 -48 5t-30 16.5t-15.5 31.5t-4.5 50v254l331 219v-522h70v467zM653 900q-4 -42 -24 -65.5t-55 -23.5q-15 0 -35.5 5.5t-42.5 14t-44.5 19t-41.5 19.5v-89h-144q-20 -21 -32.5 -54.5t-12.5 -82.5h33q7 45 26 66t54 21q24 0 55.5 -11.5
t65.5 -26.5v65h180q27 26 39 61t12 82h-33z" />
    <glyph glyph-name="Ecircumflex" unicode="&#xca;" horiz-adv-x="1100" 
d="M1158 1v25h-288q-38 4 -82.5 17.5t-92.5 54.5l-262 260q102 105 172.5 173t116.5 108t71 56.5t35 17.5v32h-221v-4h-659v-24h659v-16q71 0 71 -13q0 -8 -22 -24h-121l-1 -20q43 0 60 -6t17 -14q0 -6 -7 -13l-271 -266v217q0 36 9.5 54t39.5 18h15v32h-134v-104h-120v-2
h-194v-25h194q43 0 58.5 -23.5t15.5 -87.5v-31h-37v-264q0 -30 -4.5 -50t-15.5 -32t-29.5 -17t-46.5 -5h-16v-25h188l3 2q0 -31 -3 -51.5t-10 -33t-19.5 -17.5t-30.5 -5h-10v-32h257v32q-23 0 -37 5t-22.5 17.5t-11.5 33t-3 51.5v112h-99v45h63v169q61 -57 103.5 -97
t70.5 -67t44.5 -43t24.5 -24.5t11 -11.5l5 -5l19 -30q0 -14 -14 -19.5t-55 -5.5v-25h108q4 -7 4 -15q0 -14 -9 -20t-36 -6v-32h246v32q-17 2 -33.5 12t-36.5 30h373z" />
    <glyph glyph-name="Edieresis" unicode="&#xcb;" horiz-adv-x="828" 
d="M550 415h53v72h25v85q0 30 4.5 50t15.5 32t29 17t46 5h12v16h84v24h-194v-19h-324v19l-116 11v-14q22 0 40 -3.5t31 -12.5h-314v-21h333q3 -8 5 -16t2 -19v-290q0 -93 -8.5 -150.5t-22 -89t-29 -42t-29.5 -10.5q-11 0 -20.5 6.5t-18.5 12.5t-21 12.5t-27 6.5
q-26 0 -39 -18.5t-13 -37.5q0 -12 4.5 -23.5t15 -21t27 -15.5t40.5 -6q45 0 76.5 19.5t52 52.5t32.5 76.5t17.5 92t7 99t1.5 96.5v265h81q29 0 47.5 -4.5t29 -16.5t14.5 -31.5t4 -49.5v-447q0 -24 -5 -40t-14.5 -25.5t-23.5 -14.5t-33 -8v-15h-72v-24h529v23h-121
q-28 0 -52.5 2t-43 10.5t-29.5 26t-11 47.5v69h-78v237z" />
    <glyph glyph-name="Igrave" unicode="&#xcc;" horiz-adv-x="1051" 
d="M2 -131v-17h212v329h26v380h2l285 -562l266 572h2v-435q0 -61 -19.5 -90t-75.5 -29h-20v-17h195v543h224v24h-224v106h-92l-224 -458l-246 458h-71v69h-258v-22h16q50 0 87 -8t51 -39h-107v-26h16q30 0 49 -5t29.5 -17t14.5 -31t4 -46v-559q0 -54 -24 -85.5t-71 -34.5
h-47z" />
    <glyph glyph-name="Iacute" unicode="&#xcd;" horiz-adv-x="1000" 
d="M739 211v467h-70v-303h-331v254q0 30 4.5 50t15.5 31.5t30 16.5t48 5h22v22h-512v-23h222q39 -5 57 -28.5t18 -65.5v-25h-141v-23h34q42 0 63.5 -20t21.5 -74v-118h22v-223q0 -30 -4.5 -50t-15.5 -32t-29.5 -17t-46.5 -5h-19v-24h309v24h-1q-29 0 -48 5t-30 17t-15.5 32
t-4.5 50v161h331v-282q0 -30 -4.5 -50t-16 -32t-30 -17t-46.5 -5h-23l1 -20h190v276h322v26h-323z" />
    <glyph glyph-name="Icircumflex" unicode="&#xce;" horiz-adv-x="1000" 
d="M-43 290h233v-158q48 -66 124 -106.5t169 -43.5v44q43 0 82.5 12.5t74.5 34.5t64 51.5t52 62.5h295v23h-288v345q-23 37 -56 68t-72 54t-83.5 36t-90.5 13v-43q-43 0 -82.5 -11.5t-74 -32t-63.5 -48t-51 -58.5v-220h-233v-23zM280 333q0 68 13 116.5t37.5 80.5t60.5 48.5
t83 21.5v76q44 -6 87 -29.5t76.5 -62t54.5 -91.5t21 -118q0 -69 -21.5 -123t-57 -93t-81 -61t-92.5 -26v-41q-88 14 -134.5 91.5t-46.5 210.5z" />
    <glyph glyph-name="Idieresis" unicode="&#xcf;" horiz-adv-x="1000" 
d="M739 211v466h-397q7 31 28 43t66 12h22v22h-512v-23h222q39 -5 57 -28.5t18 -65.5v-25h-141v-23h34q42 0 63.5 -20t21.5 -74v-118h22v-223q0 -30 -4.5 -50t-15.5 -32t-29.5 -17t-46.5 -5h-19v-24h309v24h-1q-29 0 -48 5t-30 17t-15.5 32t-4.5 50v463h331v-584
q0 -30 -4.5 -50t-16 -32t-30 -17t-46.5 -5h-23l1 -20h190v276h322v26h-323z" />
    <glyph glyph-name="Ntilde" unicode="&#xd1;" horiz-adv-x="1000" 
d="M779 0h278v23h-278v18h-43v33h-48v-2q-35 -21 -75.5 -32t-82.5 -11t-78.5 12t-63.5 36.5t-43 61.5t-16 86h-84v284h84q7 25 26 44.5t46 33.5t59.5 21.5t66.5 7.5q51 0 97.5 -17.5t75.5 -55.5h54l37 134l-33 23q-2 -5 -5 -12t-9 -14t-14.5 -11.5t-20.5 -4.5q-30 0 -57 6
t-54 13.5t-54.5 14t-57.5 6.5q-44 0 -99 -14.5t-109.5 -37t-101.5 -50.5t-74 -55v-28h22v-154h31v-148h-205v-23h240v-100q60 -54 143.5 -80.5t180.5 -26.5q45 0 90.5 6t88.5 17v-42z" />
    <glyph glyph-name="Ograve" unicode="&#xd2;" horiz-adv-x="703" 
d="M-49 1h312q-11 -17 -31 -20.5t-45 -3.5h-25v-20h180v61h190v22h-20q-29 0 -47.5 6t-29.5 19t-15 34.5t-4 51.5v38h346v23h-346v433h112q32 0 52.5 -4t32.5 -15.5t17.5 -30.5t8.5 -49h20v135h-357v-38h-267v-152h19q0 28 3.5 50t14.5 37t31 22.5t53 7.5h124v-492
q0 -28 -0.5 -45t-1 -26.5t-1 -14t-1.5 -7.5h-325v-22z" />
    <glyph glyph-name="Oacute" unicode="&#xd3;" horiz-adv-x="903" 
d="M954 0v23h-402q-27 0 -45 4t-29.5 14.5t-17 27.5t-5.5 43h25v186h-48l68 90v75l-73 -71q-54 77 -84.5 121.5t-45 67.5t-18 31t-3.5 13q0 8 6.5 13.5t17.5 8.5t25 4.5t29 1.5v24h-503v-24h222q13 -1 23.5 -6t21.5 -15t24.5 -26t32.5 -39l159 -229h42v-167h-16v-281h141v23
h-23q-53 0 -74.5 18.5t-22.5 68.5h573zM950 685v23h-403v-25q50 0 82.5 -3.5t32.5 -22.5l-135 -167h2v-67l141 169q19 23 36 40.5t34 29t35 17.5t40 6h135z" />
    <glyph glyph-name="Ocircumflex" unicode="&#xd4;" horiz-adv-x="876" 
d="M435 725q36 0 72 -9h-3v-19h-243v-20h26q38 0 59 -9t29 -32q-30 -1 -74.5 -7t-91 -22.5t-89 -46.5t-68.5 -81h46v-291h-26q25 -33 62 -54.5t78 -35t83 -19t78 -5.5q-9 -17 -25.5 -24t-40.5 -11v-15h-368v-24h725v23h-21q-28 0 -52.5 2t-43 10.5t-29.5 26t-11 47.5v4h5
q75 0 140.5 25t114.5 73t77.5 117.5t28.5 157.5l-72 -19v6q0 61 -22.5 118.5t-76.5 100.5h226v24h-263q-42 23 -98.5 36t-131.5 14v-41zM383 574v-395q-57 22 -97 60.5t-65 83.5l-23 -15q36 -72 83.5 -113t101.5 -61v-18q-36 0 -77 10.5t-75.5 36.5t-57 69.5t-22.5 109.5
q0 68 21 116t54 78.5t74 44.5t82 14q1 -5 1 -11v-10zM507 572q0 56 16.5 78.5t63.5 24.5q32 -26 54.5 -67t28.5 -99h75l-14 -52l-61 -23q-5 -45 -21.5 -77t-39.5 -53t-50 -33t-52 -18v140l-77 -20l27 136h50v63zM507 207q42 4 84.5 15.5t80.5 31.5q-28 -40 -68.5 -66
t-96.5 -29v48z" />
    <glyph glyph-name="Otilde" unicode="&#xd5;" horiz-adv-x="951" 
d="M-56 690h171q36 -8 80.5 -34.5t87.5 -83.5l152 -180h-86l46 -48l-135 -218q-24 -31 -43 -53t-36.5 -37t-36 -23t-42.5 -11v-24h262v24q-35 0 -57.5 4.5t-22.5 25.5q0 14 10 45.5t31 70.5l96 151l176 -192q24 -33 31.5 -47.5t7.5 -24.5q0 -18 -13 -26t-50 -8v-23h309v23
q-25 1 -59.5 25t-66.5 69l-248 296l55 2l-177 208q-17 19 -25 35t-8 25q0 17 15 25t50 9v21h-474v-26zM640 398q39 49 71 100t60 93t54.5 70t55.5 33l1 24h-223l-1 -22q33 -1 45.5 -18t12.5 -42q0 -26 -9.5 -55t-20.5 -52l-85 -131h39z" />
    <glyph glyph-name="Odieresis" unicode="&#xd6;" horiz-adv-x="1000" 
d="M674 -15q15 0 40.5 -4t51 -22t45 -54.5t21.5 -101.5h14l-8 234h-56q-8 0 -15.5 1t-13.5 5.5t-9.5 14.5t-3.5 28l-1 -2v367h323v26h-322v276h-190l-1 -20h23q28 0 46.5 -5t30 -17t16 -32t4.5 -50v-584h-331v463q0 30 4.5 50t15.5 32t30 17t48 5h1v24h-309v-24h19
q28 0 46.5 -5t29.5 -17t15.5 -32t4.5 -50v-223h-22v-118q0 -54 -21.5 -74t-63.5 -20h-34v-23h141v-25q0 -42 -18 -65.5t-57 -28.5h-222v-23h512v22h-22q-45 0 -66 12t-28 43h332z" />
    <glyph glyph-name="Oslash" unicode="&#xd8;" horiz-adv-x="1367" 
d="M867 -90v23h-21q-36 0 -66 4t-49 21h315l68 42h104v24h-34v21h-23q-24 0 -41 13.5t-28 22.5q-3 16 -3 39v358q0 24 16 38.5t43 21.5t61 9t70 2h172v25h-385q0 28 3.5 49t14 34.5t29 20t48.5 6.5h17v23h-193v-356h-57v-228q0 -23 -2 -37t-8 -21t-18.5 -9t-33.5 -2h-156
v428q0 30 4.5 50t15.5 32t29 17t46 5h12v16h144v24h-254v-19h-243v-20h26q29 0 47.5 -5t29.5 -16.5t15 -31.5t4 -50v-430h-104q-21 0 -33.5 2t-18.5 9t-8 21t-2 37v228h-57v356h-193v-23h17q30 0 48.5 -6.5t29 -20t14 -34.5t3.5 -49h-165v-25l17 1q21 0 43 -5t40 -14.5
t30 -22.5t12 -30v-358q0 -23 -3 -39q-11 -9 -28 -22.5t-41 -13.5h-23v-21h-264v-24h334q-11 -9 -28 -12.5t-42 -3.5h-23v-26h405q-14 -6 -36 -9v-15h-148v-24h505z" />
    <glyph glyph-name="Ugrave" unicode="&#xd9;" horiz-adv-x="1367" 
d="M1046 -42q15 0 40.5 -4t51 -22t45 -54.5t21.5 -101.5h16l-9 224h7v24h-34v21h-23q-24 0 -41 13.5t-28 22.5q-3 16 -3 39v358q0 24 16 38.5t43 21.5t61 9t70 2h172v25h-385q0 28 3.5 49t14 34.5t29 20t48.5 6.5h17v23h-193v-356h-57v-228q0 -23 -2 -37t-8 -21t-18.5 -9
t-33.5 -2h-156v36h-124v-36h-104q-21 0 -33.5 2t-18.5 9t-8 21t-2 37v228h-57v356h-193v-23h17q30 0 48.5 -6.5t29 -20t14 -34.5t3.5 -49h-165v-25l17 1q21 0 43 -5t40 -14.5t30 -22.5t12 -30v-358q0 -23 -3 -39q-11 -9 -28 -22.5t-41 -13.5h-23v-21h-264v-24h334
q-11 -9 -28 -12.5t-42 -3.5h-23v-26h405q-14 -6 -36 -9v-15h-148v-24h505v23h-21q-36 0 -66 4t-49 21h315zM710 482q0 30 4.5 50t15.5 32t29 17t46 5h12v16h144v24h-254v-19h-243v-20h26q29 0 47.5 -5t29.5 -16.5t15 -31.5t4 -50v-298h124v296z" />
    <glyph glyph-name="Uacute" unicode="&#xda;" horiz-adv-x="918" 
d="M1011 -36h-507q11 2 32 7.5t41.5 13t36 16t15.5 16.5v315q-28 17 -62 26.5t-72 9.5q-37 0 -72 -9.5t-63 -26.5v191q0 33 5 53.5t17.5 31.5t33 15t51.5 4v20h-97q5 17 23.5 31.5t62.5 14.5h18v14h-442l-12 -171h12q8 46 24.5 71t37 36.5t42.5 13.5t42 2q12 0 29 -2
t32.5 -5t26.5 -7t11 -8v-121h26v-54h-385v-24h385v-474h-1v-24h709v24zM335 26v262q10 5 28 8.5t38 5.5t38 3t27 1q27 0 50.5 -13.5t41 -36t27 -51t9.5 -58.5q0 -61 -38 -97t-102 -36q-8 0 -24.5 0.5t-35.5 2t-35.5 4t-23.5 5.5z" />
    <glyph glyph-name="Ucircumflex" unicode="&#xdb;" horiz-adv-x="940" 
d="M917 -60v23h-21q-28 0 -52.5 2t-43 10.5t-29.5 26t-11 47.5v463q0 30 4.5 50t15.5 32t29 17t46 5h12v16h144v24h-254v-19h-243v-20h26q29 0 47.5 -5t29.5 -16.5t15 -31.5t4 -50v-447q0 -24 -5 -40t-14.5 -25.5t-23.5 -14.5t-33 -8v-15h-225q11 2 32 7.5t41.5 13t36 16
t15.5 16.5v315q-28 17 -62 26.5t-72 9.5q-37 0 -72 -9.5t-63 -26.5v191q0 33 5 53.5t17.5 31.5t33 15t51.5 4v20h-135q4 14 5 22t5.5 11.5t16.5 4.5t38 1v21h-120v-191h26v-54h-235v-24h235v-474h-1v-24h784zM166 26v262q10 5 28 8.5t38 5.5t38 3t27 1q27 0 50.5 -13.5
t41 -36t27 -51t9.5 -58.5q0 -61 -38 -97t-102 -36q-8 0 -24.5 0.5t-35.5 2t-35.5 4t-23.5 5.5z" />
    <glyph glyph-name="Udieresis" unicode="&#xdc;" horiz-adv-x="749" 
d="M842 -36h-507q11 2 32 7.5t41.5 13t36 16t15.5 16.5v315q-28 17 -62 26.5t-72 9.5q-37 0 -72 -9.5t-63 -26.5v191q0 33 5 53.5t17.5 31.5t33 15t51.5 4v20h-135q4 14 5 22t5.5 11.5t16.5 4.5t38 1v21h-120v-191h26v-54h-235v-24h235v-474h-1v-24h709v24zM166 26v262
q10 5 28 8.5t38 5.5t38 3t27 1q27 0 50.5 -13.5t41 -36t27 -51t9.5 -58.5q0 -61 -38 -97t-102 -36q-8 0 -24.5 0.5t-35.5 2t-35.5 4t-23.5 5.5z" />
    <glyph glyph-name="germandbls" unicode="&#xdf;" horiz-adv-x="736" 
d="M787 189v23h-258v437h-276q-16 0 -31.5 -7.5t-28 -18t-20.5 -22t-8 -18.5v-221q9 -8 24 -16t31.5 -14.5t33 -10.5t29.5 -4l-151 -245q-20 -24 -45 -34.5t-67 -13.5h-85v-24h274l203 300h66v-189q0 -32 -4.5 -50t-17.5 -27t-35 -11t-56 -2v-21h164v189h258zM478 352h-107
q-39 0 -68 11t-48.5 30t-29 44t-9.5 53q0 60 40.5 91.5t112.5 31.5q13 0 29 -1t31.5 -2.5t28.5 -4t20 -5.5v-248z" />
    <glyph glyph-name="agrave" unicode="&#xe0;" 
d="M905 185v24h-497v-24h497zM621 636v23h-696v-23h696zM651 -1l454 1v23h-454v-24zM508 505h602v24h-602v-24zM431 341v24h-497v-24h497z" />
    <glyph glyph-name="aacute" unicode="&#xe1;" 
d="M899 395v24h-497v-24h497zM621 636v23h-696v-23h696zM651 288l454 1v23h-454v-24zM501 563h602v24h-602v-24zM420 188v24h-497v-24h497z" />
    <glyph glyph-name="acircumflex" unicode="&#xe2;" 
d="M894 107v24h-497v-24h497zM616 348v23h-696v-23h696zM646 0l454 1v23h-454v-24zM496 274h602v24h-602v-24zM414 191v24h-497v-24h497z" />
    <glyph glyph-name="atilde" unicode="&#xe3;" 
d="M905 473v-24h-497v24h497zM621 22v-23h-696v23h696zM651 659l454 -1v-23h-454v24zM508 153h602v-24h-602v24zM431 317v-24h-497v24h497z" />
    <glyph glyph-name="adieresis" unicode="&#xe4;" 
d="M129 473v-24h497v24h-497zM413 22v-23h696v23h-696zM383 659l-454 -1v-23h454v24zM526 153h-602v-24h602v24zM603 317v-24h497v24h-497z" />
    <glyph glyph-name="aring" unicode="&#xe5;" 
d="M129 185v24h497v-24h-497zM413 636v23h696v-23h-696zM383 -1l-454 1v23h454v-24zM526 505h-602v24h602v-24zM603 341v24h497v-24h-497z" />
    <glyph glyph-name="ae" unicode="&#xe6;" 
d="M122 263v-24h497v24h-497zM400 22v-23h696v23h-696zM370 370l-454 -1v-23h454v24zM520 96h-602v-24h602v24zM602 179v-24h497v24h-497z" />
    <glyph glyph-name="ccedilla" unicode="&#xe7;" 
d="M129 395v24h497v-24h-497zM407 636v23h696v-23h-696zM377 288l-454 1v23h454v-24zM527 561h-602v24h602v-24zM608 495v24h497v-24h-497z" />
    <glyph glyph-name="egrave" unicode="&#xe8;" 
d="M-55 482v-24h497v24h-497zM-54 23v-23h696v23h-696zM1096 670l-454 -1v-23h454v24zM1044 150h-602v-24h602v24zM290 325v-24h497v24h-497z" />
    <glyph glyph-name="eacute" unicode="&#xe9;" 
d="M1100 212v-24h-497v24h497zM621 22v-23h-696v23h696zM649 580l454 -1v-23h-454v24zM-78 209h602v-24h-602v24zM641 406v-24h-497v24h497z" />
    <glyph glyph-name="ecircumflex" unicode="&#xea;" 
d="M-76 366v24h497v-24h-497zM403 556v23h696v-23h-696zM375 -2l-454 1v23h454v-24zM1102 369h-602v24h602v-24zM383 172v24h497v-24h-497z" />
    <glyph glyph-name="edieresis" unicode="&#xeb;" 
d="M-76 210v-24h497v24h-497zM403 20v-23h696v23h-696zM375 578l-454 -1v-23h454v24zM1102 207h-602v-24h602v24zM383 404v-24h497v24h-497z" />
    <glyph glyph-name="igrave" unicode="&#xec;" 
d="M1098 366v24h-497v-24h497zM619 556v23h-696v-23h696zM647 -2l454 1v23h-454v-24zM-80 369h602v24h-602v-24zM639 172v24h-497v-24h497z" />
    <glyph glyph-name="iacute" unicode="&#xed;" horiz-adv-x="800" 
d="M762 23h-725v-23h725v23zM88 207v-24h602v24h-602zM630 354h-476v-24h476v24zM593 507h-406v-24h406v24zM234 655v-24h322v23z" />
    <glyph glyph-name="icircumflex" unicode="&#xee;" horiz-adv-x="800" 
d="M762 631v23h-725v-23h725zM88 447h602v24h-602v-24zM630 300v24h-476v-24h476zM593 147v24h-406v-24h406zM234 -1l322 1v23h-322v-24z" />
    <glyph glyph-name="idieresis" unicode="&#xef;" horiz-adv-x="800" 
d="M445 151v24h-406v-24h406zM762 630v23h-725v-23h725zM39 1l322 1v23h-322v-24zM39 444h602v24h-602v-24zM515 295v24h-476v-24h476z" />
    <glyph glyph-name="ntilde" unicode="&#xf1;" horiz-adv-x="800" 
d="M353 503v-24h406v24h-406zM36 24v-23h725v23h-725zM759 653l-322 -1v-23h322v24zM759 210h-602v-24h602v24zM283 359v-24h476v24h-476z" />
    <glyph glyph-name="ograve" unicode="&#xf2;" horiz-adv-x="800" 
d="M353 151v24h406v-24h-406zM36 630v23h725v-23h-725zM759 1l-322 1v23h322v-24zM759 444h-602v24h602v-24zM283 295v24h476v-24h-476z" />
    <glyph glyph-name="oacute" unicode="&#xf3;" horiz-adv-x="803" 
d="M171 115v-23h696v23h-696zM506 208h-602v-24h602v24zM-84 413v-24h497v24h-497zM368 316v-24h497v24h-497zM860 543h-454v-23h454v23z" />
    <glyph glyph-name="ocircumflex" unicode="&#xf4;" horiz-adv-x="803" 
d="M599 115h-696v-23h696v23zM264 208v-24h602v24h-602zM854 413h-497v-24h497v24zM402 316h-497v-24h497v24zM-90 543v-24h454v24h-454z" />
    <glyph glyph-name="otilde" unicode="&#xf5;" horiz-adv-x="803" 
d="M599 519v23h-696v-23h696zM264 426h602v24h-602v-24zM854 221v24h-497v-24h497zM402 318v24h-497v-24h497zM-90 91h454v24h-454v-24z" />
    <glyph glyph-name="odieresis" unicode="&#xf6;" horiz-adv-x="803" 
d="M171 519h696v23h-696v-23zM506 426v24h-602v-24h602zM-84 221h497v24h-497v-24zM368 318h497v24h-497v-24zM860 91v23h-454v-23h454z" />
    <glyph glyph-name="divide" unicode="&#xf7;" 
d="M997 191v24h-497v-24h497zM1096 647v23h-696v-23h696zM-54 0l454 1v23h-454v-24zM494 491h602v24h-602v-24zM706 339v24h-497v-24h497z" />
    <glyph glyph-name="oslash" unicode="&#xf8;" 
d="M997 479v-24h-497v24h497zM1096 23v-23h-696v23h696zM-54 670l454 -1v-23h-454v24zM494 179h602v-24h-602v24zM706 331v-24h-497v24h497z" />
    <glyph glyph-name="ugrave" unicode="&#xf9;" horiz-adv-x="203" 
d="M39 479h123v24h-123v-24zM39 210v-24h123v24h-123zM39 653v-24h123v24h-123zM39 335h123v24h-123v-24zM37 1h125v23h-125v-23z" />
    <glyph glyph-name="uacute" unicode="&#xfa;" 
d="M905 185v24h-497v-24h497zM621 636v23h-696v-23h696zM651 -1l454 1v23h-454v-24zM508 505h602v24h-602v-24zM431 341v24h-497v-24h497z" />
    <glyph glyph-name="ucircumflex" unicode="&#xfb;" 
d="M899 395v24h-497v-24h497zM621 636v23h-696v-23h696zM651 288l454 1v23h-454v-24zM501 563h602v24h-602v-24zM420 188v24h-497v-24h497z" />
    <glyph glyph-name="udieresis" unicode="&#xfc;" 
d="M894 107v24h-497v-24h497zM616 348v23h-696v-23h696zM646 0l454 1v23h-454v-24zM496 274h602v24h-602v-24zM414 191v24h-497v-24h497z" />
    <glyph glyph-name="ydieresis" unicode="&#xff;" 
d="M129 185v24h497v-24h-497zM413 636v23h696v-23h-696zM383 -1l-454 1v23h454v-24zM526 505h-602v24h602v-24zM603 341v24h497v-24h-497z" />
    <glyph glyph-name="FL00BFh" 
d="M1098 366v24h-497v-24h497zM619 556v23h-696v-23h696zM647 -2l454 1v23h-454v-24zM-80 369h602v24h-602v-24zM639 172v24h-497v-24h497z" />
    <glyph glyph-name="FL00B8h" unicode="&#xb8;" horiz-adv-x="803" 
d="M171 519h696v23h-696v-23zM506 426v24h-602v-24h602zM-84 221h497v24h-497v-24zM368 318h497v24h-497v-24zM860 91v24h-454v-24h454z" />
    <glyph glyph-name="FL00BAh" 
d="M997 191v24h-497v-24h497zM1096 647v23h-696v-23h696zM-54 0l454 1v23h-454v-24zM494 491h602v24h-602v-24zM706 339v24h-497v-24h497z" />
    <glyph glyph-name="FL00AFh" unicode="&#xaf;" horiz-adv-x="500" 
d="M457 0h-505v24h148v15q19 3 33 8t23.5 14.5t14.5 25.5t5 40v447q0 30 -4 50t-15 31.5t-29.5 16.5t-47.5 5h-26v20h243v19h254v-24h-144v-16h-12q-28 0 -46 -5t-29 -17t-15.5 -32t-4.5 -50v-463q0 -30 11 -47.5t29.5 -26t43 -10.5t52.5 -2h21v-23zM74 761v106h122v-106
h-122zM276 815v106h122v-106h-122z" />
    <glyph glyph-name="FL00A8h" horiz-adv-x="997" 
d="M-57 -1h399v14h136v-36h261v52h312v23h-312v1h-300q-19 0 -30 2.5t-17 9.5t-8 19.5t-2 33.5v182h133v-29h157v110h-22q0 -21 -3.5 -32.5t-9.5 -17.5t-14 -7t-17 -1h-68v31h-156v281h140v-32h67q22 0 40 -4t33 -15t27.5 -31t23.5 -52h21v156h-123v50h-661v-23h214v-1
q30 0 50 -7t31.5 -21.5t16 -37.5t4.5 -56v-435q0 -32 -4.5 -52.5t-16.5 -32t-31.5 -15.5t-49.5 -4h-221v-23zM571 838h122v106h-122v-106zM369 784h122v106h-122v-106z" />
    <glyph glyph-name="FL2013h" horiz-adv-x="354" 
d="M27 203h301v106h-301v-106z" />
    <glyph glyph-name="FL2014h" horiz-adv-x="354" 
d="M27 203h301v106h-301v-106z" />
    <glyph glyph-name="FL00B1h" horiz-adv-x="600" 
d="M0 0h669v64h-291v220h115v129h-169v75h380v24h-380v88h-90v-204h-131v-90h185v-91h-389v-24h389v-127h-288v-64z" />
    <glyph glyph-name="plusminus" unicode="&#xb1;" horiz-adv-x="600" 
d="M0 0h669v64h-291v220h115v129h-169v75h380v24h-380v88h-90v-204h-131v-90h185v-91h-389v-24h389v-127h-288v-64z" />
    <glyph glyph-name="endash" unicode="&#x2013;" horiz-adv-x="354" 
d="M27 203h301v106h-301v-106z" />
    <glyph glyph-name="emdash" unicode="&#x2014;" horiz-adv-x="354" 
d="M27 203h301v106h-301v-106z" />
    <glyph glyph-name="questiondown" unicode="&#xbf;" 
d="M1098 366v24h-497v-24h497zM619 556v23h-696v-23h696zM647 -2l454 1v23h-454v-24zM-80 369h602v24h-602v-24zM639 172v24h-497v-24h497z" />
    <glyph glyph-name="ordmasculine" unicode="&#xba;" 
d="M997 191v24h-497v-24h497zM1096 647v23h-696v-23h696zM-54 0l454 1v23h-454v-24zM494 491h602v24h-602v-24zM706 339v24h-497v-24h497z" />
    <glyph glyph-name="ordfeminine" unicode="&#xaa;" horiz-adv-x="1000" 
d="M777 0h278v23h-278v17h-54l65 116h-61l-4 -6q-14 -26 -31 -48t-40.5 -38.5t-54 -25.5t-69.5 -9q-42 0 -78.5 12t-63.5 36t-43 61t-16 87h-84v284h84q7 25 26 44.5t46 33.5t59.5 21.5t66.5 7.5q51 0 97.5 -17.5t75.5 -55.5h54l37 134l-33 23q-2 -5 -5 -12t-9 -14
t-14.5 -11.5t-20.5 -4.5q-30 0 -57 6t-54 13.5t-54.5 14t-57.5 6.5q-44 0 -99 -14.5t-109.5 -37t-101.5 -50.5t-74 -55v-28h22v-154h31v-148h-205v-23h240v-100q60 -54 143.5 -80.5t180.5 -26.5q22 0 46.5 2t48 6t44 9t34.5 11l6 -47zM274 380v-47h221q54 0 73 -27.5
t19 -78.5h14v263h-14q0 -35 -7.5 -56.5t-20.5 -33.5t-30 -16t-36 -4h-219z" />
    <glyph glyph-name="dieresis" unicode="&#xa8;" horiz-adv-x="997" 
d="M-57 -1h399v14h136v-36h261v52h312v23h-312v1h-300q-19 0 -30 2.5t-17 9.5t-8 19.5t-2 33.5v182h133v-29h157v110h-22q0 -21 -3.5 -32.5t-9.5 -17.5t-14 -7t-17 -1h-68v31h-156v281h140v-32h67q22 0 40 -4t33 -15t27.5 -31t23.5 -52h21v156h-123v50h-661v-23h214v-1
q30 0 50 -7t31.5 -21.5t16 -37.5t4.5 -56v-435q0 -32 -4.5 -52.5t-16.5 -32t-31.5 -15.5t-49.5 -4h-221v-23zM571 838h122v106h-122v-106zM369 784h122v106h-122v-106z" />
    <glyph glyph-name="dotlessi" unicode="&#xd;" 
d="M1100 212v-24h-497v24h497zM621 22v-23h-696v23h696zM-78 209h602v-24h-602v24zM641 406v-24h-497v24h497z" />
    <glyph glyph-name="dotaccent" horiz-adv-x="200" 
d="M37 596h122v106h-122v-106z" />
    <glyph glyph-name="caron" horiz-adv-x="581" 
d="M344 673h79l-139 -247v-69h-14l-13 22l-31 -56h-12v119l4 7l-146 258h81l105 -186z" />
    <glyph glyph-name="FL0430h" 
d="M905 185v24h-497v-24h497zM621 636v23h-696v-23h696zM651 -1l454 1v23h-454v-24zM508 505h602v24h-602v-24zM431 341v24h-497v-24h497z" />
    <glyph glyph-name="FL0431h" 
d="M899 395v24h-497v-24h497zM621 636v23h-696v-23h696zM651 288l454 1v23h-454v-24zM501 563h602v24h-602v-24zM420 188v24h-497v-24h497z" />
    <glyph glyph-name="FL0432h" 
d="M894 107v24h-497v-24h497zM616 348v23h-696v-23h696zM646 0l454 1v23h-454v-24zM496 274h602v24h-602v-24zM414 191v24h-497v-24h497z" />
    <glyph glyph-name="FL0433h" 
d="M905 473v-24h-497v24h497zM621 22v-23h-696v23h696zM651 659l454 -1v-23h-454v24zM508 153h602v-24h-602v24zM431 317v-24h-497v24h497z" />
    <glyph glyph-name="FL0434h" 
d="M129 473v-24h497v24h-497zM413 22v-23h696v23h-696zM383 659l-454 -1v-23h454v24zM526 153h-602v-24h602v24zM603 317v-24h497v24h-497z" />
    <glyph glyph-name="FL0435h" 
d="M129 185v24h497v-24h-497zM413 636v23h696v-23h-696zM383 -1l-454 1v23h454v-24zM526 505h-602v24h602v-24zM603 341v24h497v-24h-497z" />
    <glyph glyph-name="FL0436h" 
d="M122 263v-24h497v24h-497zM400 22v-23h696v23h-696zM370 370l-454 -1v-23h454v24zM520 96h-602v-24h602v24zM602 179v-24h497v24h-497z" />
    <glyph glyph-name="FL0437h" 
d="M129 395v24h497v-24h-497zM407 636v23h696v-23h-696zM377 288l-454 1v23h454v-24zM527 561h-602v24h602v-24zM608 495v24h497v-24h-497z" />
    <glyph glyph-name="FL0438h" 
d="M-55 482v-24h497v24h-497zM-54 23v-23h696v23h-696zM1096 670l-454 -1v-23h454v24zM1044 150h-602v-24h602v24zM290 325v-24h497v24h-497z" />
    <glyph glyph-name="FL0439h" 
d="M1100 212v-24h-497v24h497zM621 22v-23h-696v23h696zM649 580l454 -1v-23h-454v24zM-78 209h602v-24h-602v24zM641 406v-24h-497v24h497z" />
    <glyph glyph-name="FL043Ah" 
d="M-76 366v24h497v-24h-497zM403 556v23h696v-23h-696zM375 -2l-454 1v23h454v-24zM1102 369h-602v24h602v-24zM383 172v24h497v-24h-497z" />
    <glyph glyph-name="FL043Bh" 
d="M-76 210v-24h497v24h-497zM403 20v-23h696v23h-696zM375 578l-454 -1v-23h454v24zM1102 207h-602v-24h602v24zM383 404v-24h497v24h-497z" />
    <glyph glyph-name="FL043Ch" 
d="M1098 366v24h-497v-24h497zM619 556v23h-696v-23h696zM647 -2l454 1v23h-454v-24zM-80 369h602v24h-602v-24zM639 172v24h-497v-24h497z" />
    <glyph glyph-name="FL043Dh" horiz-adv-x="800" 
d="M762 23h-725v-23h725v23zM88 207v-24h602v24h-602zM630 354h-476v-24h476v24zM593 507h-406v-24h406v24zM234 655v-24h322v23z" />
    <glyph glyph-name="FL043Eh" horiz-adv-x="800" 
d="M762 631v23h-725v-23h725zM88 447h602v24h-602v-24zM630 300v24h-476v-24h476zM593 147v24h-406v-24h406zM234 -1l322 1v23h-322v-24z" />
    <glyph glyph-name="FL043Fh" horiz-adv-x="800" 
d="M445 151v24h-406v-24h406zM762 630v23h-725v-23h725zM39 1l322 1v23h-322v-24zM39 444h602v24h-602v-24zM515 295v24h-476v-24h476z" />
    <glyph glyph-name="FL0440h" horiz-adv-x="800" 
d="M762 24h-725v-23h725v23zM39 210v-24h602v24h-602zM515 359h-476v-24h476v24zM445 503h-406v-24h406v24zM39 653v-24h322v24h-322z" />
    <glyph glyph-name="FL0441h" horiz-adv-x="800" 
d="M353 503v-24h406v24h-406zM36 24v-23h725v23h-725zM759 653l-322 -1v-23h322v24zM759 210h-602v-24h602v24zM283 359v-24h476v24h-476z" />
    <glyph glyph-name="FL0442h" horiz-adv-x="800" 
d="M353 151v24h406v-24h-406zM36 630v23h725v-23h-725zM759 1l-322 1v23h322v-24zM759 444h-602v24h602v-24zM283 295v24h476v-24h-476z" />
    <glyph glyph-name="FL0443h" horiz-adv-x="803" 
d="M171 115v-23h696v23h-696zM506 208h-602v-24h602v24zM-84 413v-24h497v24h-497zM368 316v-24h497v24h-497zM860 543h-454v-23h454v23z" />
    <glyph glyph-name="FL0444h" horiz-adv-x="803" 
d="M599 115h-696v-23h696v23zM264 208v-24h602v24h-602zM854 413h-497v-24h497v24zM402 316h-497v-24h497v24zM-90 543v-24h454v24h-454z" />
    <glyph glyph-name="FL0445h" horiz-adv-x="803" 
d="M599 519v23h-696v-23h696zM264 426h602v24h-602v-24zM854 221v24h-497v-24h497zM402 318v24h-497v-24h497zM-90 91h454v24h-454v-24z" />
    <glyph glyph-name="FL0446h" horiz-adv-x="803" 
d="M171 519h696v23h-696v-23zM506 426v24h-602v-24h602zM-84 221h497v24h-497v-24zM368 318h497v24h-497v-24zM860 91v23h-454v-23h454z" />
    <glyph glyph-name="FL0447h" 
d="M997 191v24h-497v-24h497zM1096 647v23h-696v-23h696zM-54 0l454 1v23h-454v-24zM494 491h602v24h-602v-24zM706 339v24h-497v-24h497z" />
    <glyph glyph-name="FL0448h" 
d="M997 479v-24h-497v24h497zM1096 23v-23h-696v23h696zM-54 670l454 -1v-23h-454v24zM494 179h602v-24h-602v24zM706 331v-24h-497v24h497z" />
    <glyph glyph-name="FL0449h" horiz-adv-x="203" 
d="M39 479h123v24h-123v-24zM39 210v-24h123v24h-123zM39 653v-24h123v24h-123zM39 335h123v24h-123v-24zM37 1h125v23h-125v-23z" />
    <glyph glyph-name="FL044Ah" 
d="M905 185v24h-497v-24h497zM621 636v23h-696v-23h696zM651 -1l454 1v23h-454v-24zM508 505h602v24h-602v-24zM431 341v24h-497v-24h497z" />
    <glyph glyph-name="FL044Bh" 
d="M899 395v24h-497v-24h497zM621 636v23h-696v-23h696zM651 288l454 1v23h-454v-24zM501 563h602v24h-602v-24zM420 188v24h-497v-24h497z" />
    <glyph glyph-name="FL044Ch" 
d="M894 107v24h-497v-24h497zM616 348v23h-696v-23h696zM646 0l454 1v23h-454v-24zM496 274h602v24h-602v-24zM414 191v24h-497v-24h497z" />
    <glyph glyph-name="FL044Dh" 
d="M621 22h-696v-23h696v23zM508 153v-24h602v24h-602zM905 473h-497v-24h497v24zM431 317h-497v-24h497v24zM651 659v-24h454v24h-454z" />
    <glyph glyph-name="FL044Eh" 
d="M129 473v-24h497v24h-497zM413 22v-23h696v23h-696zM383 659l-454 -1v-23h454v24zM526 153h-602v-24h602v24zM603 317v-24h497v24h-497z" />
    <glyph glyph-name="FL044Fh" 
d="M129 185v24h497v-24h-497zM413 636v23h696v-23h-696zM383 -1l-454 1v23h454v-24zM526 505h-602v24h602v-24zM603 341v24h497v-24h-497z" />
    <glyph glyph-name="FL0410h" horiz-adv-x="946" 
d="M668 309l-161 288h-64v-30h-494v-23h382l-197 -402q-26 -54 -54 -85t-63 -32v-25h157v18q-19 0 -26 6.5t-7 16.5q0 8 2.5 16t6.5 16l62 118h310q16 -36 26 -60.5t15 -40t7 -24t2 -13.5q0 -18 -14 -26t-58 -9v-18h499v24q-18 1 -56 3.5t-82 7t-87.5 11.5t-72.5 19
l-118 244h85zM504 221h-274l130 275z" />
    <glyph glyph-name="FL0412h" horiz-adv-x="950" 
d="M361 679v58h-408v-24h272q24 0 37.5 -10t23.5 -24h-51v-29q32 0 47 -0.5t22 -2.5v-113h-19v-191h45v-153h-53v-112h24v-54h-352v-24h352v-38h43v38h180q84 0 134.5 31.5t74.5 76.5v77h266v24h-266v75q-5 6 -14.5 16t-21.5 21t-25 21t-23 15q11 2 31.5 12.5t37.5 21.5v288
h-357zM464 329h85q38 0 65.5 -17t46 -43t29.5 -59t16 -64h-95q-4 -31 -16.5 -48t-32 -25.5t-46.5 -10.5t-60 -2q-24 0 -47 1t-40 6v229h95v33zM337 385v239h210q72 0 103.5 -39.5t33.5 -108.5h-84q-15 -45 -54 -68t-97 -23h-112z" />
    <glyph glyph-name="FL0421h" horiz-adv-x="1000" 
d="M779 0h278v23h-278v18h-43v33h-48v-2q-35 -21 -75.5 -32t-82.5 -11t-78.5 12t-63.5 36.5t-43 61.5t-16 86h-84v284h84q7 25 26 44.5t46 33.5t59.5 21.5t66.5 7.5q51 0 97.5 -17.5t75.5 -55.5h54l37 134l-33 23q-2 -5 -5 -12t-9 -14t-14.5 -11.5t-20.5 -4.5q-30 0 -57 6
t-54 13.5t-54.5 14t-57.5 6.5q-44 0 -99 -14.5t-109.5 -37t-101.5 -50.5t-74 -55v-28h22v-154h31v-148h-205v-23h240v-100q60 -54 143.5 -80.5t180.5 -26.5q45 0 90.5 6t88.5 17v-42z" />
    <glyph glyph-name="FL0415h" horiz-adv-x="997" 
d="M-57 -1h399v14h136v-36h261v52h312v23h-312v1h-300q-19 0 -30 2.5t-17 9.5t-8 19.5t-2 33.5v182h133v-29h157v110h-22q0 -20 -6.5 -31.5t-20 -17.5t-34.5 -7.5t-51 -1.5v31h-156v281h140v-32h67q22 0 40 -4t33 -15t27.5 -31t23.5 -52h21v156h-123v50h-661v-23h214v-1
q30 0 50 -7t31.5 -21.5t16 -37.5t4.5 -56v-435q0 -32 -4.5 -52.5t-16.5 -32t-31.5 -15.5t-49.5 -4h-221v-23z" />
    <glyph glyph-name="FL041Dh" horiz-adv-x="1000" 
d="M739 211v467h-70v-303h-331v254q0 30 4.5 50t15.5 31.5t30 16.5t48 5h22v22h-512v-23h222q39 -5 57 -28.5t18 -65.5v-25h-141v-23h34q42 0 63.5 -20t21.5 -74v-118h22v-223q0 -30 -4.5 -50t-15.5 -32t-29.5 -17t-46.5 -5h-19v-24h309v24h-1q-29 0 -48 5t-30 17t-15.5 32
t-4.5 50v161h331v-282q0 -30 -4.5 -50t-16 -32t-30 -17t-46.5 -5h-23l1 -20h190v276h322v26h-323z" />
    <glyph glyph-name="FL041Ah" horiz-adv-x="1100" 
d="M1158 1v25h-288q-38 4 -82.5 17.5t-92.5 54.5l-262 260q102 105 172.5 173t116.5 108t71 56.5t35 17.5v32h-221v-4h-659v-24h659v-16q71 0 71 -13q0 -8 -22 -24h-121l-1 -20q43 0 60 -6t17 -14q0 -6 -7 -13l-271 -266v217q0 36 9.5 54t39.5 18h15v32h-134v-104h-120v-2
h-194v-25h194q43 0 58.5 -23.5t15.5 -87.5v-31h-37v-264q0 -30 -4.5 -50t-15.5 -32t-29.5 -17t-46.5 -5h-16v-25h188l3 2q0 -31 -3 -51.5t-10 -33t-19.5 -17.5t-30.5 -5h-10v-32h257v32q-23 0 -37 5t-22.5 17.5t-11.5 33t-3 51.5v112h-99v45h63v169q61 -57 103.5 -97
t70.5 -67t44.5 -43t24.5 -24.5t11 -11.5l5 -5l19 -30q0 -14 -14 -19.5t-55 -5.5v-25h108q4 -7 4 -15q0 -14 -9 -20t-36 -6v-32h246v32q-17 2 -33.5 12t-36.5 30h373z" />
    <glyph glyph-name="FL041Ch" horiz-adv-x="1051" 
d="M2 -131v-17h212v329h26v380h2l285 -562l266 572h2v-435q0 -61 -19.5 -90t-75.5 -29h-20v-17h195v543h224v24h-224v106h-92l-224 -458l-246 458h-71v69h-258v-22h16q50 0 87 -8t51 -39h-107v-26h16q30 0 49 -5t29.5 -17t14.5 -31t4 -46v-559q0 -54 -24 -85.5t-71 -34.5
h-47z" />
    <glyph glyph-name="FL041Eh" horiz-adv-x="1000" 
d="M-43 290h233v-158q48 -66 124 -106.5t169 -43.5v44q43 0 82.5 12.5t74.5 34.5t64 51.5t52 62.5h295v23h-288v345q-23 37 -56 68t-72 54t-83.5 36t-90.5 13v-43q-43 0 -82.5 -11.5t-74 -32t-63.5 -48t-51 -58.5v-220h-233v-23zM280 333q0 68 13 116.5t37.5 80.5t60.5 48.5
t83 21.5v76q44 -6 87 -29.5t76.5 -62t54.5 -91.5t21 -118q0 -69 -21.5 -123t-57 -93t-81 -61t-92.5 -26v-41q-88 14 -134.5 91.5t-46.5 210.5z" />
    <glyph glyph-name="FL0420h" horiz-adv-x="749" 
d="M842 683v24h-709v-24h1v-474h-235v-24h235v-54h-26v-191h120v21q-26 0 -38 1t-16.5 4.5t-5.5 11.5t-5 22h135v20q-31 0 -51.5 4t-33 15t-17.5 31.5t-5 53.5v211q28 -17 63 -26.5t72 -9.5q38 0 72 9.5t62 26.5v295q0 8 -13 16.5t-32.5 16t-41 13t-38.5 7.5h507zM166 621
q7 3 23.5 5t35.5 3.5t35.5 2.5t24.5 1q64 0 102 -36t38 -97q0 -30 -9.5 -55t-27 -44t-41 -29.5t-50.5 -10.5q-9 0 -27 1t-38 3t-38 5.5t-28 8.5v242z" />
    <glyph glyph-name="FL0422h" horiz-adv-x="703" 
d="M-49 1h312q-11 -17 -31 -20.5t-45 -3.5h-25v-20h180v61h190v22h-20q-29 0 -47.5 6t-29.5 19t-15 34.5t-4 51.5v38h346v23h-346v433h112q32 0 52.5 -4t32.5 -15.5t17.5 -30.5t8.5 -49h20v135h-357v-38h-267v-152h19q0 28 3.5 50t14.5 37t31 22.5t53 7.5h124v-492
q0 -28 -0.5 -45t-1 -26.5t-1 -14t-1.5 -7.5h-325v-22z" />
    <glyph glyph-name="FL0425h" horiz-adv-x="951" 
d="M-56 690h171q36 -8 80.5 -34.5t87.5 -83.5l152 -180h-86l46 -48l-135 -218q-24 -31 -43 -53t-36.5 -37t-36 -23t-42.5 -11v-24h262v24q-35 0 -57.5 4.5t-22.5 25.5q0 14 10 45.5t31 70.5l96 151l176 -192q24 -33 31.5 -47.5t7.5 -24.5q0 -18 -13 -26t-50 -8v-23h309v23
q-25 1 -59.5 25t-66.5 69l-248 296l55 2l-177 208q-17 19 -25 35t-8 25q0 17 15 25t50 9v21h-474v-26zM640 398q39 49 71 100t60 93t54.5 70t55.5 33l1 24h-223l-1 -22q33 -1 45.5 -18t12.5 -42q0 -26 -9.5 -55t-20.5 -52l-85 -131h39z" />
    <glyph glyph-name="FL0405h" horiz-adv-x="901" 
d="M1001 579v24h-303v117h-33q-10 -34 -37 -34q-15 0 -30 5.5t-34 11.5t-43 11.5t-58 5.5h-578v-26h445q-3 -3 -5.5 -6.5t-5.5 -7.5v-301q27 -23 67 -45.5t80.5 -43.5t76 -40.5t53.5 -36.5q23 -23 29.5 -43t6.5 -38q0 -26 -13 -48q-7 -4 -24 -7t-36.5 -5t-38 -3t-27.5 -1
q-35 0 -68.5 14.5t-63 40.5t-54 61.5t-40.5 77.5h-32v-47h-336v-25h300v-238h32q0 5 3 10v39h401q19 18 36 37t29.5 40t19.5 45.5t7 55.5q0 44 -20.5 80t-53.5 65.5t-73.5 54.5t-79.5 46t-73 40t-53 37q-5 7 -7.5 18.5t-4.5 24.5t-2.5 25.5t-0.5 20.5q0 21 7 34q24 12 56 12
t62.5 -12t57.5 -34.5t50 -54t39 -70.5h33v113h337z" />
    <glyph glyph-name="FL0455h" horiz-adv-x="800" 
d="M353 151v24h406v-24h-406zM36 630v23h725v-23h-725zM759 1l-322 1v23h322v-24zM759 444h-602v24h602v-24zM283 295v24h476v-24h-476z" />
    <glyph glyph-name="FL0408h" horiz-adv-x="600" 
d="M291 124q0 -36 -10.5 -54t-30.5 -26q-7 11 -11.5 25t-10.5 28h-100v-76h-206v-22h421v33q39 27 60.5 72.5t21.5 99.5v302q0 59 19.5 81.5t71.5 22.5v32h-64q11 11 29 15t44 4h12v16h161v23h-271v-18h-187v-21h26q27 0 45 -4t29 -15h-135v-32h18q48 0 66.5 -23.5
t18.5 -80.5v-144h-17v-238z" />
    <glyph glyph-name="FL0458h" 
d="M1100 212v-24h-497v24h497zM621 22v-23h-696v23h696zM649 580l454 -1v-23h-454v24zM-78 209h602v-24h-602v24zM641 406v-24h-497v24h497z" />
    <glyph glyph-name="FL0406h" unicode="&#x406;" horiz-adv-x="500" 
d="M457 0v23h-21q-28 0 -52.5 2t-43 10.5t-29.5 26t-11 47.5v463q0 30 4.5 50t15.5 32t29 17t46 5h12v16h144v24h-254v-19h-243v-20h26q29 0 47.5 -5t29.5 -16.5t15 -31.5t4 -50v-447q0 -24 -5 -40t-14.5 -25.5t-23.5 -14.5t-33 -8v-15h-148v-24h505z" />
    <glyph glyph-name="FL0456h" 
d="M-55 482v-24h497v24h-497zM-54 23v-23h696v23h-696zM1096 670l-454 -1v-23h454v24zM1044 150h-602v-24h602v24zM290 325v-24h497v24h-497z" />
    <glyph glyph-name="FL0413h" horiz-adv-x="897" 
d="M438 350v265h113q27 0 48.5 -3.5t38 -15.5t29 -33.5t21.5 -57.5h26v149q14 -10 21.5 -29t7.5 -51h24v144h-91v-48h-732v-24h120q15 0 24.5 -8t14.5 -18.5t7 -21.5t2 -18h231v-371h-394v-24h394v-101q-3 -20 -9.5 -31.5t-18 -17.5t-28.5 -7.5t-40 -1.5h-27v-26h141v-188
h221v31h-64q-48 0 -69 15.5t-25 58.5v262l14 1v170z" />
    <glyph glyph-name="FL0411h" horiz-adv-x="950" 
d="M337 385v239h210q72 0 104.5 -19.5t32.5 -58.5h34v133h-357v58h-408v-24h272q24 0 37.5 -10t23.5 -24h-51v-29q32 0 47 -0.5t22 -2.5v-113h-19v-191h45v-153h-53v-112h24v-54h-352v-24h352v-38h43v38h180q84 0 134.5 31.5t74.5 76.5v77h266v24h-266v75q-18 29 -48.5 48.5
t-68 31t-80.5 16.5t-87 5h-112zM464 329h85q38 0 65.5 -17t46 -43t29.5 -59t16 -64h-95q-4 -31 -16.5 -48t-32 -25.5t-46.5 -10.5t-60 -2q-24 0 -47 1t-40 6v229h95v33z" />
    <glyph glyph-name="FL041Fh" horiz-adv-x="1000" 
d="M739 211v466h-397q7 31 28 43t66 12h22v22h-512v-23h222q39 -5 57 -28.5t18 -65.5v-25h-141v-23h34q42 0 63.5 -20t21.5 -74v-118h22v-223q0 -30 -4.5 -50t-15.5 -32t-29.5 -17t-46.5 -5h-19v-24h309v24h-1q-29 0 -48 5t-30 17t-15.5 32t-4.5 50v463h331v-584
q0 -30 -4.5 -50t-16 -32t-30 -17t-46.5 -5h-23l1 -20h190v276h322v26h-323z" />
    <glyph glyph-name="FL0418h" horiz-adv-x="1000" 
d="M739 451h323v26h-322v276h-190l-1 -20h23q28 0 46.5 -5t30 -17t16 -32t4.5 -50v-70l-331 -212v161q0 30 4.5 50t15.5 32t30 17t48 5h1v24h-309v-24h19q28 0 46.5 -5t29.5 -17t15.5 -32t4.5 -50v-223h-22v-118q0 -54 -21.5 -74t-63.5 -20h-34v-23h141v-25q0 -42 -18 -65.5
t-57 -28.5h-222v-23h512v22h-22q-29 0 -48 5t-30 16.5t-15.5 31.5t-4.5 50v254l331 219v-522h70v467z" />
    <glyph glyph-name="FL0419h" horiz-adv-x="1000" 
d="M739 451h323v26h-322v276h-190l-1 -20h23q28 0 46.5 -5t30 -17t16 -32t4.5 -50v-70l-331 -212v161q0 30 4.5 50t15.5 32t30 17t48 5h1v24h-309v-24h19q28 0 46.5 -5t29.5 -17t15.5 -32t4.5 -50v-223h-22v-118q0 -54 -21.5 -74t-63.5 -20h-34v-23h141v-25q0 -42 -18 -65.5
t-57 -28.5h-222v-23h512v22h-22q-29 0 -48 5t-30 16.5t-15.5 31.5t-4.5 50v254l331 219v-522h70v467zM653 900q-4 -42 -24 -65.5t-55 -23.5q-15 0 -35.5 5.5t-42.5 14t-44.5 19t-41.5 19.5v-89h-144q-20 -21 -32.5 -54.5t-12.5 -82.5h33q7 45 26 66t54 21q24 0 55.5 -11.5
t65.5 -26.5v65h180q27 26 39 61t12 82h-33z" />
    <glyph glyph-name="FL0451h" horiz-adv-x="803" 
d="M171 519h696v23h-696v-23zM506 426v24h-602v-24h602zM-84 221h497v24h-497v-24zM368 318h497v24h-497v-24zM860 91v24h-454v-24h454z" />
    <glyph glyph-name="FL0416h" horiz-adv-x="1499" 
d="M-9 598v-25h58q38 -4 82.5 -17.5t92.5 -54.5l262 -260q-102 -105 -172.5 -173t-116.5 -108t-71 -56.5t-35 -17.5v-32h221v4h179v24h-179v16q-71 0 -71 13q0 8 22 24h121l1 20q-43 0 -60 6t-17 14q0 6 7 13l264 259v-118q0 -30 -4.5 -50t-15.5 -32t-29.5 -17t-46.5 -5h-16
v-25h188l3 2q0 -31 -3 -51.5t-10 -33t-19.5 -17.5t-30.5 -5h-10v-32h257v32q-23 0 -37 5t-22.5 17.5t-11.5 33t-3 51.5v112h-99v45h63v169q61 -57 103.5 -97t70.5 -67t44.5 -43t24.5 -24.5t11 -11.5l5 -5l19 -30q0 -14 -14 -19.5t-55 -5.5v-25h108q4 -7 4 -15q0 -14 -9 -20
t-36 -6v-32h246v32q-17 2 -33.5 12t-36.5 30h373v25h-288q-38 4 -82.5 17.5t-92.5 54.5l-262 260q102 105 172.5 173t116.5 108t71 56.5t35 17.5v32h-221v-4h-659v-24h659v-16q71 0 71 -13q0 -8 -22 -24h-121l-1 -20q43 0 60 -6t17 -14q0 -6 -7 -13l-271 -266v217
q0 36 9.5 54t39.5 18h15v32h-134v-104h-120v-2h-194v-25h194q43 0 58.5 -23.5t15.5 -87.5v-31h-37v-116q-59 55 -100.5 94.5t-69 65.5t-43 41.5t-23.5 24t-11 11.5l-5 5l-19 30q0 14 14 19.5t55 5.5v25h-108q-4 7 -4 15q0 14 9 20t36 6v32h-246v-32q17 -2 33.5 -12t36.5 -30
h-143z" />
    <glyph glyph-name="FL042Eh" horiz-adv-x="1311" 
d="M461 0v23h-21q-28 0 -52.5 2t-43 10.5t-29.5 26t-11 47.5v181h197v-158q48 -66 124 -106.5t169 -43.5v44q87 8 157.5 51t115.5 110h295v23h-288v345q-47 74 -126 119.5t-176 51.5v-43q-87 -8 -156.5 -47.5t-114.5 -102.5v-220h-197v259q0 30 4.5 50t15.5 32t29 17t46 5
h12v16h144v24h-254v-19h-243v-20h26q29 0 47.5 -5t29.5 -16.5t15 -31.5t4 -50v-447q0 -24 -5 -40t-14.5 -25.5t-23.5 -14.5t-33 -8v-15h-148v-24h505zM591 333q0 68 13 116.5t37.5 80.5t60.5 48.5t83 21.5v76q44 -6 87 -29.5t76.5 -62t54.5 -91.5t21 -118q0 -69 -21.5 -123
t-57 -93t-81 -61t-92.5 -26v-41q-88 14 -134.5 91.5t-46.5 210.5z" />
    <glyph glyph-name="FL042Fh" horiz-adv-x="736" 
d="M787 189v23h-258v437h-276q-16 0 -31.5 -7.5t-28 -18t-20.5 -22t-8 -18.5v-221q9 -8 24 -16t31.5 -14.5t33 -10.5t29.5 -4l-151 -245q-20 -24 -45 -34.5t-67 -13.5h-85v-24h274l203 300h66v-189q0 -32 -4.5 -50t-17.5 -27t-35 -11t-56 -2v-21h164v189h258zM478 352h-107
q-39 0 -68 11t-48.5 30t-29 44t-9.5 53q0 60 40.5 91.5t112.5 31.5q13 0 29 -1t31.5 -2.5t28.5 -4t20 -5.5v-248z" />
    <glyph glyph-name="FL042Dh" horiz-adv-x="1000" 
d="M227 0l86 -38l6 47q14 -6 34.5 -11t44 -9t48 -6t46.5 -2q97 0 180.5 26.5t143.5 80.5v100h240v23h-205v148h31v154h22v28q-27 27 -74 55t-101.5 50.5t-110 37t-98.5 14.5q-30 0 -57.5 -6.5t-54.5 -14t-54 -13.5t-57 -6q-12 0 -20.5 4.5t-14.5 11.5t-9 14t-5 12l-33 -23
l37 -134h54q29 38 75.5 55.5t97.5 17.5q34 0 66.5 -7.5t59.5 -21.5t46 -33.5t26 -44.5h84v-284h-84q0 -50 -16 -87t-43 -61t-63.5 -36t-78.5 -12q-39 0 -69.5 9t-54 25.5t-41 38.5t-30.5 48l-4 6h-61l65 -116h-54v-17h-278v-23h278zM730 380h-219q-19 0 -36 4t-30 16
t-20.5 33.5t-7.5 56.5h-14v-263h14q0 51 19 78.5t73 27.5h221v47z" />
    <glyph glyph-name="FL042Ch" horiz-adv-x="749" 
d="M842 -36h-507q11 2 32 7.5t41.5 13t36 16t15.5 16.5v315q-28 17 -62 26.5t-72 9.5q-37 0 -72 -9.5t-63 -26.5v191q0 33 5 53.5t17.5 31.5t33 15t51.5 4v20h-135q4 14 5 22t5.5 11.5t16.5 4.5t38 1v21h-120v-191h26v-54h-235v-24h235v-474h-1v-24h709v24zM166 26v262
q10 5 28 8.5t38 5.5t38 3t27 1q27 0 50.5 -13.5t41 -36t27 -51t9.5 -58.5q0 -61 -38 -97t-102 -36q-8 0 -24.5 0.5t-35.5 2t-35.5 4t-23.5 5.5z" />
    <glyph glyph-name="FL042Ah" horiz-adv-x="918" 
d="M1011 -36h-507q11 2 32 7.5t41.5 13t36 16t15.5 16.5v315q-28 17 -62 26.5t-72 9.5q-37 0 -72 -9.5t-63 -26.5v191q0 33 5 53.5t17.5 31.5t33 15t51.5 4v20h-97q5 17 23.5 31.5t62.5 14.5h18v14h-442l-12 -171h12q8 46 24.5 71t37 36.5t42.5 13.5t42 2q12 0 29 -2
t32.5 -5t26.5 -7t11 -8v-121h26v-54h-385v-24h385v-474h-1v-24h709v24zM335 26v262q10 5 28 8.5t38 5.5t38 3t27 1q27 0 50.5 -13.5t41 -36t27 -51t9.5 -58.5q0 -61 -38 -97t-102 -36q-8 0 -24.5 0.5t-35.5 2t-35.5 4t-23.5 5.5z" />
    <glyph glyph-name="FL042Bh" horiz-adv-x="940" 
d="M917 -60v23h-21q-28 0 -52.5 2t-43 10.5t-29.5 26t-11 47.5v463q0 30 4.5 50t15.5 32t29 17t46 5h12v16h144v24h-254v-19h-243v-20h26q29 0 47.5 -5t29.5 -16.5t15 -31.5t4 -50v-447q0 -24 -5 -40t-14.5 -25.5t-23.5 -14.5t-33 -8v-15h-225q11 2 32 7.5t41.5 13t36 16
t15.5 16.5v315q-28 17 -62 26.5t-72 9.5q-37 0 -72 -9.5t-63 -26.5v191q0 33 5 53.5t17.5 31.5t33 15t51.5 4v20h-135q4 14 5 22t5.5 11.5t16.5 4.5t38 1v21h-120v-191h26v-54h-235v-24h235v-474h-1v-24h784zM166 26v262q10 5 28 8.5t38 5.5t38 3t27 1q27 0 50.5 -13.5
t41 -36t27 -51t9.5 -58.5q0 -61 -38 -97t-102 -36q-8 0 -24.5 0.5t-35.5 2t-35.5 4t-23.5 5.5z" />
    <glyph glyph-name="FL0404h" horiz-adv-x="1000" 
d="M777 0h278v23h-278v17h-54l65 116h-61l-4 -6q-14 -26 -31 -48t-40.5 -38.5t-54 -25.5t-69.5 -9q-42 0 -78.5 12t-63.5 36t-43 61t-16 87h-84v284h84q7 25 26 44.5t46 33.5t59.5 21.5t66.5 7.5q51 0 97.5 -17.5t75.5 -55.5h54l37 134l-33 23q-2 -5 -5 -12t-9 -14
t-14.5 -11.5t-20.5 -4.5q-30 0 -57 6t-54 13.5t-54.5 14t-57.5 6.5q-44 0 -99 -14.5t-109.5 -37t-101.5 -50.5t-74 -55v-28h22v-154h31v-148h-205v-23h240v-100q60 -54 143.5 -80.5t180.5 -26.5q22 0 46.5 2t48 6t44 9t34.5 11l6 -47zM274 380v-47h221q54 0 73 -27.5
t19 -78.5h14v263h-14q0 -35 -7.5 -56.5t-20.5 -33.5t-30 -16t-36 -4h-219z" />
    <glyph glyph-name="FL0454h" 
d="M997 191v24h-497v-24h497zM1096 647v23h-696v-23h696zM-54 0l454 1v23h-454v-24zM494 491h602v24h-602v-24zM706 339v24h-497v-24h497z" />
    <glyph glyph-name="FL0427h" horiz-adv-x="749" 
d="M315 707h-417v-24h383v-51h-192v-14h18q32 0 50 -8t26.5 -19.5t10.5 -24.5t2 -23h84v-208q28 -17 62 -26.5t72 -9.5q37 0 72 9.5t63 26.5v-211q0 -33 -5 -53.5t-17.5 -31.5t-33 -15t-51.5 -4v-20h135q-4 -14 -5 -22t-5.5 -11.5t-16.5 -4.5t-38 -1v-21h120v191h-26v54h235
v24h-235v409h86q0 10 2 23t10.5 24.5t26.5 19.5t50 8h18v14h-332v-14h18q28 0 45.5 -6.5t27 -16.5t12.5 -22t4 -22v-247q-10 -5 -28 -8.5t-38 -5.5t-38 -3t-27 -1q-27 0 -50.5 10.5t-41 29.5t-27 44t-9.5 55v61q1 10 5.5 20t14 18t26 13.5t42.5 5.5h18v14h-106v75z" />
    <glyph glyph-name="FL0426h" horiz-adv-x="1000" 
d="M674 -15q15 0 40.5 -4t51 -22t45 -54.5t21.5 -101.5h14l-8 234h-56q-8 0 -15.5 1t-13.5 5.5t-9.5 14.5t-3.5 28l-1 -2v367h323v26h-322v276h-190l-1 -20h23q28 0 46.5 -5t30 -17t16 -32t4.5 -50v-584h-331v463q0 30 4.5 50t15.5 32t30 17t48 5h1v24h-309v-24h19
q28 0 46.5 -5t29.5 -17t15.5 -32t4.5 -50v-223h-22v-118q0 -54 -21.5 -74t-63.5 -20h-34v-23h141v-25q0 -42 -18 -65.5t-57 -28.5h-222v-23h512v22h-22q-45 0 -66 12t-28 43h332z" />
    <glyph glyph-name="FL0429h" horiz-adv-x="1367" 
d="M1046 -42q15 0 40.5 -4t51 -22t45 -54.5t21.5 -101.5h16l-9 224h7v24h-34v21h-23q-24 0 -41 13.5t-28 22.5q-3 16 -3 39v358q0 24 16 38.5t43 21.5t61 9t70 2h172v25h-385q0 28 3.5 49t14 34.5t29 20t48.5 6.5h17v23h-193v-356h-57v-228q0 -23 -2 -37t-8 -21t-18.5 -9
t-33.5 -2h-156v36h-124v-36h-104q-21 0 -33.5 2t-18.5 9t-8 21t-2 37v228h-57v356h-193v-23h17q30 0 48.5 -6.5t29 -20t14 -34.5t3.5 -49h-165v-25l17 1q21 0 43 -5t40 -14.5t30 -22.5t12 -30v-358q0 -23 -3 -39q-11 -9 -28 -22.5t-41 -13.5h-23v-21h-264v-24h334
q-11 -9 -28 -12.5t-42 -3.5h-23v-26h405q-14 -6 -36 -9v-15h-148v-24h505v23h-21q-36 0 -66 4t-49 21h315zM710 482q0 30 4.5 50t15.5 32t29 17t46 5h12v16h144v24h-254v-19h-243v-20h26q29 0 47.5 -5t29.5 -16.5t15 -31.5t4 -50v-298h124v296z" />
    <glyph glyph-name="FL0428h" horiz-adv-x="1367" 
d="M867 -90v23h-21q-36 0 -66 4t-49 21h315l68 42h104v24h-34v21h-23q-24 0 -41 13.5t-28 22.5q-3 16 -3 39v358q0 24 16 38.5t43 21.5t61 9t70 2h172v25h-385q0 28 3.5 49t14 34.5t29 20t48.5 6.5h17v23h-193v-356h-57v-228q0 -23 -2 -37t-8 -21t-18.5 -9t-33.5 -2h-156
v428q0 30 4.5 50t15.5 32t29 17t46 5h12v16h144v24h-254v-19h-243v-20h26q29 0 47.5 -5t29.5 -16.5t15 -31.5t4 -50v-430h-104q-21 0 -33.5 2t-18.5 9t-8 21t-2 37v228h-57v356h-193v-23h17q30 0 48.5 -6.5t29 -20t14 -34.5t3.5 -49h-165v-25l17 1q21 0 43 -5t40 -14.5
t30 -22.5t12 -30v-358q0 -23 -3 -39q-11 -9 -28 -22.5t-41 -13.5h-23v-21h-264v-24h334q-11 -9 -28 -12.5t-42 -3.5h-23v-26h405q-14 -6 -36 -9v-15h-148v-24h505z" />
    <glyph glyph-name="FL0424h" horiz-adv-x="876" 
d="M435 725q36 0 72 -9h-3v-19h-243v-20h26q38 0 59 -9t29 -32q-30 -1 -74.5 -7t-91 -22.5t-89 -46.5t-68.5 -81h46v-291h-26q25 -33 62 -54.5t78 -35t83 -19t78 -5.5q-9 -17 -25.5 -24t-40.5 -11v-15h-368v-24h725v23h-21q-28 0 -52.5 2t-43 10.5t-29.5 26t-11 47.5v4h5
q75 0 140.5 25t114.5 73t77.5 117.5t28.5 157.5l-72 -19v6q0 61 -22.5 118.5t-76.5 100.5h226v24h-263q-42 23 -98.5 36t-131.5 14v-41zM383 574v-395q-57 22 -97 60.5t-65 83.5l-23 -15q36 -72 83.5 -113t101.5 -61v-18q-36 0 -77 10.5t-75.5 36.5t-57 69.5t-22.5 109.5
q0 68 21 116t54 78.5t74 44.5t82 14q1 -5 1 -11v-10zM507 572q0 56 16.5 78.5t63.5 24.5q32 -26 54.5 -67t28.5 -99h75l-14 -52l-61 -23q-5 -45 -21.5 -77t-39.5 -53t-50 -33t-52 -18v140l-77 -20l27 136h50v63zM507 207q42 4 84.5 15.5t80.5 31.5q-28 -40 -68.5 -66
t-96.5 -29v48z" />
    <glyph glyph-name="FL0457h" 
d="M1098 366v24h-497v-24h497zM619 556v23h-696v-23h696zM647 -2l454 1v23h-454v-24zM-80 369h602v24h-602v-24zM639 172v24h-497v-24h497z" />
    <glyph glyph-name="FL0423h" horiz-adv-x="903" 
d="M954 0v23h-402q-27 0 -45 4t-29.5 14.5t-17 27.5t-5.5 43h25v186h-48l68 90v75l-73 -71q-54 77 -84.5 121.5t-45 67.5t-18 31t-3.5 13q0 8 6.5 13.5t17.5 8.5t25 4.5t29 1.5v24h-503v-24h222q13 -1 23.5 -6t21.5 -15t24.5 -26t32.5 -39l159 -229h42v-167h-16v-281h141v23
h-23q-53 0 -74.5 18.5t-22.5 68.5h573zM950 685v23h-403v-25q50 0 82.5 -3.5t32.5 -22.5l-135 -167h2v-67l141 169q19 23 36 40.5t34 29t35 17.5t40 6h135z" />
    <glyph glyph-name="FL041Bh" horiz-adv-x="828" 
d="M550 415h53v72h25v85q0 30 4.5 50t15.5 32t29 17t46 5h12v16h84v24h-194v-19h-324v19l-116 11v-14q22 0 40 -3.5t31 -12.5h-314v-21h333q3 -8 5 -16t2 -19v-290q0 -93 -8.5 -150.5t-22 -89t-29 -42t-29.5 -10.5q-11 0 -20.5 6.5t-18.5 12.5t-21 12.5t-27 6.5
q-26 0 -39 -18.5t-13 -37.5q0 -12 4.5 -23.5t15 -21t27 -15.5t40.5 -6q45 0 76.5 19.5t52 52.5t32.5 76.5t17.5 92t7 99t1.5 96.5v265h81q29 0 47.5 -4.5t29 -16.5t14.5 -31.5t4 -49.5v-447q0 -24 -5 -40t-14.5 -25.5t-23.5 -14.5t-33 -8v-15h-72v-24h529v23h-121
q-28 0 -52.5 2t-43 10.5t-29.5 26t-11 47.5v69h-78v237z" />
    <glyph glyph-name="FL0414h" horiz-adv-x="828" 
d="M743 -136h64v111h78v48h-121q-28 0 -52.5 2t-43 10.5t-29.5 26t-11 47.5v69h-78v237h53v72h25v85q0 30 4.5 50t15.5 32t29 17t46 5h12v16h84v24h-194v-19h-324v19l-116 11v-14q22 0 40 -3.5t31 -12.5h-314v-21h333q3 -8 5 -16t2 -19v-290q0 -65 -10.5 -114.5t-33.5 -88
t-60 -68.5t-90 -56h-142v-49h65l-12 -180h14q5 52 23 86t42 54t50.5 28.5t49.5 11.5h565v-111zM328 411v265h81q29 0 47.5 -4.5t29 -16.5t14.5 -31.5t4 -49.5v-447q0 -24 -5 -40t-14.5 -25.5t-23.5 -14.5t-33 -8v-15h-176q27 31 42 76t22.5 97t9.5 107.5t2 106.5z" />
    <glyph glyph-name="FL0417h" horiz-adv-x="950" 
d="M641 476q6 21 6 47q0 23 -7 44.5t-20 40.5q20 0 46 -9t52 -44v124h-206q-32 8 -68 8q-22 0 -39.5 -2t-32.5 -6h-11v58h-408v-24h272q24 0 37.5 -10t23.5 -24h-45v2h-14l21 -24q-8 -6 -16 -20.5t-15 -31.5t-11.5 -31.5t-4.5 -20.5q0 -32 20 -72h14q2 24 13.5 58t40.5 60
q16 14 40 25h135q35 -15 55 -44.5t20 -70.5q0 -36 -12 -68.5t-41 -55.5h-36l11 -15q-21 -10 -46 -14v-13h45v-47h134v25q26 -9 45 -27.5t32.5 -42.5t21.5 -51.5t13 -53.5h-95q-4 -31 -16.5 -48t-32 -25.5t-46.5 -10.5t-60 -2q-8 0 -26.5 6t-41 14.5t-46 18t-41.5 17.5v-92
h-352v-24h352v-38h43v38h180q84 0 135 31.5t74 76.5v77h266v24h-266v75q-5 6 -14.5 16t-21.5 21t-25 21t-23 15q11 2 31.5 12.5t37.5 21.5v85h-77z" />
    <glyph glyph-name="FL2116h" 
d="M-54 0h467v27h-30q-28 0 -46.5 5t-29.5 17t-15.5 32t-4.5 50v390l147 -147h-64l381 -380v194h346v23h-118q15 8 27.5 20.5t23.5 27.5v169h24v158q-21 32 -51 51t-65 19q-25 0 -48.5 -10.5t-42.5 -29t-33 -43.5t-20 -54h42v-82h-24v-191q18 -21 41 -35h-125v84h-25v-100
l-139 141h77l-312 311h-202v-25q17 0 36.5 -2t36 -6.5t27 -11t10.5 -16.5v-447q0 -51 -20 -68.5t-65 -17.5h-38v-30h-168v-23zM751 583q0 28 4.5 44t14.5 23t26 8.5t40 1.5h260v24h-426v-208h32v-140h49v247zM940 527q39 0 50 -90h-30q-3 -17 -7.5 -37.5t-10.5 -37.5
t-13 -28.5t-15 -11.5t-15 10t-13 25.5t-10.5 34.5t-7.5 36h22q7 99 50 99zM916 225q-36 0 -47 74q21 -9 45 -9q23 0 50 11q-10 -76 -48 -76zM940 559q-23 0 -50 -11q12 76 48 76t48 -75q-21 10 -46 10z" />
    <glyph glyph-name="afii10017" unicode="&#x410;" horiz-adv-x="946" 
d="M668 309l-161 288h-64v-30h-494v-23h382l-197 -402q-26 -54 -54 -85t-63 -32v-25h157v18q-19 0 -26 6.5t-7 16.5q0 8 2.5 16t6.5 16l62 118h310q16 -36 26 -60.5t15 -40t7 -24t2 -13.5q0 -18 -14 -26t-58 -9v-18h499v24q-18 1 -56 3.5t-82 7t-87.5 11.5t-72.5 19
l-118 244h85zM504 221h-274l130 275z" />
    <glyph glyph-name="afii10018" unicode="&#x411;" horiz-adv-x="950" 
d="M337 385v239h210q72 0 104.5 -19.5t32.5 -58.5h34v133h-357v58h-408v-24h272q24 0 37.5 -10t23.5 -24h-51v-29q32 0 47 -0.5t22 -2.5v-113h-19v-191h45v-153h-53v-112h24v-54h-352v-24h352v-38h43v38h180q84 0 134.5 31.5t74.5 76.5v77h266v24h-266v75q-18 29 -48.5 48.5
t-68 31t-80.5 16.5t-87 5h-112zM464 329h85q38 0 65.5 -17t46 -43t29.5 -59t16 -64h-95q-4 -31 -16.5 -48t-32 -25.5t-46.5 -10.5t-60 -2q-24 0 -47 1t-40 6v229h95v33z" />
    <glyph glyph-name="afii10019" unicode="&#x412;" horiz-adv-x="950" 
d="M361 679v58h-408v-24h272q24 0 37.5 -10t23.5 -24h-51v-29q32 0 47 -0.5t22 -2.5v-113h-19v-191h45v-153h-53v-112h24v-54h-352v-24h352v-38h43v38h180q84 0 134.5 31.5t74.5 76.5v77h266v24h-266v75q-5 6 -14.5 16t-21.5 21t-25 21t-23 15q11 2 31.5 12.5t37.5 21.5v288
h-357zM464 329h85q38 0 65.5 -17t46 -43t29.5 -59t16 -64h-95q-4 -31 -16.5 -48t-32 -25.5t-46.5 -10.5t-60 -2q-24 0 -47 1t-40 6v229h95v33zM337 385v239h210q72 0 103.5 -39.5t33.5 -108.5h-84q-15 -45 -54 -68t-97 -23h-112z" />
    <glyph glyph-name="afii10020" unicode="&#x413;" horiz-adv-x="897" 
d="M438 350v265h113q27 0 48.5 -3.5t38 -15.5t29 -33.5t21.5 -57.5h26v149q14 -10 21.5 -29t7.5 -51h24v144h-91v-48h-732v-24h120q15 0 24.5 -8t14.5 -18.5t7 -21.5t2 -18h231v-371h-394v-24h394v-101q-3 -20 -9.5 -31.5t-18 -17.5t-28.5 -7.5t-40 -1.5h-27v-26h141v-188
h221v31h-64q-48 0 -69 15.5t-25 58.5v262l14 1v170z" />
    <glyph glyph-name="afii10021" unicode="&#x414;" horiz-adv-x="828" 
d="M743 -136h64v111h78v48h-121q-28 0 -52.5 2t-43 10.5t-29.5 26t-11 47.5v69h-78v237h53v72h25v85q0 30 4.5 50t15.5 32t29 17t46 5h12v16h84v24h-194v-19h-324v19l-116 11v-14q22 0 40 -3.5t31 -12.5h-314v-21h333q3 -8 5 -16t2 -19v-290q0 -65 -10.5 -114.5t-33.5 -88
t-60 -68.5t-90 -56h-142v-49h65l-12 -180h14q5 52 23 86t42 54t50.5 28.5t49.5 11.5h565v-111zM328 411v265h81q29 0 47.5 -4.5t29 -16.5t14.5 -31.5t4 -49.5v-447q0 -24 -5 -40t-14.5 -25.5t-23.5 -14.5t-33 -8v-15h-176q27 31 42 76t22.5 97t9.5 107.5t2 106.5z" />
    <glyph glyph-name="afii10022" unicode="&#x415;" horiz-adv-x="997" 
d="M-57 -1h399v14h136v-36h261v52h312v23h-312v1h-300q-19 0 -30 2.5t-17 9.5t-8 19.5t-2 33.5v182h133v-29h157v110h-22q0 -20 -6.5 -31.5t-20 -17.5t-34.5 -7.5t-51 -1.5v31h-156v281h140v-32h67q22 0 40 -4t33 -15t27.5 -31t23.5 -52h21v156h-123v50h-661v-23h214v-1
q30 0 50 -7t31.5 -21.5t16 -37.5t4.5 -56v-435q0 -32 -4.5 -52.5t-16.5 -32t-31.5 -15.5t-49.5 -4h-221v-23z" />
    <glyph glyph-name="afii10024" unicode="&#x416;" horiz-adv-x="1499" 
d="M-9 598v-25h58q38 -4 82.5 -17.5t92.5 -54.5l262 -260q-102 -105 -172.5 -173t-116.5 -108t-71 -56.5t-35 -17.5v-32h221v4h179v24h-179v16q-71 0 -71 13q0 8 22 24h121l1 20q-43 0 -60 6t-17 14q0 6 7 13l264 259v-118q0 -30 -4.5 -50t-15.5 -32t-29.5 -17t-46.5 -5h-16
v-25h188l3 2q0 -31 -3 -51.5t-10 -33t-19.5 -17.5t-30.5 -5h-10v-32h257v32q-23 0 -37 5t-22.5 17.5t-11.5 33t-3 51.5v112h-99v45h63v169q61 -57 103.5 -97t70.5 -67t44.5 -43t24.5 -24.5t11 -11.5l5 -5l19 -30q0 -14 -14 -19.5t-55 -5.5v-25h108q4 -7 4 -15q0 -14 -9 -20
t-36 -6v-32h246v32q-17 2 -33.5 12t-36.5 30h373v25h-288q-38 4 -82.5 17.5t-92.5 54.5l-262 260q102 105 172.5 173t116.5 108t71 56.5t35 17.5v32h-221v-4h-659v-24h659v-16q71 0 71 -13q0 -8 -22 -24h-121l-1 -20q43 0 60 -6t17 -14q0 -6 -7 -13l-271 -266v217
q0 36 9.5 54t39.5 18h15v32h-134v-104h-120v-2h-194v-25h194q43 0 58.5 -23.5t15.5 -87.5v-31h-37v-116q-59 55 -100.5 94.5t-69 65.5t-43 41.5t-23.5 24t-11 11.5l-5 5l-19 30q0 14 14 19.5t55 5.5v25h-108q-4 7 -4 15q0 14 9 20t36 6v32h-246v-32q17 -2 33.5 -12t36.5 -30
h-143z" />
    <glyph glyph-name="afii10025" unicode="&#x417;" horiz-adv-x="950" 
d="M641 476q6 21 6 47q0 23 -7 44.5t-20 40.5q20 0 46 -9t52 -44v124h-206q-32 8 -68 8q-22 0 -39.5 -2t-32.5 -6h-11v58h-408v-24h272q24 0 37.5 -10t23.5 -24h-45v2h-14l21 -24q-8 -6 -16 -20.5t-15 -31.5t-11.5 -31.5t-4.5 -20.5q0 -32 20 -72h14q2 24 13.5 58t40.5 60
q16 14 40 25h135q35 -15 55 -44.5t20 -70.5q0 -36 -12 -68.5t-41 -55.5h-36l11 -15q-21 -10 -46 -14v-13h45v-47h134v25q26 -9 45 -27.5t32.5 -42.5t21.5 -51.5t13 -53.5h-95q-4 -31 -16.5 -48t-32 -25.5t-46.5 -10.5t-60 -2q-8 0 -26.5 6t-41 14.5t-46 18t-41.5 17.5v-92
h-352v-24h352v-38h43v38h180q84 0 135 31.5t74 76.5v77h266v24h-266v75q-5 6 -14.5 16t-21.5 21t-25 21t-23 15q11 2 31.5 12.5t37.5 21.5v85h-77z" />
    <glyph glyph-name="afii10026" unicode="&#x418;" horiz-adv-x="1000" 
d="M739 451h323v26h-322v276h-190l-1 -20h23q28 0 46.5 -5t30 -17t16 -32t4.5 -50v-70l-331 -212v161q0 30 4.5 50t15.5 32t30 17t48 5h1v24h-309v-24h19q28 0 46.5 -5t29.5 -17t15.5 -32t4.5 -50v-223h-22v-118q0 -54 -21.5 -74t-63.5 -20h-34v-23h141v-25q0 -42 -18 -65.5
t-57 -28.5h-222v-23h512v22h-22q-29 0 -48 5t-30 16.5t-15.5 31.5t-4.5 50v254l331 219v-522h70v467z" />
    <glyph glyph-name="afii10027" unicode="&#x419;" horiz-adv-x="1000" 
d="M739 451h323v26h-322v276h-190l-1 -20h23q28 0 46.5 -5t30 -17t16 -32t4.5 -50v-70l-331 -212v161q0 30 4.5 50t15.5 32t30 17t48 5h1v24h-309v-24h19q28 0 46.5 -5t29.5 -17t15.5 -32t4.5 -50v-223h-22v-118q0 -54 -21.5 -74t-63.5 -20h-34v-23h141v-25q0 -42 -18 -65.5
t-57 -28.5h-222v-23h512v22h-22q-29 0 -48 5t-30 16.5t-15.5 31.5t-4.5 50v254l331 219v-522h70v467zM653 900q-4 -42 -24 -65.5t-55 -23.5q-15 0 -35.5 5.5t-42.5 14t-44.5 19t-41.5 19.5v-89h-144q-20 -21 -32.5 -54.5t-12.5 -82.5h33q7 45 26 66t54 21q24 0 55.5 -11.5
t65.5 -26.5v65h180q27 26 39 61t12 82h-33z" />
    <glyph glyph-name="afii10028" unicode="&#x41a;" horiz-adv-x="1100" 
d="M1158 1v25h-288q-38 4 -82.5 17.5t-92.5 54.5l-262 260q102 105 172.5 173t116.5 108t71 56.5t35 17.5v32h-221v-4h-659v-24h659v-16q71 0 71 -13q0 -8 -22 -24h-121l-1 -20q43 0 60 -6t17 -14q0 -6 -7 -13l-271 -266v217q0 36 9.5 54t39.5 18h15v32h-134v-104h-120v-2
h-194v-25h194q43 0 58.5 -23.5t15.5 -87.5v-31h-37v-264q0 -30 -4.5 -50t-15.5 -32t-29.5 -17t-46.5 -5h-16v-25h188l3 2q0 -31 -3 -51.5t-10 -33t-19.5 -17.5t-30.5 -5h-10v-32h257v32q-23 0 -37 5t-22.5 17.5t-11.5 33t-3 51.5v112h-99v45h63v169q61 -57 103.5 -97
t70.5 -67t44.5 -43t24.5 -24.5t11 -11.5l5 -5l19 -30q0 -14 -14 -19.5t-55 -5.5v-25h108q4 -7 4 -15q0 -14 -9 -20t-36 -6v-32h246v32q-17 2 -33.5 12t-36.5 30h373z" />
    <glyph glyph-name="afii10029" unicode="&#x41b;" horiz-adv-x="828" 
d="M550 415h53v72h25v85q0 30 4.5 50t15.5 32t29 17t46 5h12v16h84v24h-194v-19h-324v19l-116 11v-14q22 0 40 -3.5t31 -12.5h-314v-21h333q3 -8 5 -16t2 -19v-290q0 -93 -8.5 -150.5t-22 -89t-29 -42t-29.5 -10.5q-11 0 -20.5 6.5t-18.5 12.5t-21 12.5t-27 6.5
q-26 0 -39 -18.5t-13 -37.5q0 -12 4.5 -23.5t15 -21t27 -15.5t40.5 -6q45 0 76.5 19.5t52 52.5t32.5 76.5t17.5 92t7 99t1.5 96.5v265h81q29 0 47.5 -4.5t29 -16.5t14.5 -31.5t4 -49.5v-447q0 -24 -5 -40t-14.5 -25.5t-23.5 -14.5t-33 -8v-15h-72v-24h529v23h-121
q-28 0 -52.5 2t-43 10.5t-29.5 26t-11 47.5v69h-78v237z" />
    <glyph glyph-name="afii10030" unicode="&#x41c;" horiz-adv-x="1051" 
d="M2 -131v-17h212v329h26v380h2l285 -562l266 572h2v-435q0 -61 -19.5 -90t-75.5 -29h-20v-17h195v543h224v24h-224v106h-92l-224 -458l-246 458h-71v69h-258v-22h16q50 0 87 -8t51 -39h-107v-26h16q30 0 49 -5t29.5 -17t14.5 -31t4 -46v-559q0 -54 -24 -85.5t-71 -34.5
h-47z" />
    <glyph glyph-name="afii10031" unicode="&#x41d;" horiz-adv-x="1000" 
d="M739 211v467h-70v-303h-331v254q0 30 4.5 50t15.5 31.5t30 16.5t48 5h22v22h-512v-23h222q39 -5 57 -28.5t18 -65.5v-25h-141v-23h34q42 0 63.5 -20t21.5 -74v-118h22v-223q0 -30 -4.5 -50t-15.5 -32t-29.5 -17t-46.5 -5h-19v-24h309v24h-1q-29 0 -48 5t-30 17t-15.5 32
t-4.5 50v161h331v-282q0 -30 -4.5 -50t-16 -32t-30 -17t-46.5 -5h-23l1 -20h190v276h322v26h-323z" />
    <glyph glyph-name="afii10032" unicode="&#x41e;" horiz-adv-x="1000" 
d="M-43 290h233v-158q48 -66 124 -106.5t169 -43.5v44q43 0 82.5 12.5t74.5 34.5t64 51.5t52 62.5h295v23h-288v345q-23 37 -56 68t-72 54t-83.5 36t-90.5 13v-43q-43 0 -82.5 -11.5t-74 -32t-63.5 -48t-51 -58.5v-220h-233v-23zM280 333q0 68 13 116.5t37.5 80.5t60.5 48.5
t83 21.5v76q44 -6 87 -29.5t76.5 -62t54.5 -91.5t21 -118q0 -69 -21.5 -123t-57 -93t-81 -61t-92.5 -26v-41q-88 14 -134.5 91.5t-46.5 210.5z" />
    <glyph glyph-name="afii10033" unicode="&#x41f;" horiz-adv-x="1000" 
d="M739 211v466h-397q7 31 28 43t66 12h22v22h-512v-23h222q39 -5 57 -28.5t18 -65.5v-25h-141v-23h34q42 0 63.5 -20t21.5 -74v-118h22v-223q0 -30 -4.5 -50t-15.5 -32t-29.5 -17t-46.5 -5h-19v-24h309v24h-1q-29 0 -48 5t-30 17t-15.5 32t-4.5 50v463h331v-584
q0 -30 -4.5 -50t-16 -32t-30 -17t-46.5 -5h-23l1 -20h190v276h322v26h-323z" />
    <glyph glyph-name="afii10034" unicode="&#x420;" horiz-adv-x="749" 
d="M842 683v24h-709v-24h1v-474h-235v-24h235v-54h-26v-191h120v21q-26 0 -38 1t-16.5 4.5t-5.5 11.5t-5 22h135v20q-31 0 -51.5 4t-33 15t-17.5 31.5t-5 53.5v211q28 -17 63 -26.5t72 -9.5q38 0 72 9.5t62 26.5v295q0 8 -13 16.5t-32.5 16t-41 13t-38.5 7.5h507zM166 621
q7 3 23.5 5t35.5 3.5t35.5 2.5t24.5 1q64 0 102 -36t38 -97q0 -30 -9.5 -55t-27 -44t-41 -29.5t-50.5 -10.5q-9 0 -27 1t-38 3t-38 5.5t-28 8.5v242z" />
    <glyph glyph-name="afii10035" unicode="&#x421;" horiz-adv-x="1000" 
d="M779 0h278v23h-278v18h-43v33h-48v-2q-35 -21 -75.5 -32t-82.5 -11t-78.5 12t-63.5 36.5t-43 61.5t-16 86h-84v284h84q7 25 26 44.5t46 33.5t59.5 21.5t66.5 7.5q51 0 97.5 -17.5t75.5 -55.5h54l37 134l-33 23q-2 -5 -5 -12t-9 -14t-14.5 -11.5t-20.5 -4.5q-30 0 -57 6
t-54 13.5t-54.5 14t-57.5 6.5q-44 0 -99 -14.5t-109.5 -37t-101.5 -50.5t-74 -55v-28h22v-154h31v-148h-205v-23h240v-100q60 -54 143.5 -80.5t180.5 -26.5q45 0 90.5 6t88.5 17v-42z" />
    <glyph glyph-name="afii10036" unicode="&#x422;" horiz-adv-x="703" 
d="M-49 1h312q-11 -17 -31 -20.5t-45 -3.5h-25v-20h180v61h190v22h-20q-29 0 -47.5 6t-29.5 19t-15 34.5t-4 51.5v38h346v23h-346v433h112q32 0 52.5 -4t32.5 -15.5t17.5 -30.5t8.5 -49h20v135h-357v-38h-267v-152h19q0 28 3.5 50t14.5 37t31 22.5t53 7.5h124v-492
q0 -28 -0.5 -45t-1 -26.5t-1 -14t-1.5 -7.5h-325v-22z" />
    <glyph glyph-name="afii10037" unicode="&#x423;" horiz-adv-x="903" 
d="M954 0v23h-402q-27 0 -45 4t-29.5 14.5t-17 27.5t-5.5 43h25v186h-48l68 90v75l-73 -71q-54 77 -84.5 121.5t-45 67.5t-18 31t-3.5 13q0 8 6.5 13.5t17.5 8.5t25 4.5t29 1.5v24h-503v-24h222q13 -1 23.5 -6t21.5 -15t24.5 -26t32.5 -39l159 -229h42v-167h-16v-281h141v23
h-23q-53 0 -74.5 18.5t-22.5 68.5h573zM950 685v23h-403v-25q50 0 82.5 -3.5t32.5 -22.5l-135 -167h2v-67l141 169q19 23 36 40.5t34 29t35 17.5t40 6h135z" />
    <glyph glyph-name="afii10038" unicode="&#x424;" horiz-adv-x="876" 
d="M435 725q36 0 72 -9h-3v-19h-243v-20h26q38 0 59 -9t29 -32q-30 -1 -74.5 -7t-91 -22.5t-89 -46.5t-68.5 -81h46v-291h-26q25 -33 62 -54.5t78 -35t83 -19t78 -5.5q-9 -17 -25.5 -24t-40.5 -11v-15h-368v-24h725v23h-21q-28 0 -52.5 2t-43 10.5t-29.5 26t-11 47.5v4h5
q75 0 140.5 25t114.5 73t77.5 117.5t28.5 157.5l-72 -19v6q0 61 -22.5 118.5t-76.5 100.5h226v24h-263q-42 23 -98.5 36t-131.5 14v-41zM383 574v-395q-57 22 -97 60.5t-65 83.5l-23 -15q36 -72 83.5 -113t101.5 -61v-18q-36 0 -77 10.5t-75.5 36.5t-57 69.5t-22.5 109.5
q0 68 21 116t54 78.5t74 44.5t82 14q1 -5 1 -11v-10zM507 572q0 56 16.5 78.5t63.5 24.5q32 -26 54.5 -67t28.5 -99h75l-14 -52l-61 -23q-5 -45 -21.5 -77t-39.5 -53t-50 -33t-52 -18v140l-77 -20l27 136h50v63zM507 207q42 4 84.5 15.5t80.5 31.5q-28 -40 -68.5 -66
t-96.5 -29v48z" />
    <glyph glyph-name="afii10039" unicode="&#x425;" horiz-adv-x="951" 
d="M-56 690h171q36 -8 80.5 -34.5t87.5 -83.5l152 -180h-86l46 -48l-135 -218q-24 -31 -43 -53t-36.5 -37t-36 -23t-42.5 -11v-24h262v24q-35 0 -57.5 4.5t-22.5 25.5q0 14 10 45.5t31 70.5l96 151l176 -192q24 -33 31.5 -47.5t7.5 -24.5q0 -18 -13 -26t-50 -8v-23h309v23
q-25 1 -59.5 25t-66.5 69l-248 296l55 2l-177 208q-17 19 -25 35t-8 25q0 17 15 25t50 9v21h-474v-26zM640 398q39 49 71 100t60 93t54.5 70t55.5 33l1 24h-223l-1 -22q33 -1 45.5 -18t12.5 -42q0 -26 -9.5 -55t-20.5 -52l-85 -131h39z" />
    <glyph glyph-name="afii10040" unicode="&#x426;" horiz-adv-x="1000" 
d="M674 -15q15 0 40.5 -4t51 -22t45 -54.5t21.5 -101.5h14l-8 234h-56q-8 0 -15.5 1t-13.5 5.5t-9.5 14.5t-3.5 28l-1 -2v367h323v26h-322v276h-190l-1 -20h23q28 0 46.5 -5t30 -17t16 -32t4.5 -50v-584h-331v463q0 30 4.5 50t15.5 32t30 17t48 5h1v24h-309v-24h19
q28 0 46.5 -5t29.5 -17t15.5 -32t4.5 -50v-223h-22v-118q0 -54 -21.5 -74t-63.5 -20h-34v-23h141v-25q0 -42 -18 -65.5t-57 -28.5h-222v-23h512v22h-22q-45 0 -66 12t-28 43h332z" />
    <glyph glyph-name="afii10041" unicode="&#x427;" horiz-adv-x="749" 
d="M315 707h-417v-24h383v-51h-192v-14h18q32 0 50 -8t26.5 -19.5t10.5 -24.5t2 -23h84v-208q28 -17 62 -26.5t72 -9.5q37 0 72 9.5t63 26.5v-211q0 -33 -5 -53.5t-17.5 -31.5t-33 -15t-51.5 -4v-20h135q-4 -14 -5 -22t-5.5 -11.5t-16.5 -4.5t-38 -1v-21h120v191h-26v54h235
v24h-235v409h86q0 10 2 23t10.5 24.5t26.5 19.5t50 8h18v14h-332v-14h18q28 0 45.5 -6.5t27 -16.5t12.5 -22t4 -22v-247q-10 -5 -28 -8.5t-38 -5.5t-38 -3t-27 -1q-27 0 -50.5 10.5t-41 29.5t-27 44t-9.5 55v61q1 10 5.5 20t14 18t26 13.5t42.5 5.5h18v14h-106v75z" />
    <glyph glyph-name="afii10042" unicode="&#x428;" horiz-adv-x="1367" 
d="M867 -90v23h-21q-36 0 -66 4t-49 21h315l68 42h104v24h-34v21h-23q-24 0 -41 13.5t-28 22.5q-3 16 -3 39v358q0 24 16 38.5t43 21.5t61 9t70 2h172v25h-385q0 28 3.5 49t14 34.5t29 20t48.5 6.5h17v23h-193v-356h-57v-228q0 -23 -2 -37t-8 -21t-18.5 -9t-33.5 -2h-156
v428q0 30 4.5 50t15.5 32t29 17t46 5h12v16h144v24h-254v-19h-243v-20h26q29 0 47.5 -5t29.5 -16.5t15 -31.5t4 -50v-430h-104q-21 0 -33.5 2t-18.5 9t-8 21t-2 37v228h-57v356h-193v-23h17q30 0 48.5 -6.5t29 -20t14 -34.5t3.5 -49h-165v-25l17 1q21 0 43 -5t40 -14.5
t30 -22.5t12 -30v-358q0 -23 -3 -39q-11 -9 -28 -22.5t-41 -13.5h-23v-21h-264v-24h334q-11 -9 -28 -12.5t-42 -3.5h-23v-26h405q-14 -6 -36 -9v-15h-148v-24h505z" />
    <glyph glyph-name="afii10043" unicode="&#x429;" horiz-adv-x="1367" 
d="M1046 -42q15 0 40.5 -4t51 -22t45 -54.5t21.5 -101.5h16l-9 224h7v24h-34v21h-23q-24 0 -41 13.5t-28 22.5q-3 16 -3 39v358q0 24 16 38.5t43 21.5t61 9t70 2h172v25h-385q0 28 3.5 49t14 34.5t29 20t48.5 6.5h17v23h-193v-356h-57v-228q0 -23 -2 -37t-8 -21t-18.5 -9
t-33.5 -2h-156v36h-124v-36h-104q-21 0 -33.5 2t-18.5 9t-8 21t-2 37v228h-57v356h-193v-23h17q30 0 48.5 -6.5t29 -20t14 -34.5t3.5 -49h-165v-25l17 1q21 0 43 -5t40 -14.5t30 -22.5t12 -30v-358q0 -23 -3 -39q-11 -9 -28 -22.5t-41 -13.5h-23v-21h-264v-24h334
q-11 -9 -28 -12.5t-42 -3.5h-23v-26h405q-14 -6 -36 -9v-15h-148v-24h505v23h-21q-36 0 -66 4t-49 21h315zM710 482q0 30 4.5 50t15.5 32t29 17t46 5h12v16h144v24h-254v-19h-243v-20h26q29 0 47.5 -5t29.5 -16.5t15 -31.5t4 -50v-298h124v296z" />
    <glyph glyph-name="afii10044" unicode="&#x42a;" horiz-adv-x="918" 
d="M1011 -36h-507q11 2 32 7.5t41.5 13t36 16t15.5 16.5v315q-28 17 -62 26.5t-72 9.5q-37 0 -72 -9.5t-63 -26.5v191q0 33 5 53.5t17.5 31.5t33 15t51.5 4v20h-97q5 17 23.5 31.5t62.5 14.5h18v14h-442l-12 -171h12q8 46 24.5 71t37 36.5t42.5 13.5t42 2q12 0 29 -2
t32.5 -5t26.5 -7t11 -8v-121h26v-54h-385v-24h385v-474h-1v-24h709v24zM335 26v262q10 5 28 8.5t38 5.5t38 3t27 1q27 0 50.5 -13.5t41 -36t27 -51t9.5 -58.5q0 -61 -38 -97t-102 -36q-8 0 -24.5 0.5t-35.5 2t-35.5 4t-23.5 5.5z" />
    <glyph glyph-name="afii10045" unicode="&#x42b;" horiz-adv-x="940" 
d="M917 -60v23h-21q-28 0 -52.5 2t-43 10.5t-29.5 26t-11 47.5v463q0 30 4.5 50t15.5 32t29 17t46 5h12v16h144v24h-254v-19h-243v-20h26q29 0 47.5 -5t29.5 -16.5t15 -31.5t4 -50v-447q0 -24 -5 -40t-14.5 -25.5t-23.5 -14.5t-33 -8v-15h-225q11 2 32 7.5t41.5 13t36 16
t15.5 16.5v315q-28 17 -62 26.5t-72 9.5q-37 0 -72 -9.5t-63 -26.5v191q0 33 5 53.5t17.5 31.5t33 15t51.5 4v20h-135q4 14 5 22t5.5 11.5t16.5 4.5t38 1v21h-120v-191h26v-54h-235v-24h235v-474h-1v-24h784zM166 26v262q10 5 28 8.5t38 5.5t38 3t27 1q27 0 50.5 -13.5
t41 -36t27 -51t9.5 -58.5q0 -61 -38 -97t-102 -36q-8 0 -24.5 0.5t-35.5 2t-35.5 4t-23.5 5.5z" />
    <glyph glyph-name="afii10046" unicode="&#x42c;" horiz-adv-x="749" 
d="M842 -36h-507q11 2 32 7.5t41.5 13t36 16t15.5 16.5v315q-28 17 -62 26.5t-72 9.5q-37 0 -72 -9.5t-63 -26.5v191q0 33 5 53.5t17.5 31.5t33 15t51.5 4v20h-135q4 14 5 22t5.5 11.5t16.5 4.5t38 1v21h-120v-191h26v-54h-235v-24h235v-474h-1v-24h709v24zM166 26v262
q10 5 28 8.5t38 5.5t38 3t27 1q27 0 50.5 -13.5t41 -36t27 -51t9.5 -58.5q0 -61 -38 -97t-102 -36q-8 0 -24.5 0.5t-35.5 2t-35.5 4t-23.5 5.5z" />
    <glyph glyph-name="afii10047" unicode="&#x42d;" horiz-adv-x="1000" 
d="M227 0l86 -38l6 47q14 -6 34.5 -11t44 -9t48 -6t46.5 -2q97 0 180.5 26.5t143.5 80.5v100h240v23h-205v148h31v154h22v28q-27 27 -74 55t-101.5 50.5t-110 37t-98.5 14.5q-30 0 -57.5 -6.5t-54.5 -14t-54 -13.5t-57 -6q-12 0 -20.5 4.5t-14.5 11.5t-9 14t-5 12l-33 -23
l37 -134h54q29 38 75.5 55.5t97.5 17.5q34 0 66.5 -7.5t59.5 -21.5t46 -33.5t26 -44.5h84v-284h-84q0 -50 -16 -87t-43 -61t-63.5 -36t-78.5 -12q-39 0 -69.5 9t-54 25.5t-41 38.5t-30.5 48l-4 6h-61l65 -116h-54v-17h-278v-23h278zM730 380h-219q-19 0 -36 4t-30 16
t-20.5 33.5t-7.5 56.5h-14v-263h14q0 51 19 78.5t73 27.5h221v47z" />
    <glyph glyph-name="afii10048" unicode="&#x42e;" horiz-adv-x="1311" 
d="M461 0v23h-21q-28 0 -52.5 2t-43 10.5t-29.5 26t-11 47.5v181h197v-158q48 -66 124 -106.5t169 -43.5v44q87 8 157.5 51t115.5 110h295v23h-288v345q-47 74 -126 119.5t-176 51.5v-43q-87 -8 -156.5 -47.5t-114.5 -102.5v-220h-197v259q0 30 4.5 50t15.5 32t29 17t46 5
h12v16h144v24h-254v-19h-243v-20h26q29 0 47.5 -5t29.5 -16.5t15 -31.5t4 -50v-447q0 -24 -5 -40t-14.5 -25.5t-23.5 -14.5t-33 -8v-15h-148v-24h505zM591 333q0 68 13 116.5t37.5 80.5t60.5 48.5t83 21.5v76q44 -6 87 -29.5t76.5 -62t54.5 -91.5t21 -118q0 -69 -21.5 -123
t-57 -93t-81 -61t-92.5 -26v-41q-88 14 -134.5 91.5t-46.5 210.5z" />
    <glyph glyph-name="afii10049" unicode="&#x42f;" horiz-adv-x="736" 
d="M787 189v23h-258v437h-276q-16 0 -31.5 -7.5t-28 -18t-20.5 -22t-8 -18.5v-221q9 -8 24 -16t31.5 -14.5t33 -10.5t29.5 -4l-151 -245q-20 -24 -45 -34.5t-67 -13.5h-85v-24h274l203 300h66v-189q0 -32 -4.5 -50t-17.5 -27t-35 -11t-56 -2v-21h164v189h258zM478 352h-107
q-39 0 -68 11t-48.5 30t-29 44t-9.5 53q0 60 40.5 91.5t112.5 31.5q13 0 29 -1t31.5 -2.5t28.5 -4t20 -5.5v-248z" />
    <glyph glyph-name="afii10065" unicode="&#x430;" 
d="M905 185v24h-497v-24h497zM621 636v23h-696v-23h696zM651 -1l454 1v23h-454v-24zM508 505h602v24h-602v-24zM431 341v24h-497v-24h497z" />
    <glyph glyph-name="afii10066" unicode="&#x431;" 
d="M899 395v24h-497v-24h497zM621 636v23h-696v-23h696zM651 288l454 1v23h-454v-24zM501 563h602v24h-602v-24zM420 188v24h-497v-24h497z" />
    <glyph glyph-name="afii10067" unicode="&#x432;" 
d="M894 107v24h-497v-24h497zM616 348v23h-696v-23h696zM646 0l454 1v23h-454v-24zM496 274h602v24h-602v-24zM414 191v24h-497v-24h497z" />
    <glyph glyph-name="afii10068" unicode="&#x433;" 
d="M905 473v-24h-497v24h497zM621 22v-23h-696v23h696zM651 659l454 -1v-23h-454v24zM508 153h602v-24h-602v24zM431 317v-24h-497v24h497z" />
    <glyph glyph-name="afii10069" unicode="&#x434;" 
d="M129 473v-24h497v24h-497zM413 22v-23h696v23h-696zM383 659l-454 -1v-23h454v24zM526 153h-602v-24h602v24zM603 317v-24h497v24h-497z" />
    <glyph glyph-name="afii10070" unicode="&#x435;" 
d="M129 185v24h497v-24h-497zM413 636v23h696v-23h-696zM383 -1l-454 1v23h454v-24zM526 505h-602v24h602v-24zM603 341v24h497v-24h-497z" />
    <glyph glyph-name="afii10072" unicode="&#x436;" 
d="M122 263v-24h497v24h-497zM400 22v-23h696v23h-696zM370 370l-454 -1v-23h454v24zM520 96h-602v-24h602v24zM602 179v-24h497v24h-497z" />
    <glyph glyph-name="afii10073" unicode="&#x437;" 
d="M129 395v24h497v-24h-497zM407 636v23h696v-23h-696zM377 288l-454 1v23h454v-24zM527 561h-602v24h602v-24zM608 495v24h497v-24h-497z" />
    <glyph glyph-name="afii10074" unicode="&#x438;" 
d="M-55 482v-24h497v24h-497zM-54 23v-23h696v23h-696zM1096 670l-454 -1v-23h454v24zM1044 150h-602v-24h602v24zM290 325v-24h497v24h-497z" />
    <glyph glyph-name="afii10075" unicode="&#x439;" 
d="M1100 212v-24h-497v24h497zM621 22v-23h-696v23h696zM649 580l454 -1v-23h-454v24zM-78 209h602v-24h-602v24zM641 406v-24h-497v24h497z" />
    <glyph glyph-name="afii10076" unicode="&#x43a;" 
d="M-76 366v24h497v-24h-497zM403 556v23h696v-23h-696zM375 -2l-454 1v23h454v-24zM1102 369h-602v24h602v-24zM383 172v24h497v-24h-497z" />
    <glyph glyph-name="afii10077" unicode="&#x43b;" 
d="M-76 210v-24h497v24h-497zM403 20v-23h696v23h-696zM375 578l-454 -1v-23h454v24zM1102 207h-602v-24h602v24zM383 404v-24h497v24h-497z" />
    <glyph glyph-name="afii10078" unicode="&#x43c;" 
d="M1098 366v24h-497v-24h497zM619 556v23h-696v-23h696zM647 -2l454 1v23h-454v-24zM-80 369h602v24h-602v-24zM639 172v24h-497v-24h497z" />
    <glyph glyph-name="afii10079" unicode="&#x43d;" horiz-adv-x="800" 
d="M762 23h-725v-23h725v23zM88 207v-24h602v24h-602zM630 354h-476v-24h476v24zM593 507h-406v-24h406v24zM234 655v-24h322v23z" />
    <glyph glyph-name="afii10080" unicode="&#x43e;" horiz-adv-x="800" 
d="M762 631v23h-725v-23h725zM88 447h602v24h-602v-24zM630 300v24h-476v-24h476zM593 147v24h-406v-24h406zM234 -1l322 1v23h-322v-24z" />
    <glyph glyph-name="afii10081" unicode="&#x43f;" horiz-adv-x="800" 
d="M445 151v24h-406v-24h406zM762 630v23h-725v-23h725zM39 1l322 1v23h-322v-24zM39 444h602v24h-602v-24zM515 295v24h-476v-24h476z" />
    <glyph glyph-name="afii10082" unicode="&#x440;" horiz-adv-x="800" 
d="M762 24h-725v-23h725v23zM39 210v-24h602v24h-602zM515 359h-476v-24h476v24zM445 503h-406v-24h406v24zM39 653v-24h322v24h-322z" />
    <glyph glyph-name="afii10083" unicode="&#x441;" horiz-adv-x="800" 
d="M353 503v-24h406v24h-406zM36 24v-23h725v23h-725zM759 653l-322 -1v-23h322v24zM759 210h-602v-24h602v24zM283 359v-24h476v24h-476z" />
    <glyph glyph-name="afii10084" unicode="&#x442;" horiz-adv-x="800" 
d="M353 151v24h406v-24h-406zM36 630v23h725v-23h-725zM759 1l-322 1v23h322v-24zM759 444h-602v24h602v-24zM283 295v24h476v-24h-476z" />
    <glyph glyph-name="afii10085" unicode="&#x443;" horiz-adv-x="803" 
d="M171 115v-23h696v23h-696zM506 208h-602v-24h602v24zM-84 413v-24h497v24h-497zM368 316v-24h497v24h-497zM860 543h-454v-23h454v23z" />
    <glyph glyph-name="afii10086" unicode="&#x444;" horiz-adv-x="803" 
d="M599 115h-696v-23h696v23zM264 208v-24h602v24h-602zM854 413h-497v-24h497v24zM402 316h-497v-24h497v24zM-90 543v-24h454v24h-454z" />
    <glyph glyph-name="afii10087" unicode="&#x445;" horiz-adv-x="803" 
d="M599 519v23h-696v-23h696zM264 426h602v24h-602v-24zM854 221v24h-497v-24h497zM402 318v24h-497v-24h497zM-90 91h454v24h-454v-24z" />
    <glyph glyph-name="afii10088" unicode="&#x446;" horiz-adv-x="803" 
d="M171 519h696v23h-696v-23zM506 426v24h-602v-24h602zM-84 221h497v24h-497v-24zM368 318h497v24h-497v-24zM860 91v23h-454v-23h454z" />
    <glyph glyph-name="afii10089" unicode="&#x447;" 
d="M997 191v24h-497v-24h497zM1096 647v23h-696v-23h696zM-54 0l454 1v23h-454v-24zM494 491h602v24h-602v-24zM706 339v24h-497v-24h497z" />
    <glyph glyph-name="afii10090" unicode="&#x448;" 
d="M997 479v-24h-497v24h497zM1096 23v-23h-696v23h696zM-54 670l454 -1v-23h-454v24zM494 179h602v-24h-602v24zM706 331v-24h-497v24h497z" />
    <glyph glyph-name="afii10091" unicode="&#x449;" horiz-adv-x="203" 
d="M39 479h123v24h-123v-24zM39 210v-24h123v24h-123zM39 653v-24h123v24h-123zM39 335h123v24h-123v-24zM37 1h125v23h-125v-23z" />
    <glyph glyph-name="afii10092" unicode="&#x44a;" 
d="M905 185v24h-497v-24h497zM621 636v23h-696v-23h696zM651 -1l454 1v23h-454v-24zM508 505h602v24h-602v-24zM431 341v24h-497v-24h497z" />
    <glyph glyph-name="afii10093" unicode="&#x44b;" 
d="M899 395v24h-497v-24h497zM621 636v23h-696v-23h696zM651 288l454 1v23h-454v-24zM501 563h602v24h-602v-24zM420 188v24h-497v-24h497z" />
    <glyph glyph-name="afii10094" unicode="&#x44c;" 
d="M894 107v24h-497v-24h497zM616 348v23h-696v-23h696zM646 0l454 1v23h-454v-24zM496 274h602v24h-602v-24zM414 191v24h-497v-24h497z" />
    <glyph glyph-name="afii10095" unicode="&#x44d;" 
d="M621 22h-696v-23h696v23zM508 153v-24h602v24h-602zM905 473h-497v-24h497v24zM431 317h-497v-24h497v24zM651 659v-24h454v24h-454z" />
    <glyph glyph-name="afii10096" unicode="&#x44e;" 
d="M129 473v-24h497v24h-497zM413 22v-23h696v23h-696zM383 659l-454 -1v-23h454v24zM526 153h-602v-24h602v24zM603 317v-24h497v24h-497z" />
    <glyph glyph-name="afii10097" unicode="&#x44f;" 
d="M129 185v24h497v-24h-497zM413 636v23h696v-23h-696zM383 -1l-454 1v23h454v-24zM526 505h-602v24h602v-24zM603 341v24h497v-24h-497z" />
    <glyph glyph-name="FL404" horiz-adv-x="946" 
d="M668 309l-161 288h-64v-30h-494v-23h382l-197 -402q-26 -54 -54 -85t-63 -32v-25h157v18q-19 0 -26 6.5t-7 16.5q0 8 2.5 16t6.5 16l62 118h310q16 -36 26 -60.5t15 -40t7 -24t2 -13.5q0 -18 -14 -26t-58 -9v-18h499v24q-18 1 -56 3.5t-82 7t-87.5 11.5t-72.5 19
l-118 244h85zM504 221h-274l130 275z" />
    <glyph glyph-name="FL405" horiz-adv-x="950" 
d="M337 385v239h210q72 0 104.5 -19.5t32.5 -58.5h34v133h-357v58h-408v-24h272q24 0 37.5 -10t23.5 -24h-51v-29q32 0 47 -0.5t22 -2.5v-113h-19v-191h45v-153h-53v-112h24v-54h-352v-24h352v-38h43v38h180q84 0 134.5 31.5t74.5 76.5v77h266v24h-266v75q-18 29 -48.5 48.5
t-68 31t-80.5 16.5t-87 5h-112zM464 329h85q38 0 65.5 -17t46 -43t29.5 -59t16 -64h-95q-4 -31 -16.5 -48t-32 -25.5t-46.5 -10.5t-60 -2q-24 0 -47 1t-40 6v229h95v33z" />
    <glyph glyph-name="FL406" horiz-adv-x="950" 
d="M361 679v58h-408v-24h272q24 0 37.5 -10t23.5 -24h-51v-29q32 0 47 -0.5t22 -2.5v-113h-19v-191h45v-153h-53v-112h24v-54h-352v-24h352v-38h43v38h180q84 0 134.5 31.5t74.5 76.5v77h266v24h-266v75q-5 6 -14.5 16t-21.5 21t-25 21t-23 15q11 2 31.5 12.5t37.5 21.5v288
h-357zM464 329h85q38 0 65.5 -17t46 -43t29.5 -59t16 -64h-95q-4 -31 -16.5 -48t-32 -25.5t-46.5 -10.5t-60 -2q-24 0 -47 1t-40 6v229h95v33zM337 385v239h210q72 0 103.5 -39.5t33.5 -108.5h-84q-15 -45 -54 -68t-97 -23h-112z" />
    <glyph glyph-name="FL407" horiz-adv-x="897" 
d="M438 350v265h113q27 0 48.5 -3.5t38 -15.5t29 -33.5t21.5 -57.5h26v149q14 -10 21.5 -29t7.5 -51h24v144h-91v-48h-732v-24h120q15 0 24.5 -8t14.5 -18.5t7 -21.5t2 -18h231v-371h-394v-24h394v-101q-3 -20 -9.5 -31.5t-18 -17.5t-28.5 -7.5t-40 -1.5h-27v-26h141v-188
h221v31h-64q-48 0 -69 15.5t-25 58.5v262l14 1v170z" />
    <glyph glyph-name="FL408" horiz-adv-x="828" 
d="M743 -136h64v111h78v48h-121q-28 0 -52.5 2t-43 10.5t-29.5 26t-11 47.5v69h-78v237h53v72h25v85q0 30 4.5 50t15.5 32t29 17t46 5h12v16h84v24h-194v-19h-324v19l-116 11v-14q22 0 40 -3.5t31 -12.5h-314v-21h333q3 -8 5 -16t2 -19v-290q0 -65 -10.5 -114.5t-33.5 -88
t-60 -68.5t-90 -56h-142v-49h65l-12 -180h14q5 52 23 86t42 54t50.5 28.5t49.5 11.5h565v-111zM328 411v265h81q29 0 47.5 -4.5t29 -16.5t14.5 -31.5t4 -49.5v-447q0 -24 -5 -40t-14.5 -25.5t-23.5 -14.5t-33 -8v-15h-176q27 31 42 76t22.5 97t9.5 107.5t2 106.5z" />
    <glyph glyph-name="FL0197" horiz-adv-x="997" 
d="M-57 -1h399v14h136v-36h261v52h312v23h-312v1h-300q-19 0 -30 2.5t-17 9.5t-8 19.5t-2 33.5v182h133v-29h157v110h-22q0 -20 -6.5 -31.5t-20 -17.5t-34.5 -7.5t-51 -1.5v31h-156v281h140v-32h67q22 0 40 -4t33 -15t27.5 -31t23.5 -52h21v156h-123v50h-661v-23h214v-1
q30 0 50 -7t31.5 -21.5t16 -37.5t4.5 -56v-435q0 -32 -4.5 -52.5t-16.5 -32t-31.5 -15.5t-49.5 -4h-221v-23z" />
    <glyph glyph-name="FL409" horiz-adv-x="1499" 
d="M-9 598v-25h58q38 -4 82.5 -17.5t92.5 -54.5l262 -260q-102 -105 -172.5 -173t-116.5 -108t-71 -56.5t-35 -17.5v-32h221v4h179v24h-179v16q-71 0 -71 13q0 8 22 24h121l1 20q-43 0 -60 6t-17 14q0 6 7 13l264 259v-118q0 -30 -4.5 -50t-15.5 -32t-29.5 -17t-46.5 -5h-16
v-25h188l3 2q0 -31 -3 -51.5t-10 -33t-19.5 -17.5t-30.5 -5h-10v-32h257v32q-23 0 -37 5t-22.5 17.5t-11.5 33t-3 51.5v112h-99v45h63v169q61 -57 103.5 -97t70.5 -67t44.5 -43t24.5 -24.5t11 -11.5l5 -5l19 -30q0 -14 -14 -19.5t-55 -5.5v-25h108q4 -7 4 -15q0 -14 -9 -20
t-36 -6v-32h246v32q-17 2 -33.5 12t-36.5 30h373v25h-288q-38 4 -82.5 17.5t-92.5 54.5l-262 260q102 105 172.5 173t116.5 108t71 56.5t35 17.5v32h-221v-4h-659v-24h659v-16q71 0 71 -13q0 -8 -22 -24h-121l-1 -20q43 0 60 -6t17 -14q0 -6 -7 -13l-271 -266v217
q0 36 9.5 54t39.5 18h15v32h-134v-104h-120v-2h-194v-25h194q43 0 58.5 -23.5t15.5 -87.5v-31h-37v-116q-59 55 -100.5 94.5t-69 65.5t-43 41.5t-23.5 24t-11 11.5l-5 5l-19 30q0 14 14 19.5t55 5.5v25h-108q-4 7 -4 15q0 14 9 20t36 6v32h-246v-32q17 -2 33.5 -12t36.5 -30
h-143z" />
    <glyph glyph-name="FL0199" horiz-adv-x="950" 
d="M641 476q6 21 6 47q0 23 -7 44.5t-20 40.5q20 0 46 -9t52 -44v124h-206q-32 8 -68 8q-22 0 -39.5 -2t-32.5 -6h-11v58h-408v-24h272q24 0 37.5 -10t23.5 -24h-45v2h-14l21 -24q-8 -6 -16 -20.5t-15 -31.5t-11.5 -31.5t-4.5 -20.5q0 -32 20 -72h14q2 24 13.5 58t40.5 60
q16 14 40 25h135q35 -15 55 -44.5t20 -70.5q0 -36 -12 -68.5t-41 -55.5h-36l11 -15q-21 -10 -46 -14v-13h45v-47h134v25q26 -9 45 -27.5t32.5 -42.5t21.5 -51.5t13 -53.5h-95q-4 -31 -16.5 -48t-32 -25.5t-46.5 -10.5t-60 -2q-8 0 -26.5 6t-41 14.5t-46 18t-41.5 17.5v-92
h-352v-24h352v-38h43v38h180q84 0 135 31.5t74 76.5v77h266v24h-266v75q-5 6 -14.5 16t-21.5 21t-25 21t-23 15q11 2 31.5 12.5t37.5 21.5v85h-77z" />
    <glyph glyph-name="FL410" horiz-adv-x="1000" 
d="M739 451h323v26h-322v276h-190l-1 -20h23q28 0 46.5 -5t30 -17t16 -32t4.5 -50v-70l-331 -212v161q0 30 4.5 50t15.5 32t30 17t48 5h1v24h-309v-24h19q28 0 46.5 -5t29.5 -17t15.5 -32t4.5 -50v-223h-22v-118q0 -54 -21.5 -74t-63.5 -20h-34v-23h141v-25q0 -42 -18 -65.5
t-57 -28.5h-222v-23h512v22h-22q-29 0 -48 5t-30 16.5t-15.5 31.5t-4.5 50v254l331 219v-522h70v467z" />
    <glyph glyph-name="FL411" horiz-adv-x="1000" 
d="M739 451h323v26h-322v276h-190l-1 -20h23q28 0 46.5 -5t30 -17t16 -32t4.5 -50v-70l-331 -212v161q0 30 4.5 50t15.5 32t30 17t48 5h1v24h-309v-24h19q28 0 46.5 -5t29.5 -17t15.5 -32t4.5 -50v-223h-22v-118q0 -54 -21.5 -74t-63.5 -20h-34v-23h141v-25q0 -42 -18 -65.5
t-57 -28.5h-222v-23h512v22h-22q-29 0 -48 5t-30 16.5t-15.5 31.5t-4.5 50v254l331 219v-522h70v467zM653 900q-4 -42 -24 -65.5t-55 -23.5q-15 0 -35.5 5.5t-42.5 14t-44.5 19t-41.5 19.5v-89h-144q-20 -21 -32.5 -54.5t-12.5 -82.5h33q7 45 26 66t54 21q24 0 55.5 -11.5
t65.5 -26.5v65h180q27 26 39 61t12 82h-33z" />
    <glyph glyph-name="FL412" horiz-adv-x="1100" 
d="M1158 1v25h-288q-38 4 -82.5 17.5t-92.5 54.5l-262 260q102 105 172.5 173t116.5 108t71 56.5t35 17.5v32h-221v-4h-659v-24h659v-16q71 0 71 -13q0 -8 -22 -24h-121l-1 -20q43 0 60 -6t17 -14q0 -6 -7 -13l-271 -266v217q0 36 9.5 54t39.5 18h15v32h-134v-104h-120v-2
h-194v-25h194q43 0 58.5 -23.5t15.5 -87.5v-31h-37v-264q0 -30 -4.5 -50t-15.5 -32t-29.5 -17t-46.5 -5h-16v-25h188l3 2q0 -31 -3 -51.5t-10 -33t-19.5 -17.5t-30.5 -5h-10v-32h257v32q-23 0 -37 5t-22.5 17.5t-11.5 33t-3 51.5v112h-99v45h63v169q61 -57 103.5 -97
t70.5 -67t44.5 -43t24.5 -24.5t11 -11.5l5 -5l19 -30q0 -14 -14 -19.5t-55 -5.5v-25h108q4 -7 4 -15q0 -14 -9 -20t-36 -6v-32h246v32q-17 2 -33.5 12t-36.5 30h373z" />
    <glyph glyph-name="FL413" horiz-adv-x="828" 
d="M550 415h53v72h25v85q0 30 4.5 50t15.5 32t29 17t46 5h12v16h84v24h-194v-19h-324v19l-116 11v-14q22 0 40 -3.5t31 -12.5h-314v-21h333q3 -8 5 -16t2 -19v-290q0 -93 -8.5 -150.5t-22 -89t-29 -42t-29.5 -10.5q-11 0 -20.5 6.5t-18.5 12.5t-21 12.5t-27 6.5
q-26 0 -39 -18.5t-13 -37.5q0 -12 4.5 -23.5t15 -21t27 -15.5t40.5 -6q45 0 76.5 19.5t52 52.5t32.5 76.5t17.5 92t7 99t1.5 96.5v265h81q29 0 47.5 -4.5t29 -16.5t14.5 -31.5t4 -49.5v-447q0 -24 -5 -40t-14.5 -25.5t-23.5 -14.5t-33 -8v-15h-72v-24h529v23h-121
q-28 0 -52.5 2t-43 10.5t-29.5 26t-11 47.5v69h-78v237z" />
    <glyph glyph-name="FL414" horiz-adv-x="1051" 
d="M2 -131v-17h212v329h26v380h2l285 -562l266 572h2v-435q0 -61 -19.5 -90t-75.5 -29h-20v-17h195v543h224v24h-224v106h-92l-224 -458l-246 458h-71v69h-258v-22h16q50 0 87 -8t51 -39h-107v-26h16q30 0 49 -5t29.5 -17t14.5 -31t4 -46v-559q0 -54 -24 -85.5t-71 -34.5
h-47z" />
    <glyph glyph-name="FL415" horiz-adv-x="1000" 
d="M739 211v467h-70v-303h-331v254q0 30 4.5 50t15.5 31.5t30 16.5t48 5h22v22h-512v-23h222q39 -5 57 -28.5t18 -65.5v-25h-141v-23h34q42 0 63.5 -20t21.5 -74v-118h22v-223q0 -30 -4.5 -50t-15.5 -32t-29.5 -17t-46.5 -5h-19v-24h309v24h-1q-29 0 -48 5t-30 17t-15.5 32
t-4.5 50v161h331v-282q0 -30 -4.5 -50t-16 -32t-30 -17t-46.5 -5h-23l1 -20h190v276h322v26h-323z" />
    <glyph glyph-name="FL416" horiz-adv-x="1000" 
d="M-43 290h233v-158q48 -66 124 -106.5t169 -43.5v44q43 0 82.5 12.5t74.5 34.5t64 51.5t52 62.5h295v23h-288v345q-23 37 -56 68t-72 54t-83.5 36t-90.5 13v-43q-43 0 -82.5 -11.5t-74 -32t-63.5 -48t-51 -58.5v-220h-233v-23zM280 333q0 68 13 116.5t37.5 80.5t60.5 48.5
t83 21.5v76q44 -6 87 -29.5t76.5 -62t54.5 -91.5t21 -118q0 -69 -21.5 -123t-57 -93t-81 -61t-92.5 -26v-41q-88 14 -134.5 91.5t-46.5 210.5z" />
    <glyph glyph-name="FL417" horiz-adv-x="1000" 
d="M739 211v466h-397q7 31 28 43t66 12h22v22h-512v-23h222q39 -5 57 -28.5t18 -65.5v-25h-141v-23h34q42 0 63.5 -20t21.5 -74v-118h22v-223q0 -30 -4.5 -50t-15.5 -32t-29.5 -17t-46.5 -5h-19v-24h309v24h-1q-29 0 -48 5t-30 17t-15.5 32t-4.5 50v463h331v-584
q0 -30 -4.5 -50t-16 -32t-30 -17t-46.5 -5h-23l1 -20h190v276h322v26h-323z" />
    <glyph glyph-name="FL418" horiz-adv-x="749" 
d="M842 683v24h-709v-24h1v-474h-235v-24h235v-54h-26v-191h120v21q-26 0 -38 1t-16.5 4.5t-5.5 11.5t-5 22h135v20q-31 0 -51.5 4t-33 15t-17.5 31.5t-5 53.5v211q28 -17 63 -26.5t72 -9.5q38 0 72 9.5t62 26.5v295q0 8 -13 16.5t-32.5 16t-41 13t-38.5 7.5h507zM166 621
q7 3 23.5 5t35.5 3.5t35.5 2.5t24.5 1q64 0 102 -36t38 -97q0 -30 -9.5 -55t-27 -44t-41 -29.5t-50.5 -10.5q-9 0 -27 1t-38 3t-38 5.5t-28 8.5v242z" />
    <glyph glyph-name="FL419" horiz-adv-x="1000" 
d="M779 0h278v23h-278v18h-43v33h-48v-2q-35 -21 -75.5 -32t-82.5 -11t-78.5 12t-63.5 36.5t-43 61.5t-16 86h-84v284h84q7 25 26 44.5t46 33.5t59.5 21.5t66.5 7.5q51 0 97.5 -17.5t75.5 -55.5h54l37 134l-33 23q-2 -5 -5 -12t-9 -14t-14.5 -11.5t-20.5 -4.5q-30 0 -57 6
t-54 13.5t-54.5 14t-57.5 6.5q-44 0 -99 -14.5t-109.5 -37t-101.5 -50.5t-74 -55v-28h22v-154h31v-148h-205v-23h240v-100q60 -54 143.5 -80.5t180.5 -26.5q45 0 90.5 6t88.5 17v-42z" />
    <glyph glyph-name="FL420" horiz-adv-x="703" 
d="M-49 1h312q-11 -17 -31 -20.5t-45 -3.5h-25v-20h180v61h190v22h-20q-29 0 -47.5 6t-29.5 19t-15 34.5t-4 51.5v38h346v23h-346v433h112q32 0 52.5 -4t32.5 -15.5t17.5 -30.5t8.5 -49h20v135h-357v-38h-267v-152h19q0 28 3.5 50t14.5 37t31 22.5t53 7.5h124v-492
q0 -28 -0.5 -45t-1 -26.5t-1 -14t-1.5 -7.5h-325v-22z" />
    <glyph glyph-name="FL421" horiz-adv-x="903" 
d="M954 0v23h-402q-27 0 -45 4t-29.5 14.5t-17 27.5t-5.5 43h25v186h-48l68 90v75l-73 -71q-54 77 -84.5 121.5t-45 67.5t-18 31t-3.5 13q0 8 6.5 13.5t17.5 8.5t25 4.5t29 1.5v24h-503v-24h222q13 -1 23.5 -6t21.5 -15t24.5 -26t32.5 -39l159 -229h42v-167h-16v-281h141v23
h-23q-53 0 -74.5 18.5t-22.5 68.5h573zM950 685v23h-403v-25q50 0 82.5 -3.5t32.5 -22.5l-135 -167h2v-67l141 169q19 23 36 40.5t34 29t35 17.5t40 6h135z" />
    <glyph glyph-name="FL422" horiz-adv-x="876" 
d="M435 725q36 0 72 -9h-3v-19h-243v-20h26q38 0 59 -9t29 -32q-30 -1 -74.5 -7t-91 -22.5t-89 -46.5t-68.5 -81h46v-291h-26q25 -33 62 -54.5t78 -35t83 -19t78 -5.5q-9 -17 -25.5 -24t-40.5 -11v-15h-368v-24h725v23h-21q-28 0 -52.5 2t-43 10.5t-29.5 26t-11 47.5v4h5
q75 0 140.5 25t114.5 73t77.5 117.5t28.5 157.5l-72 -19v6q0 61 -22.5 118.5t-76.5 100.5h226v24h-263q-42 23 -98.5 36t-131.5 14v-41zM383 574v-395q-57 22 -97 60.5t-65 83.5l-23 -15q36 -72 83.5 -113t101.5 -61v-18q-36 0 -77 10.5t-75.5 36.5t-57 69.5t-22.5 109.5
q0 68 21 116t54 78.5t74 44.5t82 14q1 -5 1 -11v-10zM507 572q0 56 16.5 78.5t63.5 24.5q32 -26 54.5 -67t28.5 -99h75l-14 -52l-61 -23q-5 -45 -21.5 -77t-39.5 -53t-50 -33t-52 -18v140l-77 -20l27 136h50v63zM507 207q42 4 84.5 15.5t80.5 31.5q-28 -40 -68.5 -66
t-96.5 -29v48z" />
    <glyph glyph-name="FL423" horiz-adv-x="951" 
d="M-56 690h171q36 -8 80.5 -34.5t87.5 -83.5l152 -180h-86l46 -48l-135 -218q-24 -31 -43 -53t-36.5 -37t-36 -23t-42.5 -11v-24h262v24q-35 0 -57.5 4.5t-22.5 25.5q0 14 10 45.5t31 70.5l96 151l176 -192q24 -33 31.5 -47.5t7.5 -24.5q0 -18 -13 -26t-50 -8v-23h309v23
q-25 1 -59.5 25t-66.5 69l-248 296l55 2l-177 208q-17 19 -25 35t-8 25q0 17 15 25t50 9v21h-474v-26zM640 398q39 49 71 100t60 93t54.5 70t55.5 33l1 24h-223l-1 -22q33 -1 45.5 -18t12.5 -42q0 -26 -9.5 -55t-20.5 -52l-85 -131h39z" />
    <glyph glyph-name="FL424" horiz-adv-x="1000" 
d="M674 -15q15 0 40.5 -4t51 -22t45 -54.5t21.5 -101.5h14l-8 234h-56q-8 0 -15.5 1t-13.5 5.5t-9.5 14.5t-3.5 28l-1 -2v367h323v26h-322v276h-190l-1 -20h23q28 0 46.5 -5t30 -17t16 -32t4.5 -50v-584h-331v463q0 30 4.5 50t15.5 32t30 17t48 5h1v24h-309v-24h19
q28 0 46.5 -5t29.5 -17t15.5 -32t4.5 -50v-223h-22v-118q0 -54 -21.5 -74t-63.5 -20h-34v-23h141v-25q0 -42 -18 -65.5t-57 -28.5h-222v-23h512v22h-22q-45 0 -66 12t-28 43h332z" />
    <glyph glyph-name="FL0215" horiz-adv-x="749" 
d="M315 707h-417v-24h383v-51h-192v-14h18q32 0 50 -8t26.5 -19.5t10.5 -24.5t2 -23h84v-208q28 -17 62 -26.5t72 -9.5q37 0 72 9.5t63 26.5v-211q0 -33 -5 -53.5t-17.5 -31.5t-33 -15t-51.5 -4v-20h135q-4 -14 -5 -22t-5.5 -11.5t-16.5 -4.5t-38 -1v-21h120v191h-26v54h235
v24h-235v409h86q0 10 2 23t10.5 24.5t26.5 19.5t50 8h18v14h-332v-14h18q28 0 45.5 -6.5t27 -16.5t12.5 -22t4 -22v-247q-10 -5 -28 -8.5t-38 -5.5t-38 -3t-27 -1q-27 0 -50.5 10.5t-41 29.5t-27 44t-9.5 55v61q1 10 5.5 20t14 18t26 13.5t42.5 5.5h18v14h-106v75z" />
    <glyph glyph-name="FL0216" horiz-adv-x="1367" 
d="M867 -90v23h-21q-36 0 -66 4t-49 21h315l68 42h104v24h-34v21h-23q-24 0 -41 13.5t-28 22.5q-3 16 -3 39v358q0 24 16 38.5t43 21.5t61 9t70 2h172v25h-385q0 28 3.5 49t14 34.5t29 20t48.5 6.5h17v23h-193v-356h-57v-228q0 -23 -2 -37t-8 -21t-18.5 -9t-33.5 -2h-156
v428q0 30 4.5 50t15.5 32t29 17t46 5h12v16h144v24h-254v-19h-243v-20h26q29 0 47.5 -5t29.5 -16.5t15 -31.5t4 -50v-430h-104q-21 0 -33.5 2t-18.5 9t-8 21t-2 37v228h-57v356h-193v-23h17q30 0 48.5 -6.5t29 -20t14 -34.5t3.5 -49h-165v-25l17 1q21 0 43 -5t40 -14.5
t30 -22.5t12 -30v-358q0 -23 -3 -39q-11 -9 -28 -22.5t-41 -13.5h-23v-21h-264v-24h334q-11 -9 -28 -12.5t-42 -3.5h-23v-26h405q-14 -6 -36 -9v-15h-148v-24h505z" />
    <glyph glyph-name="FL425" horiz-adv-x="1367" 
d="M1046 -42q15 0 40.5 -4t51 -22t45 -54.5t21.5 -101.5h16l-9 224h7v24h-34v21h-23q-24 0 -41 13.5t-28 22.5q-3 16 -3 39v358q0 24 16 38.5t43 21.5t61 9t70 2h172v25h-385q0 28 3.5 49t14 34.5t29 20t48.5 6.5h17v23h-193v-356h-57v-228q0 -23 -2 -37t-8 -21t-18.5 -9
t-33.5 -2h-156v36h-124v-36h-104q-21 0 -33.5 2t-18.5 9t-8 21t-2 37v228h-57v356h-193v-23h17q30 0 48.5 -6.5t29 -20t14 -34.5t3.5 -49h-165v-25l17 1q21 0 43 -5t40 -14.5t30 -22.5t12 -30v-358q0 -23 -3 -39q-11 -9 -28 -22.5t-41 -13.5h-23v-21h-264v-24h334
q-11 -9 -28 -12.5t-42 -3.5h-23v-26h405q-14 -6 -36 -9v-15h-148v-24h505v23h-21q-36 0 -66 4t-49 21h315zM710 482q0 30 4.5 50t15.5 32t29 17t46 5h12v16h144v24h-254v-19h-243v-20h26q29 0 47.5 -5t29.5 -16.5t15 -31.5t4 -50v-298h124v296z" />
    <glyph glyph-name="FL426" horiz-adv-x="918" 
d="M1011 -36h-507q11 2 32 7.5t41.5 13t36 16t15.5 16.5v315q-28 17 -62 26.5t-72 9.5q-37 0 -72 -9.5t-63 -26.5v191q0 33 5 53.5t17.5 31.5t33 15t51.5 4v20h-97q5 17 23.5 31.5t62.5 14.5h18v14h-442l-12 -171h12q8 46 24.5 71t37 36.5t42.5 13.5t42 2q12 0 29 -2
t32.5 -5t26.5 -7t11 -8v-121h26v-54h-385v-24h385v-474h-1v-24h709v24zM335 26v262q10 5 28 8.5t38 5.5t38 3t27 1q27 0 50.5 -13.5t41 -36t27 -51t9.5 -58.5q0 -61 -38 -97t-102 -36q-8 0 -24.5 0.5t-35.5 2t-35.5 4t-23.5 5.5z" />
    <glyph glyph-name="FL427" horiz-adv-x="940" 
d="M917 -60v23h-21q-28 0 -52.5 2t-43 10.5t-29.5 26t-11 47.5v463q0 30 4.5 50t15.5 32t29 17t46 5h12v16h144v24h-254v-19h-243v-20h26q29 0 47.5 -5t29.5 -16.5t15 -31.5t4 -50v-447q0 -24 -5 -40t-14.5 -25.5t-23.5 -14.5t-33 -8v-15h-225q11 2 32 7.5t41.5 13t36 16
t15.5 16.5v315q-28 17 -62 26.5t-72 9.5q-37 0 -72 -9.5t-63 -26.5v191q0 33 5 53.5t17.5 31.5t33 15t51.5 4v20h-135q4 14 5 22t5.5 11.5t16.5 4.5t38 1v21h-120v-191h26v-54h-235v-24h235v-474h-1v-24h784zM166 26v262q10 5 28 8.5t38 5.5t38 3t27 1q27 0 50.5 -13.5
t41 -36t27 -51t9.5 -58.5q0 -61 -38 -97t-102 -36q-8 0 -24.5 0.5t-35.5 2t-35.5 4t-23.5 5.5z" />
    <glyph glyph-name="FL428" horiz-adv-x="749" 
d="M842 -36h-507q11 2 32 7.5t41.5 13t36 16t15.5 16.5v315q-28 17 -62 26.5t-72 9.5q-37 0 -72 -9.5t-63 -26.5v191q0 33 5 53.5t17.5 31.5t33 15t51.5 4v20h-135q4 14 5 22t5.5 11.5t16.5 4.5t38 1v21h-120v-191h26v-54h-235v-24h235v-474h-1v-24h709v24zM166 26v262
q10 5 28 8.5t38 5.5t38 3t27 1q27 0 50.5 -13.5t41 -36t27 -51t9.5 -58.5q0 -61 -38 -97t-102 -36q-8 0 -24.5 0.5t-35.5 2t-35.5 4t-23.5 5.5z" />
    <glyph glyph-name="FL429" horiz-adv-x="1000" 
d="M227 0l86 -38l6 47q14 -6 34.5 -11t44 -9t48 -6t46.5 -2q97 0 180.5 26.5t143.5 80.5v100h240v23h-205v148h31v154h22v28q-27 27 -74 55t-101.5 50.5t-110 37t-98.5 14.5q-30 0 -57.5 -6.5t-54.5 -14t-54 -13.5t-57 -6q-12 0 -20.5 4.5t-14.5 11.5t-9 14t-5 12l-33 -23
l37 -134h54q29 38 75.5 55.5t97.5 17.5q34 0 66.5 -7.5t59.5 -21.5t46 -33.5t26 -44.5h84v-284h-84q0 -50 -16 -87t-43 -61t-63.5 -36t-78.5 -12q-39 0 -69.5 9t-54 25.5t-41 38.5t-30.5 48l-4 6h-61l65 -116h-54v-17h-278v-23h278zM730 380h-219q-19 0 -36 4t-30 16
t-20.5 33.5t-7.5 56.5h-14v-263h14q0 51 19 78.5t73 27.5h221v47z" />
    <glyph glyph-name="FL0222" horiz-adv-x="1311" 
d="M461 0v23h-21q-28 0 -52.5 2t-43 10.5t-29.5 26t-11 47.5v181h197v-158q48 -66 124 -106.5t169 -43.5v44q87 8 157.5 51t115.5 110h295v23h-288v345q-47 74 -126 119.5t-176 51.5v-43q-87 -8 -156.5 -47.5t-114.5 -102.5v-220h-197v259q0 30 4.5 50t15.5 32t29 17t46 5
h12v16h144v24h-254v-19h-243v-20h26q29 0 47.5 -5t29.5 -16.5t15 -31.5t4 -50v-447q0 -24 -5 -40t-14.5 -25.5t-23.5 -14.5t-33 -8v-15h-148v-24h505zM591 333q0 68 13 116.5t37.5 80.5t60.5 48.5t83 21.5v76q44 -6 87 -29.5t76.5 -62t54.5 -91.5t21 -118q0 -69 -21.5 -123
t-57 -93t-81 -61t-92.5 -26v-41q-88 14 -134.5 91.5t-46.5 210.5z" />
    <glyph glyph-name="FL0223" horiz-adv-x="736" 
d="M787 189v23h-258v437h-276q-16 0 -31.5 -7.5t-28 -18t-20.5 -22t-8 -18.5v-221q9 -8 24 -16t31.5 -14.5t33 -10.5t29.5 -4l-151 -245q-20 -24 -45 -34.5t-67 -13.5h-85v-24h274l203 300h66v-189q0 -32 -4.5 -50t-17.5 -27t-35 -11t-56 -2v-21h164v189h258zM478 352h-107
q-39 0 -68 11t-48.5 30t-29 44t-9.5 53q0 60 40.5 91.5t112.5 31.5q13 0 29 -1t31.5 -2.5t28.5 -4t20 -5.5v-248z" />
    <glyph glyph-name="FL430" 
d="M905 185v24h-497v-24h497zM621 636v23h-696v-23h696zM651 -1l454 1v23h-454v-24zM508 505h602v24h-602v-24zM431 341v24h-497v-24h497z" />
    <glyph glyph-name="FL431" 
d="M899 395v24h-497v-24h497zM621 636v23h-696v-23h696zM651 288l454 1v23h-454v-24zM501 563h602v24h-602v-24zM420 188v24h-497v-24h497z" />
    <glyph glyph-name="FL432" 
d="M894 107v24h-497v-24h497zM616 348v23h-696v-23h696zM646 0l454 1v23h-454v-24zM496 274h602v24h-602v-24zM414 191v24h-497v-24h497z" />
    <glyph glyph-name="FL433" 
d="M905 473v-24h-497v24h497zM621 22v-23h-696v23h696zM651 659l454 -1v-23h-454v24zM508 153h602v-24h-602v24zM431 317v-24h-497v24h497z" />
    <glyph glyph-name="FL434" 
d="M129 473v-24h497v24h-497zM413 22v-23h696v23h-696zM383 659l-454 -1v-23h454v24zM526 153h-602v-24h602v24zM603 317v-24h497v24h-497z" />
    <glyph glyph-name="FL435" 
d="M129 185v24h497v-24h-497zM413 636v23h696v-23h-696zM383 -1l-454 1v23h454v-24zM526 505h-602v24h602v-24zM603 341v24h497v-24h-497z" />
    <glyph glyph-name="FL436" 
d="M122 263v-24h497v24h-497zM400 22v-23h696v23h-696zM370 370l-454 -1v-23h454v24zM520 96h-602v-24h602v24zM602 179v-24h497v24h-497z" />
    <glyph glyph-name="FL437" 
d="M129 395v24h497v-24h-497zM407 636v23h696v-23h-696zM377 288l-454 1v23h454v-24zM527 561h-602v24h602v-24zM608 495v24h497v-24h-497z" />
    <glyph glyph-name="FL438" 
d="M-55 482v-24h497v24h-497zM-54 23v-23h696v23h-696zM1096 670l-454 -1v-23h454v24zM1044 150h-602v-24h602v24zM290 325v-24h497v24h-497z" />
    <glyph glyph-name="FL439" 
d="M1100 212v-24h-497v24h497zM621 22v-23h-696v23h696zM649 580l454 -1v-23h-454v24zM-78 209h602v-24h-602v24zM641 406v-24h-497v24h497z" />
    <glyph glyph-name="FL440" 
d="M-76 366v24h497v-24h-497zM403 556v23h696v-23h-696zM375 -2l-454 1v23h454v-24zM1102 369h-602v24h602v-24zM383 172v24h497v-24h-497z" />
    <glyph glyph-name="FL441" 
d="M-76 210v-24h497v24h-497zM403 20v-23h696v23h-696zM375 578l-454 -1v-23h454v24zM1102 207h-602v-24h602v24zM383 404v-24h497v24h-497z" />
    <glyph glyph-name="FL442" 
d="M1098 366v24h-497v-24h497zM619 556v23h-696v-23h696zM647 -2l454 1v23h-454v-24zM-80 369h602v24h-602v-24zM639 172v24h-497v-24h497z" />
    <glyph glyph-name="FL443" horiz-adv-x="800" 
d="M762 23h-725v-23h725v23zM88 207v-24h602v24h-602zM630 354h-476v-24h476v24zM593 507h-406v-24h406v24zM234 655v-24h322v23z" />
    <glyph glyph-name="FL444" horiz-adv-x="800" 
d="M762 631v23h-725v-23h725zM88 447h602v24h-602v-24zM630 300v24h-476v-24h476zM593 147v24h-406v-24h406zM234 -1l322 1v23h-322v-24z" />
    <glyph glyph-name="FL445" horiz-adv-x="800" 
d="M445 151v24h-406v-24h406zM762 630v23h-725v-23h725zM39 1l322 1v23h-322v-24zM39 444h602v24h-602v-24zM515 295v24h-476v-24h476z" />
    <glyph glyph-name="FL0240" horiz-adv-x="800" 
d="M762 24h-725v-23h725v23zM39 210v-24h602v24h-602zM515 359h-476v-24h476v24zM445 503h-406v-24h406v24zM39 653v-24h322v24h-322z" />
    <glyph glyph-name="FL446" horiz-adv-x="800" 
d="M353 503v-24h406v24h-406zM36 24v-23h725v23h-725zM759 653l-322 -1v-23h322v24zM759 210h-602v-24h602v24zM283 359v-24h476v24h-476z" />
    <glyph glyph-name="FL447" horiz-adv-x="800" 
d="M353 151v24h406v-24h-406zM36 630v23h725v-23h-725zM759 1l-322 1v23h322v-24zM759 444h-602v24h602v-24zM283 295v24h476v-24h-476z" />
    <glyph glyph-name="FL448" horiz-adv-x="803" 
d="M171 115v-23h696v23h-696zM506 208h-602v-24h602v24zM-84 413v-24h497v24h-497zM368 316v-24h497v24h-497zM860 543h-454v-23h454v23z" />
    <glyph glyph-name="FL449" horiz-adv-x="803" 
d="M599 115h-696v-23h696v23zM264 208v-24h602v24h-602zM854 413h-497v-24h497v24zM402 316h-497v-24h497v24zM-90 543v-24h454v24h-454z" />
    <glyph glyph-name="FL450" horiz-adv-x="803" 
d="M599 519v23h-696v-23h696zM264 426h602v24h-602v-24zM854 221v24h-497v-24h497zM402 318v24h-497v-24h497zM-90 91h454v24h-454v-24z" />
    <glyph glyph-name="FL451" horiz-adv-x="803" 
d="M171 519h696v23h-696v-23zM506 426v24h-602v-24h602zM-84 221h497v24h-497v-24zM368 318h497v24h-497v-24zM860 91v23h-454v-23h454z" />
    <glyph glyph-name="FL452" 
d="M997 191v24h-497v-24h497zM1096 647v23h-696v-23h696zM-54 0l454 1v23h-454v-24zM494 491h602v24h-602v-24zM706 339v24h-497v-24h497z" />
    <glyph glyph-name="FL0248" 
d="M997 479v-24h-497v24h497zM1096 23v-23h-696v23h696zM-54 670l454 -1v-23h-454v24zM494 179h602v-24h-602v24zM706 331v-24h-497v24h497z" />
    <glyph glyph-name="FL453" horiz-adv-x="203" 
d="M39 479h123v24h-123v-24zM39 210v-24h123v24h-123zM39 653v-24h123v24h-123zM39 335h123v24h-123v-24zM37 1h125v23h-125v-23z" />
    <glyph glyph-name="FL454" 
d="M905 185v24h-497v-24h497zM621 636v23h-696v-23h696zM651 -1l454 1v23h-454v-24zM508 505h602v24h-602v-24zM431 341v24h-497v-24h497z" />
    <glyph glyph-name="FL455" 
d="M899 395v24h-497v-24h497zM621 636v23h-696v-23h696zM651 288l454 1v23h-454v-24zM501 563h602v24h-602v-24zM420 188v24h-497v-24h497z" />
    <glyph glyph-name="FL456" 
d="M894 107v24h-497v-24h497zM616 348v23h-696v-23h696zM646 0l454 1v23h-454v-24zM496 274h602v24h-602v-24zM414 191v24h-497v-24h497z" />
    <glyph glyph-name="FL457" 
d="M621 22h-696v-23h696v23zM508 153v-24h602v24h-602zM905 473h-497v-24h497v24zM431 317h-497v-24h497v24zM651 659v-24h454v24h-454z" />
    <glyph glyph-name="FL0254" 
d="M129 473v-24h497v24h-497zM413 22v-23h696v23h-696zM383 659l-454 -1v-23h454v24zM526 153h-602v-24h602v24zM603 317v-24h497v24h-497z" />
    <glyph glyph-name="FL458" 
d="M129 185v24h497v-24h-497zM413 636v23h696v-23h-696zM383 -1l-454 1v23h454v-24zM526 505h-602v24h602v-24zM603 341v24h497v-24h-497z" />
    <glyph glyph-name="Eth" unicode="&#xd0;" horiz-adv-x="749" 
d="M842 683v24h-709v-24h1v-474h-235v-24h235v-54h-26v-191h120v21q-26 0 -38 1t-16.5 4.5t-5.5 11.5t-5 22h135v20q-31 0 -51.5 4t-33 15t-17.5 31.5t-5 53.5v211q28 -17 63 -26.5t72 -9.5q38 0 72 9.5t62 26.5v295q0 8 -13 16.5t-32.5 16t-41 13t-38.5 7.5h507zM166 621
q7 3 23.5 5t35.5 3.5t35.5 2.5t24.5 1q64 0 102 -36t38 -97q0 -30 -9.5 -55t-27 -44t-41 -29.5t-50.5 -10.5q-9 0 -27 1t-38 3t-38 5.5t-28 8.5v242z" />
    <glyph glyph-name="multiply" unicode="&#xd7;" horiz-adv-x="749" 
d="M315 707h-417v-24h383v-51h-192v-14h18q32 0 50 -8t26.5 -19.5t10.5 -24.5t2 -23h84v-208q28 -17 62 -26.5t72 -9.5q37 0 72 9.5t63 26.5v-211q0 -33 -5 -53.5t-17.5 -31.5t-33 -15t-51.5 -4v-20h135q-4 -14 -5 -22t-5.5 -11.5t-16.5 -4.5t-38 -1v-21h120v191h-26v54h235
v24h-235v409h86q0 10 2 23t10.5 24.5t26.5 19.5t50 8h18v14h-332v-14h18q28 0 45.5 -6.5t27 -16.5t12.5 -22t4 -22v-247q-10 -5 -28 -8.5t-38 -5.5t-38 -3t-27 -1q-27 0 -50.5 10.5t-41 29.5t-27 44t-9.5 55v61q1 10 5.5 20t14 18t26 13.5t42.5 5.5h18v14h-106v75z" />
    <glyph glyph-name="Yacute" unicode="&#xdd;" horiz-adv-x="1000" 
d="M227 0l86 -38l6 47q14 -6 34.5 -11t44 -9t48 -6t46.5 -2q97 0 180.5 26.5t143.5 80.5v100h240v23h-205v148h31v154h22v28q-27 27 -74 55t-101.5 50.5t-110 37t-98.5 14.5q-30 0 -57.5 -6.5t-54.5 -14t-54 -13.5t-57 -6q-12 0 -20.5 4.5t-14.5 11.5t-9 14t-5 12l-33 -23
l37 -134h54q29 38 75.5 55.5t97.5 17.5q34 0 66.5 -7.5t59.5 -21.5t46 -33.5t26 -44.5h84v-284h-84q0 -50 -16 -87t-43 -61t-63.5 -36t-78.5 -12q-39 0 -69.5 9t-54 25.5t-41 38.5t-30.5 48l-4 6h-61l65 -116h-54v-17h-278v-23h278zM730 380h-219q-19 0 -36 4t-30 16
t-20.5 33.5t-7.5 56.5h-14v-263h14q0 51 19 78.5t73 27.5h221v47z" />
    <glyph glyph-name="Thorn" unicode="&#xde;" horiz-adv-x="1311" 
d="M461 0v23h-21q-28 0 -52.5 2t-43 10.5t-29.5 26t-11 47.5v181h197v-158q48 -66 124 -106.5t169 -43.5v44q87 8 157.5 51t115.5 110h295v23h-288v345q-47 74 -126 119.5t-176 51.5v-43q-87 -8 -156.5 -47.5t-114.5 -102.5v-220h-197v259q0 30 4.5 50t15.5 32t29 17t46 5
h12v16h144v24h-254v-19h-243v-20h26q29 0 47.5 -5t29.5 -16.5t15 -31.5t4 -50v-447q0 -24 -5 -40t-14.5 -25.5t-23.5 -14.5t-33 -8v-15h-148v-24h505zM591 333q0 68 13 116.5t37.5 80.5t60.5 48.5t83 21.5v76q44 -6 87 -29.5t76.5 -62t54.5 -91.5t21 -118q0 -69 -21.5 -123
t-57 -93t-81 -61t-92.5 -26v-41q-88 14 -134.5 91.5t-46.5 210.5z" />
    <glyph glyph-name="eth" unicode="&#xf0;" horiz-adv-x="800" 
d="M762 24h-725v-23h725v23zM39 210v-24h602v24h-602zM515 359h-476v-24h476v24zM445 503h-406v-24h406v24zM39 653v-24h322v24h-322z" />
    <glyph glyph-name="yacute" unicode="&#xfd;" 
d="M621 22h-696v-23h696v23zM508 153v-24h602v24h-602zM905 473h-497v-24h497v24zM431 317h-497v-24h497v24zM651 659v-24h454v24h-454z" />
    <glyph glyph-name="thorn" unicode="&#xfe;" 
d="M129 473v-24h497v24h-497zM413 22v-23h696v23h-696zM383 659l-454 -1v-23h454v24zM526 153h-602v-24h602v24zM603 317v-24h497v24h-497z" />
    <glyph glyph-name="FL00BCh" 
d="M1100 212v-24h-497v24h497zM621 22v-23h-696v23h696zM649 580l454 -1v-23h-454v24zM-78 209h602v-24h-602v24zM641 406v-24h-497v24h497z" />
    <glyph glyph-name="FL00BDh" horiz-adv-x="901" 
d="M1001 579v24h-303v117h-33q-10 -34 -37 -34q-15 0 -30 5.5t-34 11.5t-43 11.5t-58 5.5h-578v-26h445q-3 -3 -5.5 -6.5t-5.5 -7.5v-301q27 -23 67 -45.5t80.5 -43.5t76 -40.5t53.5 -36.5q23 -23 29.5 -43t6.5 -38q0 -26 -13 -48q-7 -4 -24 -7t-36.5 -5t-38 -3t-27.5 -1
q-35 0 -68.5 14.5t-63 40.5t-54 61.5t-40.5 77.5h-32v-47h-336v-25h300v-238h32q0 5 3 10v39h401q19 18 36 37t29.5 40t19.5 45.5t7 55.5q0 44 -20.5 80t-53.5 65.5t-73.5 54.5t-79.5 46t-73 40t-53 37q-5 7 -7.5 18.5t-4.5 24.5t-2.5 25.5t-0.5 20.5q0 21 7 34q24 12 56 12
t62.5 -12t57.5 -34.5t50 -54t39 -70.5h33v113h337z" />
    <glyph glyph-name="FL00BEh" horiz-adv-x="800" 
d="M353 151v24h406v-24h-406zM36 630v23h725v-23h-725zM759 1l-322 1v23h322v-24zM759 444h-602v24h602v-24zM283 295v24h476v-24h-476z" />
    <glyph glyph-name="FL00B9h" 
d="M-54 0h467v27h-30q-28 0 -46.5 5t-29.5 17t-15.5 32t-4.5 50v390l147 -147h-64l381 -380v194h346v23h-118q15 8 27.5 20.5t23.5 27.5v169h24v158q-21 32 -51 51t-65 19q-25 0 -48.5 -10.5t-42.5 -29t-33 -43.5t-20 -54h42v-82h-24v-191q18 -21 41 -35h-125v84h-25v-100
l-139 141h77l-312 311h-202v-25q17 0 36.5 -2t36 -6.5t27 -11t10.5 -16.5v-447q0 -51 -20 -68.5t-65 -17.5h-38v-30h-168v-23zM751 583q0 28 4.5 44t14.5 23t26 8.5t40 1.5h260v24h-426v-208h32v-140h49v247zM940 527q39 0 50 -90h-30q-3 -17 -7.5 -37.5t-10.5 -37.5
t-13 -28.5t-15 -11.5t-15 10t-13 25.5t-10.5 34.5t-7.5 36h22q7 99 50 99zM916 225q-36 0 -47 74q21 -9 45 -9q23 0 50 11q-10 -76 -48 -76zM940 559q-23 0 -50 -11q12 76 48 76t48 -75q-21 10 -46 10z" />
    <glyph glyph-name="FL00B2h" horiz-adv-x="500" 
d="M457 0v23h-21q-28 0 -52.5 2t-43 10.5t-29.5 26t-11 47.5v463q0 30 4.5 50t15.5 32t29 17t46 5h12v16h144v24h-254v-19h-243v-20h26q29 0 47.5 -5t29.5 -16.5t15 -31.5t4 -50v-447q0 -24 -5 -40t-14.5 -25.5t-23.5 -14.5t-33 -8v-15h-148v-24h505z" />
    <glyph glyph-name="FL00B3h" 
d="M-55 482v-24h497v24h-497zM-54 23v-23h696v23h-696zM1096 670l-454 -1v-23h454v24zM1044 150h-602v-24h602v24zM290 325v-24h497v24h-497z" />
    <glyph glyph-name="FL0407h" horiz-adv-x="500" 
d="M457 0v23h-21q-28 0 -52.5 2t-43 10.5t-29.5 26t-11 47.5v463q0 30 4.5 50t15.5 32t29 17t46 5h12v16h144v24h-254v-19h-243v-20h26q29 0 47.5 -5t29.5 -16.5t15 -31.5t4 -50v-447q0 -24 -5 -40t-14.5 -25.5t-23.5 -14.5t-33 -8v-15h-148v-24h505zM276 815h122v106h-122
v-106zM74 761h122v106h-122v-106z" />
    <glyph glyph-name="FL0401h" horiz-adv-x="997" 
d="M-57 -1h399v14h136v-36h261v52h312v23h-312v1h-300q-19 0 -30 2.5t-17 9.5t-8 19.5t-2 33.5v182h133v-29h157v110h-22q0 -21 -3.5 -32.5t-9.5 -17.5t-14 -7t-17 -1h-68v31h-156v281h140v-32h67q22 0 40 -4t33 -15t27.5 -31t23.5 -52h21v156h-123v50h-661v-23h214v-1
q30 0 50 -7t31.5 -21.5t16 -37.5t4.5 -56v-435q0 -32 -4.5 -52.5t-16.5 -32t-31.5 -15.5t-49.5 -4h-221v-23zM571 838h122v106h-122v-106zM369 784h122v106h-122v-106z" />
    <glyph glyph-name="afii10105" unicode="&#x458;" 
d="M1100 212v-24h-497v24h497zM621 22v-23h-696v23h696zM649 580l454 -1v-23h-454v24zM-78 209h602v-24h-602v24zM641 406v-24h-497v24h497z" />
    <glyph glyph-name="afii10054" unicode="&#x405;" horiz-adv-x="901" 
d="M1001 579v24h-303v117h-33q-10 -34 -37 -34q-15 0 -30 5.5t-34 11.5t-43 11.5t-58 5.5h-578v-26h445q-3 -3 -5.5 -6.5t-5.5 -7.5v-301q27 -23 67 -45.5t80.5 -43.5t76 -40.5t53.5 -36.5q23 -23 29.5 -43t6.5 -38q0 -26 -13 -48q-7 -4 -24 -7t-36.5 -5t-38 -3t-27.5 -1
q-35 0 -68.5 14.5t-63 40.5t-54 61.5t-40.5 77.5h-32v-47h-336v-25h300v-238h32q0 5 3 10v39h401q19 18 36 37t29.5 40t19.5 45.5t7 55.5q0 44 -20.5 80t-53.5 65.5t-73.5 54.5t-79.5 46t-73 40t-53 37q-5 7 -7.5 18.5t-4.5 24.5t-2.5 25.5t-0.5 20.5q0 21 7 34q24 12 56 12
t62.5 -12t57.5 -34.5t50 -54t39 -70.5h33v113h337z" />
    <glyph glyph-name="afii10102" unicode="&#x455;" horiz-adv-x="800" 
d="M353 151v24h406v-24h-406zM36 630v23h725v-23h-725zM759 1l-322 1v23h322v-24zM759 444h-602v24h602v-24zM283 295v24h476v-24h-476z" />
    <glyph glyph-name="afii10104" unicode="&#x457;" 
d="M1098 366v24h-497v-24h497zM619 556v23h-696v-23h696zM647 -2l454 1v23h-454v-24zM-80 369h602v24h-602v-24zM639 172v24h-497v-24h497z" />
    <glyph glyph-name="afii10071" unicode="&#x451;" horiz-adv-x="803" 
d="M171 519h696v23h-696v-23zM506 426v24h-602v-24h602zM-84 221h497v24h-497v-24zM368 318h497v24h-497v-24zM860 91v24h-454v-24h454z" />
    <glyph glyph-name="afii61352" unicode="&#x2116;" 
d="M-54 0h467v27h-30q-28 0 -46.5 5t-29.5 17t-15.5 32t-4.5 50v390l147 -147h-64l381 -380v194h346v23h-118q15 8 27.5 20.5t23.5 27.5v169h24v158q-21 32 -51 51t-65 19q-25 0 -48.5 -10.5t-42.5 -29t-33 -43.5t-20 -54h42v-82h-24v-191q18 -21 41 -35h-125v84h-25v-100
l-139 141h77l-312 311h-202v-25q17 0 36.5 -2t36 -6.5t27 -11t10.5 -16.5v-447q0 -51 -20 -68.5t-65 -17.5h-38v-30h-168v-23zM751 583q0 28 4.5 44t14.5 23t26 8.5t40 1.5h260v24h-426v-208h32v-140h49v247zM940 527q39 0 50 -90h-30q-3 -17 -7.5 -37.5t-10.5 -37.5
t-13 -28.5t-15 -11.5t-15 10t-13 25.5t-10.5 34.5t-7.5 36h22q7 99 50 99zM916 225q-36 0 -47 74q21 -9 45 -9q23 0 50 11q-10 -76 -48 -76zM940 559q-23 0 -50 -11q12 76 48 76t48 -75q-21 10 -46 10z" />
    <glyph glyph-name="afii10101" unicode="&#x454;" 
d="M997 191v24h-497v-24h497zM1096 647v23h-696v-23h696zM-54 0l454 1v23h-454v-24zM494 491h602v24h-602v-24zM706 339v24h-497v-24h497z" />
    <glyph glyph-name="afii10055" horiz-adv-x="500" 
d="M457 0v23h-21q-28 0 -52.5 2t-43 10.5t-29.5 26t-11 47.5v463q0 30 4.5 50t15.5 32t29 17t46 5h12v16h144v24h-254v-19h-243v-20h26q29 0 47.5 -5t29.5 -16.5t15 -31.5t4 -50v-447q0 -24 -5 -40t-14.5 -25.5t-23.5 -14.5t-33 -8v-15h-148v-24h505z" />
    <glyph glyph-name="afii10103" unicode="&#x456;" 
d="M-55 482v-24h497v24h-497zM-54 23v-23h696v23h-696zM1096 670l-454 -1v-23h454v24zM1044 150h-602v-24h602v24zM290 325v-24h497v24h-497z" />
    <glyph glyph-name="afii10056" unicode="&#x407;" horiz-adv-x="500" 
d="M457 0v23h-21q-28 0 -52.5 2t-43 10.5t-29.5 26t-11 47.5v463q0 30 4.5 50t15.5 32t29 17t46 5h12v16h144v24h-254v-19h-243v-20h26q29 0 47.5 -5t29.5 -16.5t15 -31.5t4 -50v-447q0 -24 -5 -40t-14.5 -25.5t-23.5 -14.5t-33 -8v-15h-148v-24h505zM276 815h122v106h-122
v-106zM74 761h122v106h-122v-106z" />
    <glyph glyph-name="afii10053" unicode="&#x404;" horiz-adv-x="1000" 
d="M777 0h278v23h-278v17h-54l65 116h-61l-4 -6q-14 -26 -31 -48t-40.5 -38.5t-54 -25.5t-69.5 -9q-42 0 -78.5 12t-63.5 36t-43 61t-16 87h-84v284h84q7 25 26 44.5t46 33.5t59.5 21.5t66.5 7.5q51 0 97.5 -17.5t75.5 -55.5h54l37 134l-33 23q-2 -5 -5 -12t-9 -14
t-14.5 -11.5t-20.5 -4.5q-30 0 -57 6t-54 13.5t-54.5 14t-57.5 6.5q-44 0 -99 -14.5t-109.5 -37t-101.5 -50.5t-74 -55v-28h22v-154h31v-148h-205v-23h240v-100q60 -54 143.5 -80.5t180.5 -26.5q22 0 46.5 2t48 6t44 9t34.5 11l6 -47zM274 380v-47h221q54 0 73 -27.5
t19 -78.5h14v263h-14q0 -35 -7.5 -56.5t-20.5 -33.5t-30 -16t-36 -4h-219z" />
    <glyph glyph-name="afii10023" unicode="&#x401;" horiz-adv-x="997" 
d="M-57 -1h399v14h136v-36h261v52h312v23h-312v1h-300q-19 0 -30 2.5t-17 9.5t-8 19.5t-2 33.5v182h133v-29h157v110h-22q0 -21 -3.5 -32.5t-9.5 -17.5t-14 -7t-17 -1h-68v31h-156v281h140v-32h67q22 0 40 -4t33 -15t27.5 -31t23.5 -52h21v156h-123v50h-661v-23h214v-1
q30 0 50 -7t31.5 -21.5t16 -37.5t4.5 -56v-435q0 -32 -4.5 -52.5t-16.5 -32t-31.5 -15.5t-49.5 -4h-221v-23zM571 838h122v106h-122v-106zM369 784h122v106h-122v-106z" />
    <glyph glyph-name="afii10057" unicode="&#x408;" horiz-adv-x="600" 
d="M291 124q0 -36 -10.5 -54t-30.5 -26q-7 11 -11.5 25t-10.5 28h-100v-76h-206v-22h421v33q39 27 60.5 72.5t21.5 99.5v302q0 59 19.5 81.5t71.5 22.5v32h-64q11 11 29 15t44 4h12v16h161v23h-271v-18h-187v-21h26q27 0 45 -4t29 -15h-135v-32h18q48 0 66.5 -23.5
t18.5 -80.5v-144h-17v-238z" />
    <glyph glyph-name="onequarter" unicode="&#xbc;" 
d="M1100 212v-24h-497v24h497zM621 22v-23h-696v23h696zM649 580l454 -1v-23h-454v24zM-78 209h602v-24h-602v24zM641 406v-24h-497v24h497z" />
    <glyph glyph-name="onehalf" unicode="&#xbd;" horiz-adv-x="901" 
d="M1001 579v24h-303v117h-33q-10 -34 -37 -34q-15 0 -30 5.5t-34 11.5t-43 11.5t-58 5.5h-578v-26h445q-3 -3 -5.5 -6.5t-5.5 -7.5v-301q27 -23 67 -45.5t80.5 -43.5t76 -40.5t53.5 -36.5q23 -23 29.5 -43t6.5 -38q0 -26 -13 -48q-7 -4 -24 -7t-36.5 -5t-38 -3t-27.5 -1
q-35 0 -68.5 14.5t-63 40.5t-54 61.5t-40.5 77.5h-32v-47h-336v-25h300v-238h32q0 5 3 10v39h401q19 18 36 37t29.5 40t19.5 45.5t7 55.5q0 44 -20.5 80t-53.5 65.5t-73.5 54.5t-79.5 46t-73 40t-53 37q-5 7 -7.5 18.5t-4.5 24.5t-2.5 25.5t-0.5 20.5q0 21 7 34q24 12 56 12
t62.5 -12t57.5 -34.5t50 -54t39 -70.5h33v113h337z" />
    <glyph glyph-name="threequarters" unicode="&#xbe;" horiz-adv-x="800" 
d="M353 151v24h406v-24h-406zM36 630v23h725v-23h-725zM759 1l-322 1v23h322v-24zM759 444h-602v24h602v-24zM283 295v24h476v-24h-476z" />
    <glyph glyph-name="FL0184" horiz-adv-x="803" 
d="M171 519h696v23h-696v-23zM506 426v24h-602v-24h602zM-84 221h497v24h-497v-24zM368 318h497v24h-497v-24zM860 91v24h-454v-24h454z" />
    <glyph glyph-name="onesuperior" unicode="&#xb9;" 
d="M-54 0h467v27h-30q-28 0 -46.5 5t-29.5 17t-15.5 32t-4.5 50v390l147 -147h-64l381 -380v194h346v23h-118q15 8 27.5 20.5t23.5 27.5v169h24v158q-21 32 -51 51t-65 19q-25 0 -48.5 -10.5t-42.5 -29t-33 -43.5t-20 -54h42v-82h-24v-191q18 -21 41 -35h-125v84h-25v-100
l-139 141h77l-312 311h-202v-25q17 0 36.5 -2t36 -6.5t27 -11t10.5 -16.5v-447q0 -51 -20 -68.5t-65 -17.5h-38v-30h-168v-23zM751 583q0 28 4.5 44t14.5 23t26 8.5t40 1.5h260v24h-426v-208h32v-140h49v247zM940 527q39 0 50 -90h-30q-3 -17 -7.5 -37.5t-10.5 -37.5
t-13 -28.5t-15 -11.5t-15 10t-13 25.5t-10.5 34.5t-7.5 36h22q7 99 50 99zM916 225q-36 0 -47 74q21 -9 45 -9q23 0 50 11q-10 -76 -48 -76zM940 559q-23 0 -50 -11q12 76 48 76t48 -75q-21 10 -46 10z" />
    <glyph glyph-name="twosuperior" unicode="&#xb2;" horiz-adv-x="500" 
d="M457 0v23h-21q-28 0 -52.5 2t-43 10.5t-29.5 26t-11 47.5v463q0 30 4.5 50t15.5 32t29 17t46 5h12v16h144v24h-254v-19h-243v-20h26q29 0 47.5 -5t29.5 -16.5t15 -31.5t4 -50v-447q0 -24 -5 -40t-14.5 -25.5t-23.5 -14.5t-33 -8v-15h-148v-24h505z" />
    <glyph glyph-name="threesuperior" unicode="&#xb3;" 
d="M-55 482v-24h497v24h-497zM-54 23v-23h696v23h-696zM1096 670l-454 -1v-23h454v24zM1044 150h-602v-24h602v24zM290 325v-24h497v24h-497z" />
    <glyph glyph-name="FL0175" horiz-adv-x="500" 
d="M457 0v23h-21q-28 0 -52.5 2t-43 10.5t-29.5 26t-11 47.5v463q0 30 4.5 50t15.5 32t29 17t46 5h12v16h144v24h-254v-19h-243v-20h26q29 0 47.5 -5t29.5 -16.5t15 -31.5t4 -50v-447q0 -24 -5 -40t-14.5 -25.5t-23.5 -14.5t-33 -8v-15h-148v-24h505zM276 815h122v106h-122
v-106zM74 761h122v106h-122v-106z" />
    <glyph glyph-name="FL0168" horiz-adv-x="997" 
d="M-57 -1h399v14h136v-36h261v52h312v23h-312v1h-300q-19 0 -30 2.5t-17 9.5t-8 19.5t-2 33.5v182h133v-29h157v110h-22q0 -21 -3.5 -32.5t-9.5 -17.5t-14 -7t-17 -1h-68v31h-156v281h140v-32h67q22 0 40 -4t33 -15t27.5 -31t23.5 -52h21v156h-123v50h-661v-23h214v-1
q30 0 50 -7t31.5 -21.5t16 -37.5t4.5 -56v-435q0 -32 -4.5 -52.5t-16.5 -32t-31.5 -15.5t-49.5 -4h-221v-23zM571 838h122v106h-122v-106zM369 784h122v106h-122v-106z" />
    </font>
</defs>
</svg>
